<svg width="74" height="122" viewBox="0 0 74 122" fill="none" xmlns="http://www.w3.org/2000/svg">
<path fill-rule="evenodd" clip-rule="evenodd" d="M0.0439453 34.9502V9.69622e-06H21.0031C21.0031 9.69622e-06 33.8072 -0.0769225 33.8072 13.4745V34.9502H0.0439453Z" fill="#22572E"/>
<path fill-rule="evenodd" clip-rule="evenodd" d="M40.0166 34.9502V9.69622e-06H60.9868C60.9868 9.69622e-06 73.7909 -0.0769225 73.7909 13.4745V34.9502H40.0166Z" fill="#EE7F0A"/>
<path fill-rule="evenodd" clip-rule="evenodd" d="M0.0107422 42.8633H33.8618V64.4818C33.8618 64.4818 33.9387 77.6706 20.7939 77.6706H0.0107422V42.8633Z" fill="#AB1F24"/>
<path fill-rule="evenodd" clip-rule="evenodd" d="M40.0166 42.8633V77.7035H61.7781C61.7781 77.7035 73.7799 78.1652 73.7799 66.3612V54.5793C73.7799 54.5793 74.2744 42.8633 61.7781 42.8633H40.0166Z" fill="#8C5224"/>
<path fill-rule="evenodd" clip-rule="evenodd" d="M0 121.435C0.969239 121.562 1.94601 121.621 2.92341 121.611C5.29738 121.611 6.74817 121.216 7.61643 120.512C8.00792 120.208 8.32386 119.818 8.53933 119.372C8.7548 118.926 8.86394 118.436 8.85837 117.94C8.86509 117.25 8.63208 116.58 8.19909 116.042C7.76611 115.505 7.15999 115.135 6.48436 114.995C7.04061 114.83 7.53055 114.494 7.88395 114.034C8.23734 113.574 8.4361 113.014 8.45172 112.434C8.45949 111.946 8.33095 111.465 8.08049 111.045C7.83004 110.626 7.46757 110.285 7.03389 110.06C5.93765 109.517 4.7137 109.286 3.49494 109.39C2.32564 109.386 1.15768 109.467 0 109.631V121.457V121.435ZM2.67065 111.412C3.03493 111.363 3.40224 111.341 3.76971 111.346C4.98967 111.346 5.68207 111.83 5.68207 112.742C5.68207 113.654 4.94569 114.215 3.48394 114.215H2.59377V111.412H2.67065ZM3.59395 116.171C4.9458 116.171 6.02284 116.643 6.02284 117.841C6.02284 119.039 4.92381 119.6 3.72584 119.6C3.36004 119.628 2.99257 119.628 2.62677 119.6V116.171H3.59395ZM13.0239 121.49H15.6945V117.171C17.3903 117.411 19.1127 116.981 20.4974 115.973C20.8703 115.6 21.1608 115.153 21.3501 114.661C21.5395 114.169 21.6233 113.642 21.5965 113.115C21.6112 112.584 21.5041 112.056 21.2831 111.572C21.0621 111.088 20.7332 110.661 20.3216 110.324C19.2475 109.604 17.9619 109.267 16.6727 109.368C15.4518 109.347 14.2314 109.428 13.0239 109.609V121.49ZM15.6945 111.522C16.0562 111.45 16.425 111.421 16.7936 111.434C18.1564 111.434 18.9148 112.093 18.9148 113.203C18.9148 114.313 18.0356 115.149 16.5958 115.149C16.2934 115.159 15.9908 115.133 15.6945 115.072V111.522ZM25.5861 121.413C26.5995 121.54 27.6203 121.598 28.6415 121.589C30.5966 121.717 32.5363 121.17 34.1368 120.04C34.8026 119.42 35.324 118.662 35.664 117.819C36.004 116.975 36.1542 116.068 36.1042 115.16C36.1602 114.297 36.0053 113.435 35.653 112.646C35.3006 111.857 34.7614 111.165 34.0819 110.632C32.6401 109.662 30.9123 109.208 29.18 109.346C27.966 109.338 26.7533 109.426 25.5532 109.609V121.413H25.5861ZM28.2678 111.522C28.6735 111.445 29.0861 111.412 29.4988 111.423C30.0115 111.371 30.5294 111.434 31.0146 111.608C31.4998 111.781 31.94 112.061 32.3033 112.426C32.6667 112.792 32.9438 113.234 33.1146 113.72C33.2854 114.206 33.3455 114.724 33.2905 115.237C33.2905 118.116 31.6749 119.468 29.213 119.457C28.8969 119.469 28.5804 119.45 28.2678 119.402V111.522ZM40.2366 121.413H42.9073V117.094C43.2126 117.142 43.5215 117.164 43.8306 117.16C45.2344 117.249 46.6189 116.797 47.6992 115.896C48.0738 115.524 48.3654 115.078 48.5549 114.585C48.7443 114.093 48.8272 113.565 48.7982 113.039C48.813 112.507 48.7058 111.979 48.4848 111.495C48.2639 111.011 47.935 110.584 47.5234 110.247C46.4508 109.524 45.164 109.186 43.8745 109.291C42.6572 109.27 41.4405 109.351 40.2366 109.533V121.413ZM42.9073 111.445C43.2688 111.372 43.6378 111.342 44.0064 111.357C45.3692 111.357 46.1276 112.016 46.1276 113.126C46.1276 114.237 45.2484 115.072 43.8086 115.072C43.5062 115.082 43.2036 115.056 42.9073 114.995V111.445ZM52.7989 121.413H55.4696V117.6L56.4808 116.336L59.4262 121.534H62.5585L58.415 114.621L62.3608 109.5H59.0636L56.3708 113.5C56.096 113.929 55.8103 114.357 55.5465 114.819V109.5H52.8759V121.534L52.7989 121.413ZM65.5371 120.842C66.5947 121.343 67.7518 121.599 68.9221 121.589C72.2193 121.589 73.714 119.875 73.714 117.852C73.714 116.16 72.7469 115.05 70.6367 114.269C69.0761 113.676 68.4386 113.335 68.4386 112.566C68.4386 111.797 68.9991 111.412 70.1751 111.412C71.0324 111.409 71.8788 111.605 72.648 111.983L73.2524 109.785C72.2978 109.351 71.2565 109.14 70.2081 109.17C67.4055 109.17 65.691 110.731 65.691 112.786C65.691 114.533 66.9988 115.643 68.9882 116.358C70.4169 116.852 70.9884 117.281 70.9884 118.028C70.9884 118.776 70.329 119.336 69.087 119.336C68.081 119.342 67.0861 119.124 66.1745 118.699L65.5371 120.842Z" fill="white"/>
<path fill-rule="evenodd" clip-rule="evenodd" d="M1.84613 96.3439C2.78398 96.8778 3.83463 97.1828 4.91256 97.2342C6.01162 97.2342 6.42927 96.8495 6.42927 96.245C6.42927 95.6405 6.07754 95.3548 4.74767 94.8932C2.38469 94.0799 1.45054 92.695 1.50549 91.3542C1.50549 89.1561 3.31891 87.4965 6.1435 87.4965C7.25712 87.476 8.36113 87.7051 9.37468 88.1669L8.73727 90.7057C7.98056 90.2811 7.13179 90.0472 6.26438 90.0243C5.40712 90.0243 4.91256 90.387 4.91256 90.9915C4.91256 91.596 5.35211 91.8378 6.75891 92.3434C8.95703 93.1127 9.83636 94.2447 9.85834 95.9812C9.85834 98.1794 8.17677 99.795 4.91256 99.795C3.63293 99.8242 2.36547 99.5413 1.21973 98.9707L1.84613 96.3439Z" fill="white"/>
<path fill-rule="evenodd" clip-rule="evenodd" d="M23.2228 99.5528L23.0139 98.3658H22.948C22.5473 98.8453 22.0412 99.2257 21.4693 99.4774C20.8973 99.729 20.275 99.8451 19.6508 99.8166C19.1675 99.8346 18.6857 99.7539 18.2346 99.5796C17.7835 99.4052 17.3727 99.1408 17.0271 98.8024C16.6816 98.4641 16.4085 98.0589 16.2247 97.6116C16.0409 97.1643 15.9502 96.6842 15.958 96.2007C15.958 93.1343 18.6287 91.6615 22.6622 91.6945V91.5187C22.6622 90.8922 22.3435 90.002 20.585 90.002C19.4733 90.0141 18.3847 90.3213 17.4307 90.8922L16.7823 88.5292C18.1378 87.8214 19.6496 87.4661 21.1785 87.4961C24.9923 87.4961 26.2012 89.8041 26.2012 92.5848V96.7172C26.1867 97.6762 26.2418 98.6348 26.3661 99.5858L23.2228 99.5528ZM22.8051 93.9806C20.9367 93.9806 19.5079 94.4092 19.5079 95.838C19.4928 96.0261 19.5189 96.2152 19.5844 96.3922C19.6499 96.5691 19.7533 96.7297 19.8872 96.8626C20.0212 96.9955 20.1824 97.0975 20.3599 97.1617C20.5373 97.2258 20.7267 97.2504 20.9146 97.2338C21.3239 97.2302 21.7216 97.0976 22.0511 96.8549C22.3807 96.6122 22.6253 96.2717 22.7501 95.882C22.8047 95.6777 22.8307 95.4669 22.8271 95.2555L22.8051 93.9806Z" fill="white"/>
<path fill-rule="evenodd" clip-rule="evenodd" d="M36.2357 87.7603L37.1479 92.5852C37.3787 93.8161 37.6096 95.113 37.7964 96.4649C38.0272 95.113 38.3568 93.7612 38.6316 92.6072L39.8516 87.7603H42.6542L43.7532 92.4643C44.061 93.7832 44.3577 95.113 44.5885 96.4649C44.7534 95.113 44.9841 93.7832 45.2369 92.4313L46.2151 87.7603H49.6992L46.391 99.5532H43.0938L41.9948 95.3988C41.709 94.2448 41.5001 93.2007 41.2693 91.7389C41.1039 92.9745 40.8543 94.1973 40.522 95.3988L39.423 99.5532H36.1258L32.8286 87.7603H36.2357Z" fill="white"/>
<path fill-rule="evenodd" clip-rule="evenodd" d="M59.8987 84.485C59.9022 84.7331 59.8544 84.9792 59.7584 85.208C59.6624 85.4367 59.5201 85.6432 59.3406 85.8145C59.1611 85.9858 58.9482 86.1181 58.7152 86.2033C58.4821 86.2885 58.234 86.3246 57.9864 86.3094C57.7327 86.329 57.4776 86.296 57.2372 86.2124C56.9969 86.1288 56.7765 85.9964 56.5898 85.8235C56.403 85.6506 56.254 85.441 56.1521 85.2079C56.0502 84.9747 55.9976 84.723 55.9976 84.4685C55.9976 84.214 56.0502 83.9623 56.1521 83.7291C56.254 83.4959 56.403 83.2863 56.5898 83.1135C56.7765 82.9406 56.9969 82.8082 57.2372 82.7246C57.4776 82.641 57.7327 82.6079 57.9864 82.6276C58.2351 82.6153 58.4835 82.6547 58.7162 82.7432C58.9489 82.8318 59.1609 82.9676 59.3385 83.1421C59.5161 83.3167 59.6556 83.5261 59.7482 83.7572C59.8409 83.9883 59.8846 84.2361 59.8767 84.485H59.8987ZM56.2278 87.7822H59.7779V99.5751H56.2828V87.7602L56.2278 87.7822Z" fill="white"/>
<path fill-rule="evenodd" clip-rule="evenodd" d="M71.3179 84.3861V87.7602H73.8676V90.4639H71.3179V94.7283C71.3179 96.1461 71.6475 96.8055 72.7246 96.8055C73.0932 96.8056 73.461 96.7725 73.8236 96.7066V99.4762C73.0755 99.7185 72.2904 99.8264 71.5046 99.7949C71.0152 99.8136 70.5271 99.7326 70.0699 99.5569C69.6127 99.3812 69.196 99.1144 68.845 98.7728C68.0878 97.7738 67.7382 96.5247 67.8668 95.2778V90.4639H66.3501V87.7602H67.8668V85.1994L71.3179 84.3861Z" fill="white"/>
<path d="M73.7464 103.631H0.0541992V105.246H73.7464V103.631Z" fill="white"/>
</svg>
