<svg width="519" height="43" viewBox="0 0 519 43" fill="none" xmlns="http://www.w3.org/2000/svg">
<path fill-rule="evenodd" clip-rule="evenodd" d="M40.0384 40.1646C30.8127 10.7213 10.0101 17.2176 2.75282 27.8104C4.75809 12.4918 36.9647 8.03002 40.0384 40.1669V40.1646Z" fill="black"/>
<path fill-rule="evenodd" clip-rule="evenodd" d="M40.0384 40.1646C38.3515 8.40203 12.3916 8.7809 0 18.6045C9.77252 1.6279 45.4819 9.70633 40.0384 40.1646Z" fill="black"/>
<path fill-rule="evenodd" clip-rule="evenodd" d="M40.0384 40.1646C46.008 13.323 25.9233 1.60967 0.574774 9.01986C24.5896 -4.74882 52.3977 14.1635 40.0384 40.1669V40.1646Z" fill="black"/>
<path fill-rule="evenodd" clip-rule="evenodd" d="M40.0384 40.1646C10.5939 30.5408 17.4358 9.93839 28.189 2.87953C12.7676 4.6431 7.7971 36.6215 40.0406 40.1647L40.0384 40.1646Z" fill="black"/>
<path fill-rule="evenodd" clip-rule="evenodd" d="M40.0384 40.1646C8.14788 38.0061 8.92109 12.1819 18.9821 0C1.77688 9.46539 9.35243 45.12 40.0384 40.1646Z" fill="black"/>
<path fill-rule="evenodd" clip-rule="evenodd" d="M40.0384 40.1646C12.9776 45.6987 1.51147 25.5372 9.34102 0.427064C-4.8574 24.1135 13.7252 52.0688 40.0406 40.1647L40.0384 40.1646Z" fill="black"/>
<path fill-rule="evenodd" clip-rule="evenodd" d="M28.7154 26.5912C30.2868 26.1733 31.9021 27.101 32.3221 28.6648C32.7421 30.2286 31.8098 31.836 30.2384 32.2539C28.6669 32.6719 27.0516 31.7442 26.6317 30.1804C26.2117 28.6166 27.1439 27.0092 28.7154 26.5912Z" fill="black"/>
<path fill-rule="evenodd" clip-rule="evenodd" d="M438.59 29.7477L445.837 13.5738H449.552L456.817 29.7477H452.87L447.668 17.2485L442.444 29.7477H438.59Z" fill="black"/>
<path d="M436.871 13.5738H433.111V29.7477H436.871V13.5738Z" fill="black"/>
<path fill-rule="evenodd" clip-rule="evenodd" d="M423.641 30.0232C422.341 30.0232 421.096 29.8499 419.903 29.5034C418.711 29.1568 417.751 28.708 417.023 28.1526L418.3 25.3355C418.997 25.8287 419.823 26.233 420.774 26.5485C421.725 26.864 422.69 27.024 423.663 27.024C424.404 27.024 425.007 26.9484 425.463 26.8062C425.918 26.6596 426.257 26.4552 426.472 26.1931C426.69 25.9309 426.798 25.6332 426.798 25.291C426.798 24.86 426.628 24.5179 426.289 24.2646C425.949 24.0114 425.498 23.8025 424.945 23.6426C424.386 23.4826 423.77 23.3271 423.096 23.1804C422.422 23.0338 421.752 22.8516 421.078 22.6384C420.404 22.4206 419.787 22.1451 419.234 21.8074C418.675 21.4698 418.225 21.021 417.876 20.47C417.528 19.9146 417.354 19.2081 417.354 18.3461C417.354 17.4218 417.604 16.5776 418.108 15.8178C418.613 15.0535 419.372 14.4448 420.386 13.9916C421.399 13.5383 422.672 13.3117 424.203 13.3117C425.226 13.3117 426.231 13.4317 427.222 13.6716C428.213 13.9116 429.088 14.2671 429.847 14.7469L428.686 17.5863C427.927 17.1552 427.168 16.8353 426.409 16.6265C425.65 16.4176 424.909 16.3154 424.181 16.3154C423.453 16.3154 422.859 16.3999 422.395 16.5687C421.931 16.7376 421.596 16.9597 421.395 17.2263C421.194 17.4974 421.091 17.8084 421.091 18.1639C421.091 18.5816 421.261 18.9148 421.605 19.1681C421.944 19.4214 422.395 19.6258 422.949 19.7813C423.507 19.9368 424.123 20.0879 424.793 20.2434C425.467 20.3989 426.137 20.5722 426.811 20.7766C427.485 20.9765 428.097 21.2476 428.655 21.5853C429.213 21.923 429.664 22.3718 430.012 22.9227C430.361 23.4782 430.535 24.1802 430.535 25.0245C430.535 25.9309 430.28 26.7663 429.771 27.5172C429.258 28.2726 428.499 28.8813 427.485 29.3434C426.472 29.8055 425.19 30.0366 423.641 30.0366V30.0232Z" fill="black"/>
<path fill-rule="evenodd" clip-rule="evenodd" d="M406.459 26.744H415.304V29.7477H402.722V13.5738H415.005V16.5776H406.459V20.0878H414.005V22.9982H406.459V26.744Z" fill="black"/>
<path fill-rule="evenodd" clip-rule="evenodd" d="M383.964 29.7477V13.5738H387.076L395.153 23.3848V13.5738H398.868V29.7477H395.778L387.679 19.9279V29.7477H383.964Z" fill="black"/>
<path fill-rule="evenodd" clip-rule="evenodd" d="M372.265 30.0233C370.979 30.0233 369.792 29.8144 368.702 29.4012C367.613 28.9835 366.666 28.4014 365.871 27.6461C365.072 26.8907 364.456 26.0065 364.014 24.9889C363.572 23.9714 363.353 22.865 363.353 21.6609C363.353 20.4567 363.572 19.3503 364.014 18.3328C364.456 17.3152 365.076 16.431 365.88 15.6756C366.684 14.9203 367.63 14.3337 368.711 13.9205C369.796 13.5028 370.97 13.2984 372.238 13.2984C373.507 13.2984 374.703 13.5073 375.779 13.9205C376.855 14.3382 377.793 14.9203 378.588 15.6756C379.383 16.431 380.008 17.3108 380.459 18.3194C380.91 19.3281 381.133 20.4389 381.133 21.6564C381.133 22.8739 380.91 23.9714 380.459 24.9934C380.008 26.0198 379.387 26.904 378.588 27.6505C377.793 28.397 376.855 28.9791 375.779 29.3968C374.703 29.8144 373.533 30.0188 372.261 30.0188L372.265 30.0233ZM372.243 26.8329C372.971 26.8329 373.641 26.7085 374.252 26.4641C374.864 26.2198 375.4 25.8643 375.864 25.4022C376.329 24.9401 376.69 24.3935 376.945 23.7626C377.199 23.1316 377.329 22.4296 377.329 21.6609C377.329 20.8922 377.199 20.1901 376.945 19.5591C376.69 18.9282 376.333 18.3817 375.878 17.9195C375.422 17.4574 374.882 17.102 374.266 16.8576C373.645 16.6132 372.975 16.4888 372.247 16.4888C371.52 16.4888 370.85 16.6132 370.238 16.8576C369.626 17.102 369.091 17.4574 368.626 17.9195C368.162 18.3817 367.8 18.9282 367.546 19.5591C367.291 20.1901 367.162 20.8922 367.162 21.6609C367.162 22.4296 367.291 23.1138 367.546 23.7492C367.8 24.3891 368.157 24.9401 368.613 25.4022C369.068 25.8643 369.608 26.2198 370.225 26.4641C370.845 26.713 371.515 26.8329 372.243 26.8329Z" fill="black"/>
<path fill-rule="evenodd" clip-rule="evenodd" d="M345.193 29.7477V13.5738H352.574C354.337 13.5738 355.891 13.9071 357.24 14.578C358.588 15.249 359.638 16.1821 360.397 17.3863C361.156 18.586 361.535 20.0123 361.535 21.6608C361.535 23.3093 361.156 24.7134 360.397 25.922C359.638 27.1306 358.588 28.0726 357.24 28.7391C355.891 29.41 354.337 29.7433 352.574 29.7433H345.193V29.7477ZM348.953 26.6729H352.391C353.476 26.6729 354.413 26.4685 355.213 26.0597C356.007 25.6509 356.628 25.0688 357.07 24.3135C357.512 23.5581 357.731 22.6739 357.731 21.6563C357.731 20.6388 357.512 19.7368 357.07 18.9859C356.628 18.2394 356.012 17.6617 355.213 17.253C354.418 16.8442 353.476 16.6398 352.391 16.6398H348.953V26.6729Z" fill="black"/>
<path fill-rule="evenodd" clip-rule="evenodd" d="M326.435 29.7477V13.5738H329.547L337.625 23.3848V13.5738H341.34V29.7477H338.25L330.15 19.9279V29.7477H326.435Z" fill="black"/>
<path d="M322.577 13.5738H318.817V29.7477H322.577V13.5738Z" fill="black"/>
<path fill-rule="evenodd" clip-rule="evenodd" d="M301.107 29.7296V16.6083H295.905V13.5602H310.068V16.6083H304.867V29.7296H301.107Z" fill="black"/>
<path d="M293.886 13.5602H290.127V29.734H293.886V13.5602Z" fill="black"/>
<path fill-rule="evenodd" clip-rule="evenodd" d="M267.372 29.7296L262.054 13.5602H265.957L269.623 24.9263L273.454 13.5602H276.937L280.652 25.0107L284.438 13.5602H288.037L282.719 29.7296H278.678L275.097 18.7722L271.413 29.7296H267.372Z" fill="black"/>
<path fill-rule="evenodd" clip-rule="evenodd" d="M244.435 29.7296L251.678 13.5602H255.393L262.662 29.7296H258.715L253.513 17.2348L248.289 29.7296H244.435Z" fill="black"/>
<path fill-rule="evenodd" clip-rule="evenodd" d="M237.099 30.01C235.8 30.01 234.554 29.8367 233.362 29.4901C232.17 29.1435 231.21 28.6947 230.482 28.1393L231.759 25.3222C232.455 25.8154 233.281 26.2198 234.232 26.5353C235.183 26.8507 236.148 27.0107 237.121 27.0107C237.863 27.0107 238.465 26.9352 238.921 26.793C239.376 26.6464 239.716 26.442 239.93 26.1798C240.144 25.9176 240.256 25.6199 240.256 25.2778C240.256 24.8468 240.086 24.5046 239.742 24.2514C239.403 23.9981 238.952 23.7893 238.398 23.6293C237.84 23.4693 237.224 23.3138 236.554 23.1672C235.88 23.0206 235.21 22.8384 234.536 22.6251C233.862 22.4074 233.246 22.1319 232.692 21.7942C232.134 21.4565 231.683 21.0077 231.335 20.4567C230.986 19.9013 230.812 19.1948 230.812 18.3328C230.812 17.4086 231.062 16.5644 231.567 15.8045C232.071 15.0403 232.83 14.4315 233.844 13.9783C234.858 13.5251 236.13 13.2985 237.662 13.2985C238.684 13.2985 239.689 13.4184 240.68 13.6584C241.671 13.8983 242.546 14.2538 243.306 14.7337L242.145 17.573C241.386 17.142 240.626 16.8221 239.867 16.6132C239.108 16.4044 238.367 16.3022 237.639 16.3022C236.911 16.3022 236.318 16.3866 235.853 16.5555C235.389 16.7243 235.054 16.9465 234.853 17.2131C234.652 17.4841 234.549 17.7952 234.549 18.1506C234.549 18.5683 234.719 18.9016 235.063 19.1548C235.402 19.4081 235.853 19.6125 236.407 19.768C236.965 19.9235 237.581 20.0746 238.251 20.2301C238.925 20.3856 239.595 20.5589 240.269 20.7633C240.943 20.9633 241.555 21.2343 242.113 21.572C242.672 21.9097 243.123 22.3585 243.471 22.9095C243.819 23.4649 243.993 24.167 243.993 25.0112C243.993 25.9221 243.739 26.753 243.23 27.5039C242.716 28.2593 241.957 28.868 240.944 29.3301C239.93 29.7923 238.648 30.0233 237.099 30.0233V30.01Z" fill="black"/>
<path fill-rule="evenodd" clip-rule="evenodd" d="M214.206 29.7296V16.6083H209.009V13.5602H223.168V16.6083H217.97V29.7296H214.206Z" fill="black"/>
<path fill-rule="evenodd" clip-rule="evenodd" d="M199.003 26.7259H207.848V29.7296H195.265V13.5602H207.544V16.5639H199.003V20.0741H206.549V22.9845H199.003V26.7259Z" fill="black"/>
<path fill-rule="evenodd" clip-rule="evenodd" d="M185.79 30.0099C184.491 30.0099 183.245 29.8367 182.053 29.4901C180.861 29.1435 179.901 28.6947 179.173 28.1393L180.45 25.3222C181.147 25.8154 181.968 26.2198 182.924 26.5352C183.875 26.8507 184.839 27.0107 185.813 27.0107C186.554 27.0107 187.157 26.9351 187.612 26.7929C188.068 26.6463 188.407 26.4419 188.621 26.1798C188.836 25.9176 188.947 25.6199 188.947 25.2778C188.947 24.8468 188.778 24.5046 188.434 24.2513C188.094 23.9981 187.643 23.7892 187.09 23.6293C186.532 23.4693 185.915 23.3138 185.241 23.1672C184.567 23.0205 183.897 22.8384 183.223 22.6251C182.549 22.4073 181.933 22.1319 181.379 21.7942C180.821 21.4565 180.37 21.0077 180.022 20.4567C179.673 19.9013 179.499 19.1948 179.499 18.3328C179.499 17.4086 179.749 16.5643 180.254 15.8045C180.758 15.0402 181.517 14.4315 182.531 13.9783C183.544 13.5251 184.817 13.2984 186.349 13.2984C187.371 13.2984 188.376 13.4184 189.367 13.6584C190.358 13.8983 191.233 14.2538 191.993 14.7337L190.832 17.573C190.073 17.142 189.313 16.822 188.554 16.6132C187.795 16.4044 187.054 16.3022 186.326 16.3022C185.598 16.3022 185.005 16.3866 184.54 16.5554C184.076 16.7243 183.741 16.9464 183.54 17.213C183.339 17.4841 183.236 17.7951 183.236 18.1506C183.236 18.5683 183.406 18.9015 183.745 19.1548C184.085 19.4081 184.536 19.6125 185.089 19.768C185.648 19.9235 186.264 20.0746 186.934 20.2301C187.608 20.3856 188.278 20.5589 188.952 20.7633C189.626 20.9633 190.238 21.2343 190.796 21.572C191.354 21.9097 191.805 22.3585 192.153 22.9094C192.502 23.4649 192.676 24.1669 192.676 25.0112C192.676 25.9221 192.421 26.753 191.912 27.5039C191.399 28.2593 190.64 28.868 189.626 29.3301C188.612 29.7922 187.331 30.0233 185.782 30.0233L185.79 30.0099Z" fill="black"/>
<path d="M176.597 13.5602H172.837V29.734H176.597V13.5602Z" fill="black"/>
<path fill-rule="evenodd" clip-rule="evenodd" d="M166.103 29.7298L162.04 23.8646H166.059L170.167 29.7298H166.103Z" fill="black"/>
<path fill-rule="evenodd" clip-rule="evenodd" d="M155.771 29.7297V13.5559H162.804C164.259 13.5559 165.514 13.7914 166.563 14.2624C167.617 14.7334 168.43 15.4043 169.001 16.2841C169.573 17.1639 169.859 18.2081 169.859 19.4256C169.859 20.643 169.573 21.665 169.001 22.5315C168.43 23.4024 167.617 24.0689 166.563 24.531C165.51 24.9931 164.255 25.2241 162.804 25.2241H159.531V29.7297H155.771ZM159.531 22.2426H162.594C163.755 22.2426 164.621 21.9938 165.193 21.4917C165.764 20.9896 166.05 20.3009 166.05 19.4256C166.05 18.5502 165.764 17.8393 165.193 17.3461C164.621 16.8528 163.755 16.6085 162.594 16.6085H159.531V22.2471V22.2426Z" fill="black"/>
<path fill-rule="evenodd" clip-rule="evenodd" d="M132.358 29.3871V13.2133H135.47L143.548 23.0242V13.2133H147.263V29.3871H144.177L136.073 19.5717V29.3871H132.358Z" fill="black"/>
<path fill-rule="evenodd" clip-rule="evenodd" d="M112.439 29.3871L119.682 13.2133H123.397L130.666 29.3871H126.719L121.517 16.8924L116.293 29.3871H112.439Z" fill="black"/>
<path fill-rule="evenodd" clip-rule="evenodd" d="M106.027 29.3873L100.245 22.3401L102.705 19.683L110.412 29.3873H106.027Z" fill="black"/>
<path fill-rule="evenodd" clip-rule="evenodd" d="M94.9041 29.3871V13.2133H98.6415V20.7625L105.839 13.2133H110.019L103.008 20.7225L100.919 22.9398L98.6415 25.3037V29.3871H94.9041Z" fill="black"/>
<path fill-rule="evenodd" clip-rule="evenodd" d="M83.063 26.3834H91.9084V29.3871H79.3257V13.2133H91.6093V16.217H83.063V19.7317H90.6091V22.6421H83.063V26.3834Z" fill="black"/>
<path fill-rule="evenodd" clip-rule="evenodd" d="M62.5638 29.3872V13.2133H69.5964C71.052 13.2133 72.3067 13.4488 73.356 13.9198C74.4098 14.3908 75.2225 15.0618 75.794 15.9415C76.3655 16.8213 76.6513 17.8655 76.6513 19.083C76.6513 20.3005 76.3655 21.3225 75.794 22.2022C75.2225 23.082 74.4098 23.753 73.356 24.224C72.3023 24.695 71.0475 24.926 69.5964 24.926H66.3234V29.3872H62.5638ZM66.3234 21.8779H69.3865C70.5475 21.8779 71.4137 21.6335 71.9852 21.1403C72.5568 20.6471 72.8425 19.9628 72.8425 19.083C72.8425 18.2032 72.5568 17.4967 71.9852 17.0035C71.4137 16.5103 70.5475 16.2659 69.3865 16.2659H66.3234V21.8823V21.8779Z" fill="black"/>
<path d="M466.801 26.0564L473.058 20.4613C473.376 20.1744 473.695 19.8497 474.013 19.4873C474.332 19.1248 474.491 18.702 474.491 18.2188C474.491 17.6751 474.294 17.2523 473.899 16.9502C473.505 16.6331 473.042 16.4746 472.512 16.4746C471.875 16.4746 471.374 16.6709 471.01 17.0635C470.661 17.4561 470.464 17.9394 470.418 18.5132L467.006 18.2641C467.051 17.4335 467.226 16.7162 467.529 16.1121C467.833 15.493 468.234 14.9795 468.735 14.5718C469.235 14.164 469.819 13.862 470.487 13.6657C471.169 13.4543 471.905 13.3486 472.694 13.3486C473.422 13.3486 474.104 13.4543 474.741 13.6657C475.378 13.862 475.932 14.164 476.402 14.5718C476.872 14.9644 477.236 15.4628 477.494 16.0668C477.767 16.6709 477.903 17.3731 477.903 18.1735C477.903 18.6869 477.85 19.155 477.744 19.5779C477.638 19.9856 477.486 20.3631 477.289 20.7105C477.107 21.0427 476.887 21.3523 476.629 21.6392C476.372 21.9261 476.091 22.2055 475.788 22.4773L470.896 26.668H478.04V29.658H466.801V26.0564Z" fill="black"/>
<path d="M479.901 21.6392C479.901 20.6878 479.984 19.7213 480.151 18.7398C480.333 17.7582 480.644 16.8672 481.084 16.0668C481.539 15.2664 482.153 14.6171 482.927 14.1187C483.7 13.6053 484.686 13.3486 485.884 13.3486C487.082 13.3486 488.068 13.6053 488.842 14.1187C489.615 14.6171 490.222 15.2664 490.662 16.0668C491.117 16.8672 491.428 17.7582 491.595 18.7398C491.777 19.7213 491.868 20.6878 491.868 21.6392C491.868 22.5906 491.777 23.5571 491.595 24.5387C491.428 25.5203 491.117 26.4112 490.662 27.2116C490.222 28.012 489.615 28.6689 488.842 29.1823C488.068 29.6807 487.082 29.9299 485.884 29.9299C484.686 29.9299 483.7 29.6807 482.927 29.1823C482.153 28.6689 481.539 28.012 481.084 27.2116C480.644 26.4112 480.333 25.5203 480.151 24.5387C479.984 23.5571 479.901 22.5906 479.901 21.6392ZM483.314 21.6392C483.314 22.062 483.329 22.5679 483.359 23.1569C483.404 23.7458 483.511 24.3122 483.677 24.8558C483.844 25.3994 484.095 25.86 484.428 26.2376C484.777 26.6151 485.262 26.8039 485.884 26.8039C486.491 26.8039 486.969 26.6151 487.318 26.2376C487.666 25.86 487.924 25.3994 488.091 24.8558C488.258 24.3122 488.357 23.7458 488.387 23.1569C488.432 22.5679 488.455 22.062 488.455 21.6392C488.455 21.2164 488.432 20.7105 488.387 20.1215C488.357 19.5326 488.258 18.9663 488.091 18.4226C487.924 17.879 487.666 17.4184 487.318 17.0409C486.969 16.6633 486.491 16.4746 485.884 16.4746C485.262 16.4746 484.777 16.6633 484.428 17.0409C484.095 17.4184 483.844 17.879 483.677 18.4226C483.511 18.9663 483.404 19.5326 483.359 20.1215C483.329 20.7105 483.314 21.2164 483.314 21.6392Z" fill="black"/>
<path d="M493.729 26.0564L499.985 20.4613C500.304 20.1744 500.622 19.8497 500.941 19.4873C501.259 19.1248 501.418 18.702 501.418 18.2188C501.418 17.6751 501.221 17.2523 500.827 16.9502C500.433 16.6331 499.97 16.4746 499.439 16.4746C498.802 16.4746 498.302 16.6709 497.938 17.0635C497.589 17.4561 497.392 17.9394 497.346 18.5132L493.933 18.2641C493.979 17.4335 494.153 16.7162 494.457 16.1121C494.76 15.493 495.162 14.9795 495.662 14.5718C496.163 14.164 496.747 13.862 497.414 13.6657C498.097 13.4543 498.832 13.3486 499.621 13.3486C500.349 13.3486 501.032 13.4543 501.669 13.6657C502.306 13.862 502.859 14.164 503.329 14.5718C503.8 14.9644 504.164 15.4628 504.421 16.0668C504.694 16.6709 504.831 17.3731 504.831 18.1735C504.831 18.6869 504.778 19.155 504.672 19.5779C504.566 19.9856 504.414 20.3631 504.217 20.7105C504.035 21.0427 503.815 21.3523 503.557 21.6392C503.299 21.9261 503.018 22.2055 502.715 22.4773L497.824 26.668H504.967V29.658H493.729V26.0564Z" fill="black"/>
<path d="M513.654 26.4414H506.624V23.5873L513.199 13.6204H516.93V23.5873H519V26.4414H516.93V29.658H513.654V26.4414ZM513.654 18.0602H513.608L510.036 23.5873H513.654V18.0602Z" fill="black"/>
</svg>
