<svg width="677" height="376" viewBox="0 0 677 376" fill="none" xmlns="http://www.w3.org/2000/svg">
<path fill-rule="evenodd" clip-rule="evenodd" d="M207.18 209.423C159.441 55.9029 51.7947 89.7583 14.2542 145.004C24.6278 65.1349 191.277 41.8721 207.18 209.423Z" fill="white"/>
<path fill-rule="evenodd" clip-rule="evenodd" d="M207.18 209.423C198.455 43.8033 64.1239 45.7778 0 96.9998C50.5696 8.48421 235.339 50.592 207.18 209.423Z" fill="white"/>
<path fill-rule="evenodd" clip-rule="evenodd" d="M207.18 209.423C238.068 69.4655 134.142 8.38152 2.97645 47.0211C127.241 -24.7716 271.129 73.8401 207.18 209.423Z" fill="white"/>
<path fill-rule="evenodd" clip-rule="evenodd" d="M207.18 209.423C54.8149 159.239 90.2107 51.8195 145.858 15.0088C66.0493 24.1968 40.3414 190.944 207.18 209.423Z" fill="white"/>
<path fill-rule="evenodd" clip-rule="evenodd" d="M207.18 209.423C42.1652 198.172 46.163 63.5117 98.2208 0C9.19145 49.3639 48.3952 235.26 207.18 209.423Z" fill="white"/>
<path fill-rule="evenodd" clip-rule="evenodd" d="M207.18 209.423C67.1582 238.274 7.81971 133.153 48.3367 2.22297C-25.125 125.72 71.0246 271.5 207.18 209.423Z" fill="white"/>
<path fill-rule="evenodd" clip-rule="evenodd" d="M148.572 138.624C156.699 136.444 165.059 141.272 167.233 149.436C169.407 157.586 164.592 165.969 156.451 168.149C148.324 170.329 139.964 165.501 137.79 157.337C135.616 149.188 140.431 140.804 148.572 138.624Z" fill="white"/>
<path fill-rule="evenodd" clip-rule="evenodd" d="M584.687 192.553L604.063 148.983H613.985L633.419 192.553H622.87L608.951 158.888L594.988 192.553H584.687Z" fill="white"/>
<path d="M580.091 148.983H570.039V192.568H580.091V148.983Z" fill="white"/>
<path fill-rule="evenodd" clip-rule="evenodd" d="M544.71 193.299C541.238 193.299 537.897 192.831 534.716 191.895C531.535 190.958 528.967 189.744 527.012 188.252L530.427 180.658C532.294 181.99 534.497 183.073 537.036 183.936C539.575 184.784 542.157 185.209 544.769 185.209C546.753 185.209 548.358 185.004 549.583 184.623C550.809 184.228 551.699 183.672 552.283 182.97C552.866 182.268 553.158 181.463 553.158 180.541C553.158 179.386 552.706 178.449 551.787 177.776C550.882 177.089 549.671 176.533 548.183 176.094C546.695 175.655 545.046 175.245 543.251 174.85C541.457 174.455 539.648 173.972 537.853 173.387C536.058 172.802 534.41 172.056 532.921 171.149C531.433 170.241 530.222 169.027 529.288 167.535C528.355 166.042 527.888 164.126 527.888 161.8C527.888 159.312 528.559 157.03 529.901 154.982C531.244 152.933 533.272 151.28 535.985 150.066C538.699 148.837 542.099 148.222 546.198 148.222C548.927 148.222 551.626 148.544 554.267 149.188C556.922 149.832 559.257 150.797 561.285 152.085L558.177 159.737C556.149 158.581 554.121 157.718 552.093 157.147C550.065 156.591 548.081 156.313 546.14 156.313C544.2 156.313 542.595 156.547 541.355 157.001C540.114 157.454 539.224 158.054 538.685 158.771C538.145 159.503 537.882 160.337 537.882 161.288C537.882 162.414 538.334 163.307 539.254 163.994C540.158 164.682 541.369 165.223 542.857 165.647C544.346 166.057 545.994 166.481 547.789 166.891C549.583 167.301 551.393 167.784 553.187 168.325C554.982 168.866 556.63 169.583 558.119 170.505C559.607 171.412 560.818 172.626 561.752 174.119C562.685 175.611 563.152 177.498 563.152 179.781C563.152 182.224 562.467 184.462 561.11 186.496C559.738 188.53 557.71 190.168 554.996 191.412C552.283 192.656 548.854 193.285 544.725 193.285L544.71 193.299Z" fill="white"/>
<path fill-rule="evenodd" clip-rule="evenodd" d="M498.766 184.462H522.417V192.553H488.772V148.983H521.615V157.074H498.766V166.54H518.944V174.382H498.766V184.462Z" fill="white"/>
<path fill-rule="evenodd" clip-rule="evenodd" d="M438.61 192.553V148.983H446.927L468.535 175.42V148.983H478.471V192.553H470.213L448.546 166.115V192.553H438.61Z" fill="white"/>
<path fill-rule="evenodd" clip-rule="evenodd" d="M407.314 193.298C403.886 193.298 400.705 192.742 397.787 191.616C394.869 190.489 392.345 188.924 390.215 186.89C388.085 184.856 386.421 182.472 385.254 179.736C384.072 177 383.489 174.015 383.489 170.767C383.489 167.519 384.072 164.549 385.254 161.799C386.436 159.063 388.099 156.678 390.244 154.644C392.403 152.61 394.927 151.03 397.816 149.918C400.72 148.792 403.857 148.236 407.256 148.236C410.656 148.236 413.851 148.792 416.725 149.918C419.599 151.045 422.109 152.61 424.239 154.644C426.369 156.678 428.032 159.048 429.243 161.769C430.44 164.491 431.038 167.49 431.038 170.767C431.038 174.044 430.44 177 429.243 179.765C428.047 182.53 426.384 184.915 424.239 186.919C422.109 188.938 419.599 190.504 416.725 191.616C413.851 192.742 410.714 193.298 407.314 193.298ZM407.256 184.71C409.197 184.71 410.991 184.374 412.625 183.715C414.259 183.057 415.704 182.091 416.944 180.848C418.184 179.604 419.147 178.126 419.833 176.429C420.519 174.732 420.854 172.845 420.854 170.767C420.854 168.69 420.519 166.802 419.833 165.105C419.147 163.408 418.199 161.93 416.973 160.687C415.748 159.443 414.318 158.492 412.654 157.819C411.006 157.161 409.197 156.824 407.256 156.824C405.316 156.824 403.521 157.161 401.887 157.819C400.253 158.477 398.808 159.443 397.568 160.687C396.328 161.93 395.365 163.408 394.679 165.105C393.994 166.802 393.658 168.69 393.658 170.767C393.658 172.845 393.994 174.673 394.679 176.4C395.365 178.126 396.313 179.604 397.539 180.848C398.765 182.091 400.194 183.042 401.858 183.715C403.506 184.374 405.316 184.71 407.256 184.71Z" fill="white"/>
<path fill-rule="evenodd" clip-rule="evenodd" d="M334.932 192.553V148.968H354.673C359.386 148.968 363.544 149.875 367.148 151.675C370.751 153.474 373.567 156.005 375.595 159.239C377.623 162.472 378.645 166.32 378.645 170.753C378.645 175.186 377.638 178.975 375.595 182.238C373.567 185.501 370.751 188.032 367.148 189.831C363.544 191.631 359.386 192.538 354.673 192.538H334.932V192.553ZM344.985 184.272H354.177C357.08 184.272 359.59 183.716 361.72 182.618C363.85 181.521 365.513 179.956 366.681 177.922C367.863 175.888 368.446 173.503 368.446 170.768C368.446 168.032 367.863 165.588 366.681 163.569C365.499 161.55 363.85 159.999 361.72 158.902C359.59 157.805 357.08 157.249 354.177 157.249H344.985V184.272Z" fill="white"/>
<path fill-rule="evenodd" clip-rule="evenodd" d="M284.771 192.553V148.983H293.088L314.696 175.42V148.983H324.617V192.553H316.374L294.707 166.115V192.553H284.771Z" fill="white"/>
<path d="M274.456 148.983H264.404V192.568H274.456V148.983Z" fill="white"/>
<path fill-rule="evenodd" clip-rule="evenodd" d="M653.043 133.854V98.492H639.138V90.2696H677V98.492H663.096V133.854H653.043Z" fill="white"/>
<path d="M633.725 90.2696H623.673V133.854H633.725V90.2696Z" fill="white"/>
<path fill-rule="evenodd" clip-rule="evenodd" d="M562.832 133.854L548.621 90.2696H559.053L568.857 120.906L579.1 90.2696H588.408L598.344 121.126L608.47 90.2696H618.085L603.874 133.854H593.062L583.491 104.33L573.643 133.854H562.832Z" fill="white"/>
<path fill-rule="evenodd" clip-rule="evenodd" d="M501.494 133.854L520.87 90.2696H530.806L550.225 133.854H539.677L525.758 100.175L511.795 133.854H501.494Z" fill="white"/>
<path fill-rule="evenodd" clip-rule="evenodd" d="M481.885 134.601C478.413 134.601 475.072 134.133 471.891 133.197C468.71 132.26 466.142 131.046 464.187 129.554L467.601 121.96C469.469 123.292 471.672 124.374 474.211 125.238C476.749 126.086 479.332 126.51 481.944 126.51C483.928 126.51 485.533 126.306 486.758 125.925C487.984 125.53 488.874 124.974 489.457 124.272C490.041 123.57 490.333 122.765 490.333 121.843C490.333 120.687 489.881 119.766 488.961 119.078C488.057 118.39 486.846 117.835 485.358 117.396C483.869 116.957 482.221 116.547 480.426 116.152C478.632 115.757 476.822 115.274 475.028 114.689C473.219 114.104 471.585 113.358 470.096 112.45C468.608 111.543 467.397 110.329 466.463 108.837C465.53 107.344 465.063 105.428 465.063 103.101C465.063 100.614 465.734 98.3318 467.076 96.2835C468.418 94.2352 470.446 92.5819 473.16 91.3676C475.874 90.1386 479.273 89.5241 483.373 89.5241C486.102 89.5241 488.801 89.846 491.442 90.4898C494.097 91.1335 496.432 92.0991 498.46 93.3866L495.352 101.038C493.324 99.8827 491.296 99.0194 489.268 98.4488C487.24 97.8929 485.255 97.6149 483.315 97.6149C481.375 97.6149 479.77 97.8489 478.529 98.3025C477.289 98.756 476.399 99.3559 475.859 100.073C475.32 100.804 475.057 101.638 475.057 102.589C475.057 103.716 475.509 104.608 476.428 105.296C477.333 105.984 478.544 106.525 480.032 106.949C481.52 107.359 483.169 107.783 484.964 108.193C486.758 108.602 488.567 109.085 490.362 109.627C492.157 110.168 493.805 110.885 495.294 111.807C496.782 112.714 497.993 113.928 498.926 115.42C499.86 116.913 500.327 118.8 500.327 121.082C500.327 123.526 499.641 125.779 498.285 127.798C496.913 129.832 494.885 131.47 492.171 132.714C489.457 133.957 486.029 134.587 481.9 134.587L481.885 134.601Z" fill="white"/>
<path fill-rule="evenodd" clip-rule="evenodd" d="M420.664 133.854V98.492H406.76V90.2696H444.636V98.492H430.717V133.854H420.664Z" fill="white"/>
<path fill-rule="evenodd" clip-rule="evenodd" d="M380.002 125.764H403.653V133.854H370.008V90.2696H402.85V98.3604H380.002V107.826H400.18V115.668H380.002V125.764Z" fill="white"/>
<path fill-rule="evenodd" clip-rule="evenodd" d="M344.679 134.601C341.206 134.601 337.865 134.133 334.684 133.197C331.504 132.26 328.936 131.046 326.981 129.554L330.395 121.96C332.262 123.292 334.465 124.374 337.004 125.238C339.543 126.086 342.125 126.51 344.737 126.51C346.721 126.51 348.326 126.306 349.552 125.925C350.777 125.53 351.667 124.974 352.251 124.272C352.834 123.57 353.126 122.765 353.126 121.843C353.126 120.687 352.674 119.766 351.755 119.078C350.85 118.39 349.639 117.835 348.151 117.396C346.663 116.957 345.014 116.547 343.22 116.152C341.425 115.757 339.616 115.274 337.821 114.689C336.027 114.104 334.378 113.358 332.89 112.45C331.401 111.543 330.19 110.329 329.257 108.837C328.323 107.344 327.856 105.428 327.856 103.101C327.856 100.614 328.527 98.3318 329.87 96.2835C331.212 94.2352 333.24 92.5819 335.954 91.3676C338.667 90.1386 342.067 89.5241 346.167 89.5241C348.895 89.5241 351.594 89.846 354.235 90.4898C356.891 91.1335 359.225 92.0991 361.253 93.3866L358.145 101.038C356.117 99.8827 354.089 99.0194 352.061 98.4488C350.033 97.8929 348.049 97.6149 346.108 97.6149C344.168 97.6149 342.563 97.8489 341.323 98.3025C340.083 98.756 339.193 99.3559 338.653 100.073C338.113 100.804 337.85 101.638 337.85 102.589C337.85 103.716 338.303 104.608 339.222 105.296C340.126 105.984 341.337 106.525 342.826 106.949C344.314 107.359 345.962 107.783 347.757 108.193C349.552 108.602 351.361 109.085 353.155 109.627C354.95 110.168 356.599 110.885 358.087 111.807C359.575 112.714 360.786 113.928 361.72 115.42C362.654 116.913 363.121 118.8 363.121 121.082C363.121 123.526 362.435 125.779 361.078 127.798C359.706 129.832 357.678 131.47 354.965 132.714C352.251 133.957 348.822 134.587 344.693 134.587L344.679 134.601Z" fill="white"/>
<path d="M320.094 90.2696H310.041V133.854H320.094V90.2696Z" fill="white"/>
<path fill-rule="evenodd" clip-rule="evenodd" d="M292.037 133.854L281.167 118.038H291.906L302.892 133.854H292.037Z" fill="white"/>
<path fill-rule="evenodd" clip-rule="evenodd" d="M264.404 133.854V90.2696H283.21C287.106 90.2696 290.447 90.8987 293.263 92.1716C296.079 93.4298 298.253 95.2587 299.785 97.6142C301.317 99.9844 302.076 102.808 302.076 106.085C302.076 109.363 301.317 112.113 299.785 114.454C298.253 116.795 296.079 118.595 293.263 119.838C290.447 121.082 287.091 121.711 283.21 121.711H274.456V133.854H264.404ZM274.456 113.679H282.656C285.764 113.679 288.084 113.006 289.616 111.66C291.148 110.314 291.906 108.456 291.906 106.085C291.906 103.715 291.148 101.813 289.616 100.482C288.084 99.1505 285.764 98.492 282.656 98.492H274.456V113.679Z" fill="white"/>
<path fill-rule="evenodd" clip-rule="evenodd" d="M451.042 75.1415V31.5713H459.358L480.966 57.9943V31.5713H490.902V75.1415H482.644L460.977 48.6892V75.1415H451.042Z" fill="white"/>
<path fill-rule="evenodd" clip-rule="evenodd" d="M397.772 75.1415L417.148 31.5713H427.07L446.504 75.1415H435.955L422.036 41.4617L408.073 75.1415H397.772Z" fill="white"/>
<path fill-rule="evenodd" clip-rule="evenodd" d="M380.614 75.1402L365.163 56.1495L371.743 48.9952L392.359 75.1402H380.614Z" fill="white"/>
<path fill-rule="evenodd" clip-rule="evenodd" d="M350.88 75.1415V31.5713H360.874V51.908L380.119 31.5713H391.295L372.546 51.7909L366.958 57.7749L360.874 64.1392V75.1415H350.88Z" fill="white"/>
<path fill-rule="evenodd" clip-rule="evenodd" d="M319.219 67.0507H342.87V75.1415H309.224V31.5713H342.067V39.6621H319.219V49.1135H339.397V56.9702H319.219V67.0507Z" fill="white"/>
<path fill-rule="evenodd" clip-rule="evenodd" d="M264.404 75.141V31.5562H283.211C287.106 31.5562 290.447 32.1854 293.263 33.4582C296.079 34.7165 298.253 36.5453 299.785 38.9008C301.317 41.271 302.076 44.0947 302.076 47.3719C302.076 50.6492 301.317 53.4145 299.785 55.77C298.253 58.1402 296.079 59.9543 293.263 61.2126C290.447 62.4708 287.092 63.1146 283.211 63.1146H274.456V75.1264H264.404V75.141ZM274.456 54.9068H282.656C285.764 54.9068 288.084 54.2484 289.616 52.917C291.148 51.5856 291.906 49.7421 291.906 47.3719C291.906 45.0018 291.148 43.0998 289.616 41.7685C288.084 40.4371 285.764 39.7786 282.656 39.7786H274.456V54.9068Z" fill="white"/>
<rect x="107" y="319" width="463" height="57" rx="15" fill="#D5B73C"/>
<path d="M155.103 338.008H160.191L167.415 349.816H167.463V338.008H171.207V355H166.311L158.895 342.904H158.847V355H155.103V338.008ZM189.001 348.448C189.001 349.456 188.849 350.384 188.545 351.232C188.241 352.08 187.785 352.816 187.177 353.44C186.585 354.064 185.841 354.552 184.945 354.904C184.049 355.256 183.017 355.432 181.849 355.432C180.665 355.432 179.625 355.256 178.729 354.904C177.833 354.552 177.081 354.064 176.473 353.44C175.881 352.816 175.433 352.08 175.129 351.232C174.825 350.384 174.673 349.456 174.673 348.448V338.008H178.417V348.304C178.417 348.832 178.497 349.32 178.657 349.768C178.833 350.216 179.073 350.608 179.377 350.944C179.681 351.264 180.041 351.52 180.457 351.712C180.889 351.888 181.353 351.976 181.849 351.976C182.345 351.976 182.801 351.888 183.217 351.712C183.633 351.52 183.993 351.264 184.297 350.944C184.601 350.608 184.833 350.216 184.993 349.768C185.169 349.32 185.257 348.832 185.257 348.304V338.008H189.001V348.448ZM200.862 342.16C200.558 341.776 200.142 341.496 199.614 341.32C199.102 341.128 198.614 341.032 198.15 341.032C197.878 341.032 197.598 341.064 197.31 341.128C197.022 341.192 196.75 341.296 196.494 341.44C196.238 341.568 196.03 341.744 195.87 341.968C195.71 342.192 195.63 342.464 195.63 342.784C195.63 343.296 195.822 343.688 196.206 343.96C196.59 344.232 197.07 344.464 197.646 344.656C198.238 344.848 198.87 345.04 199.542 345.232C200.214 345.424 200.838 345.696 201.414 346.048C202.006 346.4 202.494 346.872 202.878 347.464C203.262 348.056 203.454 348.848 203.454 349.84C203.454 350.784 203.278 351.608 202.926 352.312C202.574 353.016 202.094 353.6 201.486 354.064C200.894 354.528 200.198 354.872 199.398 355.096C198.614 355.32 197.782 355.432 196.902 355.432C195.798 355.432 194.774 355.264 193.83 354.928C192.886 354.592 192.006 354.048 191.19 353.296L193.854 350.368C194.238 350.88 194.718 351.28 195.294 351.568C195.886 351.84 196.494 351.976 197.118 351.976C197.422 351.976 197.726 351.944 198.03 351.88C198.35 351.8 198.63 351.688 198.87 351.544C199.126 351.4 199.326 351.216 199.47 350.992C199.63 350.768 199.71 350.504 199.71 350.2C199.71 349.688 199.51 349.288 199.11 349C198.726 348.696 198.238 348.44 197.646 348.232C197.054 348.024 196.414 347.816 195.726 347.608C195.038 347.4 194.398 347.12 193.806 346.768C193.214 346.416 192.718 345.952 192.318 345.376C191.934 344.8 191.742 344.04 191.742 343.096C191.742 342.184 191.918 341.384 192.27 340.696C192.638 340.008 193.118 339.432 193.71 338.968C194.318 338.504 195.014 338.16 195.798 337.936C196.582 337.696 197.39 337.576 198.222 337.576C199.182 337.576 200.11 337.712 201.006 337.984C201.902 338.256 202.71 338.712 203.43 339.352L200.862 342.16ZM211.836 338.008H214.932L222.324 355H218.1L216.636 351.4H210.036L208.62 355H204.492L211.836 338.008ZM213.276 342.952L211.212 348.232H215.364L213.276 342.952ZM231.134 338.008H236.75C238.11 338.008 239.398 338.16 240.614 338.464C241.846 338.768 242.918 339.264 243.83 339.952C244.742 340.624 245.462 341.504 245.99 342.592C246.534 343.68 246.806 345 246.806 346.552C246.806 347.928 246.542 349.144 246.014 350.2C245.502 351.24 244.806 352.12 243.926 352.84C243.046 353.544 242.03 354.08 240.878 354.448C239.726 354.816 238.518 355 237.254 355H231.134V338.008ZM234.878 351.544H236.822C237.686 351.544 238.486 351.456 239.222 351.28C239.974 351.104 240.622 350.816 241.166 350.416C241.71 350 242.134 349.464 242.438 348.808C242.758 348.136 242.918 347.32 242.918 346.36C242.918 345.528 242.758 344.808 242.438 344.2C242.134 343.576 241.718 343.064 241.19 342.664C240.662 342.264 240.038 341.968 239.318 341.776C238.614 341.568 237.87 341.464 237.086 341.464H234.878V351.544ZM263.673 348.448C263.673 349.456 263.521 350.384 263.217 351.232C262.913 352.08 262.457 352.816 261.849 353.44C261.257 354.064 260.513 354.552 259.617 354.904C258.721 355.256 257.689 355.432 256.521 355.432C255.337 355.432 254.297 355.256 253.401 354.904C252.505 354.552 251.753 354.064 251.145 353.44C250.553 352.816 250.105 352.08 249.801 351.232C249.497 350.384 249.345 349.456 249.345 348.448V338.008H253.089V348.304C253.089 348.832 253.169 349.32 253.329 349.768C253.505 350.216 253.745 350.608 254.049 350.944C254.353 351.264 254.713 351.52 255.129 351.712C255.561 351.888 256.025 351.976 256.521 351.976C257.017 351.976 257.473 351.888 257.889 351.712C258.305 351.52 258.665 351.264 258.969 350.944C259.273 350.608 259.505 350.216 259.665 349.768C259.841 349.32 259.929 348.832 259.929 348.304V338.008H263.673V348.448ZM272.726 338.008H275.822L283.214 355H278.99L277.526 351.4H270.926L269.51 355H265.382L272.726 338.008ZM274.166 342.952L272.102 348.232H276.254L274.166 342.952ZM286.315 358.168H284.347L286.003 352.264H288.331L286.315 358.168ZM300.083 350.848C300.355 351.664 300.715 352.272 301.163 352.672C301.627 353.072 302.307 353.272 303.203 353.272C303.651 353.272 304.067 353.2 304.451 353.056C304.851 352.896 305.203 352.688 305.507 352.432C305.811 352.16 306.051 351.84 306.227 351.472C306.403 351.088 306.491 350.664 306.491 350.2C306.491 349.496 306.339 348.936 306.035 348.52C305.747 348.088 305.371 347.768 304.907 347.56C304.443 347.336 303.931 347.192 303.371 347.128C302.811 347.064 302.259 347.032 301.715 347.032V345.016C302.595 345.016 303.315 344.96 303.875 344.848C304.435 344.72 304.875 344.544 305.195 344.32C305.515 344.096 305.739 343.816 305.867 343.48C305.995 343.144 306.059 342.768 306.059 342.352C306.059 341.44 305.787 340.752 305.243 340.288C304.699 339.824 304.019 339.592 303.203 339.592C302.579 339.592 302.011 339.776 301.499 340.144C301.003 340.496 300.627 340.968 300.371 341.56L298.019 340.768C298.467 339.68 299.147 338.88 300.059 338.368C300.987 337.84 302.019 337.576 303.155 337.576C303.843 337.576 304.499 337.672 305.123 337.864C305.763 338.04 306.323 338.32 306.803 338.704C307.283 339.088 307.659 339.576 307.931 340.168C308.219 340.744 308.363 341.424 308.363 342.208C308.363 343.104 308.091 343.904 307.547 344.608C307.019 345.312 306.323 345.792 305.459 346.048V346.096C305.987 346.192 306.459 346.368 306.875 346.624C307.291 346.88 307.643 347.2 307.931 347.584C308.219 347.968 308.435 348.4 308.579 348.88C308.723 349.344 308.795 349.84 308.795 350.368C308.795 351.184 308.635 351.904 308.315 352.528C308.011 353.136 307.595 353.648 307.067 354.064C306.555 354.464 305.955 354.768 305.267 354.976C304.595 355.184 303.883 355.288 303.131 355.288C301.835 355.288 300.691 354.992 299.699 354.4C298.723 353.808 298.043 352.872 297.659 351.592L300.083 350.848ZM323.314 350.2H317.41V348.184H323.314V350.2ZM338.908 351.256H331.66V348.904L338.428 338.008H341.212V349.24H343.612V351.256H341.212V355H338.908V351.256ZM338.908 340.744H338.86L333.676 349.24H338.908V340.744ZM360.843 355.432C359.547 355.432 358.355 355.208 357.267 354.76C356.179 354.296 355.243 353.664 354.459 352.864C353.691 352.064 353.083 351.12 352.635 350.032C352.203 348.944 351.987 347.768 351.987 346.504C351.987 345.24 352.203 344.064 352.635 342.976C353.083 341.888 353.691 340.944 354.459 340.144C355.243 339.344 356.179 338.72 357.267 338.272C358.355 337.808 359.547 337.576 360.843 337.576C362.139 337.576 363.331 337.808 364.419 338.272C365.507 338.72 366.435 339.344 367.203 340.144C367.987 340.944 368.595 341.888 369.027 342.976C369.475 344.064 369.699 345.24 369.699 346.504C369.699 347.768 369.475 348.944 369.027 350.032C368.595 351.12 367.987 352.064 367.203 352.864C366.435 353.664 365.507 354.296 364.419 354.76C363.331 355.208 362.139 355.432 360.843 355.432ZM360.843 353.272C361.819 353.272 362.699 353.096 363.483 352.744C364.267 352.376 364.939 351.888 365.499 351.28C366.059 350.672 366.491 349.96 366.795 349.144C367.099 348.312 367.251 347.432 367.251 346.504C367.251 345.576 367.099 344.704 366.795 343.888C366.491 343.056 366.059 342.336 365.499 341.728C364.939 341.12 364.267 340.64 363.483 340.288C362.699 339.92 361.819 339.736 360.843 339.736C359.867 339.736 358.987 339.92 358.203 340.288C357.419 340.64 356.747 341.12 356.187 341.728C355.627 342.336 355.195 343.056 354.891 343.888C354.587 344.704 354.435 345.576 354.435 346.504C354.435 347.432 354.587 348.312 354.891 349.144C355.195 349.96 355.627 350.672 356.187 351.28C356.747 351.888 357.419 352.376 358.203 352.744C358.987 353.096 359.867 353.272 360.843 353.272ZM373.012 338.008H375.316V345.352H375.508L383.02 338.008H386.236L378.028 345.856L386.788 355H383.428L375.508 346.504H375.316V355H373.012V338.008ZM392.127 340.168H386.655V338.008H399.903V340.168H394.431V355H392.127V340.168ZM410.156 355.432C408.86 355.432 407.668 355.208 406.58 354.76C405.492 354.296 404.556 353.664 403.772 352.864C403.004 352.064 402.396 351.12 401.948 350.032C401.516 348.944 401.3 347.768 401.3 346.504C401.3 345.24 401.516 344.064 401.948 342.976C402.396 341.888 403.004 340.944 403.772 340.144C404.556 339.344 405.492 338.72 406.58 338.272C407.668 337.808 408.86 337.576 410.156 337.576C411.452 337.576 412.644 337.808 413.732 338.272C414.82 338.72 415.748 339.344 416.516 340.144C417.3 340.944 417.908 341.888 418.34 342.976C418.788 344.064 419.012 345.24 419.012 346.504C419.012 347.768 418.788 348.944 418.34 350.032C417.908 351.12 417.3 352.064 416.516 352.864C415.748 353.664 414.82 354.296 413.732 354.76C412.644 355.208 411.452 355.432 410.156 355.432ZM410.156 353.272C411.132 353.272 412.012 353.096 412.796 352.744C413.58 352.376 414.252 351.888 414.812 351.28C415.372 350.672 415.804 349.96 416.108 349.144C416.412 348.312 416.564 347.432 416.564 346.504C416.564 345.576 416.412 344.704 416.108 343.888C415.804 343.056 415.372 342.336 414.812 341.728C414.252 341.12 413.58 340.64 412.796 340.288C412.012 339.92 411.132 339.736 410.156 339.736C409.18 339.736 408.3 339.92 407.516 340.288C406.732 340.64 406.06 341.12 405.5 341.728C404.94 342.336 404.508 343.056 404.204 343.888C403.9 344.704 403.748 345.576 403.748 346.504C403.748 347.432 403.9 348.312 404.204 349.144C404.508 349.96 404.94 350.672 405.5 351.28C406.06 351.888 406.732 352.376 407.516 352.744C408.3 353.096 409.18 353.272 410.156 353.272ZM422.325 338.008H428.229C428.965 338.008 429.645 338.096 430.269 338.272C430.909 338.448 431.453 338.712 431.901 339.064C432.365 339.4 432.725 339.84 432.981 340.384C433.253 340.912 433.389 341.536 433.389 342.256C433.389 343.232 433.117 344.032 432.573 344.656C432.029 345.264 431.325 345.712 430.461 346V346.048C430.973 346.08 431.453 346.216 431.901 346.456C432.349 346.68 432.733 346.984 433.053 347.368C433.389 347.736 433.653 348.168 433.845 348.664C434.037 349.16 434.133 349.696 434.133 350.272C434.133 351.04 433.973 351.72 433.653 352.312C433.349 352.888 432.925 353.376 432.381 353.776C431.837 354.176 431.205 354.48 430.485 354.688C429.765 354.896 428.989 355 428.157 355H422.325V338.008ZM424.629 345.064H427.773C428.205 345.064 428.613 345.024 428.997 344.944C429.381 344.848 429.717 344.696 430.005 344.488C430.293 344.28 430.517 344.016 430.677 343.696C430.853 343.376 430.941 342.984 430.941 342.52C430.941 341.848 430.725 341.264 430.293 340.768C429.861 340.272 429.181 340.024 428.253 340.024H424.629V345.064ZM424.629 352.984H428.013C428.365 352.984 428.749 352.952 429.165 352.888C429.597 352.808 429.997 352.664 430.365 352.456C430.733 352.232 431.045 351.936 431.301 351.568C431.557 351.2 431.685 350.712 431.685 350.104C431.685 349.096 431.357 348.344 430.701 347.848C430.045 347.336 429.157 347.08 428.037 347.08H424.629V352.984ZM437.442 338.008H448.41V340.168H439.746V345.232H447.81V347.392H439.746V352.84H448.842V355H437.442V338.008ZM452.114 338.008H458.09C459.178 338.008 460.074 338.16 460.778 338.464C461.482 338.752 462.034 339.128 462.434 339.592C462.85 340.04 463.138 340.552 463.298 341.128C463.458 341.688 463.538 342.232 463.538 342.76C463.538 343.304 463.442 343.832 463.25 344.344C463.058 344.84 462.778 345.296 462.41 345.712C462.058 346.112 461.618 346.456 461.09 346.744C460.578 347.016 460.002 347.184 459.362 347.248L464.186 355H461.306L456.986 347.512H454.418V355H452.114V338.008ZM454.418 345.496H457.442C457.89 345.496 458.33 345.464 458.762 345.4C459.21 345.32 459.602 345.184 459.938 344.992C460.29 344.8 460.57 344.528 460.778 344.176C460.986 343.808 461.09 343.336 461.09 342.76C461.09 342.184 460.986 341.72 460.778 341.368C460.57 341 460.29 340.72 459.938 340.528C459.602 340.336 459.21 340.208 458.762 340.144C458.33 340.064 457.89 340.024 457.442 340.024H454.418V345.496ZM472.385 352.552L479.201 345.784C479.441 345.56 479.673 345.32 479.897 345.064C480.121 344.792 480.321 344.512 480.497 344.224C480.673 343.936 480.809 343.632 480.905 343.312C481.017 342.992 481.073 342.656 481.073 342.304C481.073 341.888 480.993 341.512 480.833 341.176C480.689 340.84 480.481 340.56 480.209 340.336C479.953 340.096 479.641 339.912 479.273 339.784C478.921 339.656 478.545 339.592 478.145 339.592C477.313 339.592 476.625 339.824 476.081 340.288C475.537 340.752 475.193 341.392 475.049 342.208L472.553 341.992C472.665 341.24 472.881 340.592 473.201 340.048C473.537 339.488 473.945 339.024 474.425 338.656C474.921 338.288 475.481 338.016 476.105 337.84C476.745 337.664 477.433 337.576 478.169 337.576C478.905 337.576 479.593 337.68 480.233 337.888C480.889 338.08 481.457 338.376 481.937 338.776C482.433 339.16 482.817 339.648 483.089 340.24C483.377 340.816 483.521 341.496 483.521 342.28C483.521 342.84 483.433 343.368 483.257 343.864C483.097 344.344 482.881 344.8 482.609 345.232C482.337 345.664 482.025 346.072 481.673 346.456C481.321 346.84 480.953 347.216 480.569 347.584L474.977 352.984H483.521V355H472.385V352.552ZM485.433 346.504C485.433 345.88 485.465 345.232 485.529 344.56C485.593 343.888 485.705 343.232 485.865 342.592C486.041 341.936 486.265 341.312 486.537 340.72C486.825 340.128 487.185 339.616 487.617 339.184C488.065 338.736 488.585 338.384 489.177 338.128C489.785 337.856 490.489 337.72 491.289 337.72C492.089 337.72 492.785 337.856 493.377 338.128C493.985 338.384 494.505 338.736 494.937 339.184C495.385 339.616 495.745 340.128 496.017 340.72C496.305 341.312 496.529 341.936 496.689 342.592C496.865 343.232 496.985 343.888 497.049 344.56C497.113 345.232 497.145 345.88 497.145 346.504C497.145 347.4 497.065 348.36 496.905 349.384C496.745 350.408 496.449 351.36 496.017 352.24C495.585 353.12 494.985 353.848 494.217 354.424C493.465 355 492.489 355.288 491.289 355.288C490.089 355.288 489.105 355 488.337 354.424C487.585 353.848 486.993 353.12 486.561 352.24C486.129 351.36 485.833 350.408 485.673 349.384C485.513 348.36 485.433 347.4 485.433 346.504ZM487.737 346.504C487.737 347.064 487.769 347.728 487.833 348.496C487.913 349.264 488.073 350.008 488.313 350.728C488.553 351.432 488.905 352.032 489.369 352.528C489.849 353.024 490.489 353.272 491.289 353.272C492.089 353.272 492.721 353.024 493.185 352.528C493.665 352.032 494.025 351.432 494.265 350.728C494.505 350.008 494.657 349.264 494.721 348.496C494.801 347.728 494.841 347.064 494.841 346.504C494.841 346.12 494.825 345.688 494.793 345.208C494.777 344.712 494.721 344.216 494.625 343.72C494.545 343.208 494.425 342.72 494.265 342.256C494.105 341.776 493.889 341.352 493.617 340.984C493.361 340.6 493.041 340.296 492.657 340.072C492.273 339.848 491.817 339.736 491.289 339.736C490.761 339.736 490.305 339.848 489.921 340.072C489.537 340.296 489.209 340.6 488.937 340.984C488.681 341.352 488.473 341.776 488.313 342.256C488.153 342.72 488.025 343.208 487.929 343.72C487.849 344.216 487.793 344.712 487.761 345.208C487.745 345.688 487.737 346.12 487.737 346.504ZM499.057 352.552L505.873 345.784C506.113 345.56 506.345 345.32 506.569 345.064C506.793 344.792 506.993 344.512 507.169 344.224C507.345 343.936 507.481 343.632 507.577 343.312C507.689 342.992 507.745 342.656 507.745 342.304C507.745 341.888 507.665 341.512 507.505 341.176C507.361 340.84 507.153 340.56 506.881 340.336C506.625 340.096 506.313 339.912 505.945 339.784C505.593 339.656 505.217 339.592 504.817 339.592C503.985 339.592 503.297 339.824 502.753 340.288C502.209 340.752 501.865 341.392 501.721 342.208L499.225 341.992C499.337 341.24 499.553 340.592 499.873 340.048C500.209 339.488 500.617 339.024 501.097 338.656C501.593 338.288 502.153 338.016 502.777 337.84C503.417 337.664 504.105 337.576 504.841 337.576C505.577 337.576 506.265 337.68 506.905 337.888C507.561 338.08 508.129 338.376 508.609 338.776C509.105 339.16 509.489 339.648 509.761 340.24C510.049 340.816 510.193 341.496 510.193 342.28C510.193 342.84 510.105 343.368 509.929 343.864C509.769 344.344 509.553 344.8 509.281 345.232C509.009 345.664 508.697 346.072 508.345 346.456C507.993 346.84 507.625 347.216 507.241 347.584L501.649 352.984H510.193V355H499.057V352.552ZM519.353 351.256H512.105V348.904L518.873 338.008H521.657V349.24H524.057V351.256H521.657V355H519.353V351.256ZM519.353 340.744H519.305L514.121 349.24H519.353V340.744Z" fill="black"/>
</svg>
