<svg width="737" height="62" viewBox="0 0 737 62" fill="none" xmlns="http://www.w3.org/2000/svg">
<path fill-rule="evenodd" clip-rule="evenodd" d="M56.8559 57.4533C43.7552 15.4607 14.2146 24.7258 3.909 39.8336C6.75656 17.9857 52.4912 11.6223 56.8559 57.4566V57.4533Z" fill="white"/>
<path fill-rule="evenodd" clip-rule="evenodd" d="M56.8561 57.4533C54.4607 12.1528 17.5964 12.6932 -0.00012207 26.7039C13.8772 2.49146 64.5861 14.0131 56.8561 57.4533Z" fill="white"/>
<path fill-rule="evenodd" clip-rule="evenodd" d="M56.8563 57.4534C65.3335 19.1714 36.812 2.46539 0.81604 13.034C34.918 -6.60321 74.407 20.3701 56.8563 57.4567V57.4534Z" fill="white"/>
<path fill-rule="evenodd" clip-rule="evenodd" d="M56.8559 57.4533C15.0436 43.7276 24.7594 14.3439 40.0294 4.27637C18.1304 6.7916 11.0721 52.3999 56.8592 57.4533H56.8559Z" fill="white"/>
<path fill-rule="evenodd" clip-rule="evenodd" d="M56.8562 57.4533C11.5704 54.3747 12.6682 17.5436 26.9551 0.169434C2.52313 13.6692 13.2809 64.5208 56.8562 57.4533Z" fill="white"/>
<path fill-rule="evenodd" clip-rule="evenodd" d="M56.8562 57.453C18.4288 65.3458 2.14628 36.5909 13.2645 0.77832C-6.89776 34.5604 19.4905 74.4308 56.8594 57.453H56.8562Z" fill="white"/>
<path fill-rule="evenodd" clip-rule="evenodd" d="M40.7769 38.095C43.0084 37.499 45.3022 38.8221 45.8985 41.0524C46.4949 43.2827 45.1711 45.5752 42.9396 46.1713C40.708 46.7674 38.4143 45.4442 37.8179 43.2139C37.2215 40.9836 38.5453 38.6911 40.7769 38.095Z" fill="white"/>
<path fill-rule="evenodd" clip-rule="evenodd" d="M622.815 42.5963L633.106 19.5288H638.381L648.698 42.5963H643.092L635.706 24.7697L628.287 42.5963H622.815Z" fill="white"/>
<path d="M620.374 19.5288H615.035V42.5963H620.374V19.5288Z" fill="white"/>
<path fill-rule="evenodd" clip-rule="evenodd" d="M601.586 42.9896C599.741 42.9896 597.972 42.7424 596.279 42.2481C594.586 41.7538 593.223 41.1138 592.189 40.3216L594.003 36.3038C594.992 37.0072 596.165 37.5839 597.515 38.0339C598.866 38.4838 600.236 38.712 601.618 38.712C602.67 38.712 603.526 38.6042 604.173 38.4014C604.82 38.1923 605.302 37.9008 605.606 37.5269C605.917 37.153 606.069 36.7284 606.069 36.2404C606.069 35.6257 605.828 35.1378 605.346 34.7765C604.864 34.4153 604.224 34.1175 603.438 33.8893C602.645 33.6612 601.77 33.4394 600.813 33.2302C599.855 33.0211 598.904 32.7613 597.947 32.4571C596.989 32.1466 596.114 31.7537 595.328 31.272C594.535 30.7904 593.895 30.1504 593.4 29.3645C592.906 28.5724 592.659 27.5648 592.659 26.3353C592.659 25.0172 593.014 23.8131 593.73 22.7295C594.447 21.6395 595.525 20.7713 596.964 20.1249C598.403 19.4785 600.21 19.1553 602.385 19.1553C603.837 19.1553 605.264 19.3264 606.671 19.6686C608.079 20.0108 609.322 20.5178 610.4 21.2022L608.751 25.2517C607.673 24.637 606.595 24.1807 605.517 23.8828C604.439 23.585 603.387 23.4392 602.353 23.4392C601.32 23.4392 600.477 23.5596 599.817 23.8005C599.158 24.0413 598.682 24.3581 598.397 24.7384C598.112 25.1249 597.966 25.5685 597.966 26.0755C597.966 26.6712 598.207 27.1465 598.695 27.5077C599.177 27.869 599.817 28.1605 600.603 28.3823C601.396 28.6041 602.271 28.8195 603.222 29.0413C604.18 29.2631 605.131 29.5103 606.088 29.8018C607.045 30.087 607.914 30.4736 608.707 30.9552C609.499 31.4368 610.14 32.0769 610.634 32.8627C611.129 33.6548 611.376 34.6561 611.376 35.8602C611.376 37.153 611.015 38.3444 610.292 39.4154C609.563 40.4927 608.485 41.3609 607.046 42.02C605.606 42.679 603.786 43.0086 601.586 43.0086V42.9896Z" fill="white"/>
<path fill-rule="evenodd" clip-rule="evenodd" d="M577.187 38.3123H589.748V42.5963H571.88V19.5288H589.323V23.8128H577.187V28.8192H587.903V32.9701H577.187V38.3123Z" fill="white"/>
<path fill-rule="evenodd" clip-rule="evenodd" d="M545.243 42.5963V19.5288H549.662L561.133 33.5214V19.5288H566.408V42.5963H562.02L550.518 28.591V42.5963H545.243Z" fill="white"/>
<path fill-rule="evenodd" clip-rule="evenodd" d="M528.631 42.9895C526.805 42.9895 525.118 42.6917 523.571 42.1023C522.024 41.5066 520.68 40.6765 519.551 39.5991C518.416 38.5218 517.541 37.2607 516.914 35.8095C516.286 34.3582 515.975 32.7803 515.975 31.0629C515.975 29.3455 516.286 27.7675 516.914 26.3163C517.541 24.8651 518.423 23.604 519.564 22.5266C520.705 21.4493 522.049 20.6128 523.584 20.0234C525.125 19.4277 526.792 19.1362 528.593 19.1362C530.394 19.1362 532.093 19.4341 533.621 20.0234C535.149 20.6191 536.481 21.4493 537.609 22.5266C538.738 23.604 539.626 24.8587 540.266 26.2973C540.907 27.7358 541.224 29.3202 541.224 31.0566C541.224 32.793 540.907 34.3582 540.266 35.8158C539.626 37.2797 538.744 38.5408 537.609 39.6055C536.481 40.6701 535.149 41.5003 533.621 42.096C532.093 42.6917 530.432 42.9832 528.625 42.9832L528.631 42.9895ZM528.599 38.4394C529.633 38.4394 530.584 38.262 531.453 37.9134C532.321 37.5649 533.082 37.0579 533.742 36.3988C534.401 35.7398 534.915 34.9603 535.276 34.0604C535.638 33.1605 535.821 32.1592 535.821 31.0629C535.821 29.9665 535.638 28.9653 535.276 28.0654C534.915 27.1655 534.407 26.386 533.761 25.7269C533.114 25.0679 532.347 24.5609 531.472 24.2123C530.59 23.8638 529.639 23.6864 528.606 23.6864C527.572 23.6864 526.621 23.8638 525.752 24.2123C524.884 24.5609 524.123 25.0679 523.463 25.7269C522.804 26.386 522.29 27.1655 521.929 28.0654C521.568 28.9653 521.384 29.9665 521.384 31.0629C521.384 32.1592 521.568 33.1352 521.929 34.0414C522.29 34.9539 522.798 35.7398 523.444 36.3988C524.091 37.0579 524.858 37.5649 525.733 37.9134C526.615 38.2683 527.566 38.4394 528.599 38.4394Z" fill="white"/>
<path fill-rule="evenodd" clip-rule="evenodd" d="M490.187 42.5963V19.5288H500.668C503.173 19.5288 505.379 20.0041 507.294 20.961C509.209 21.9179 510.699 23.2488 511.777 24.9661C512.855 26.6772 513.394 28.7114 513.394 31.0626C513.394 33.4137 512.855 35.4162 511.777 37.1399C510.699 38.8637 509.209 40.2072 507.294 41.1578C505.379 42.1147 503.173 42.59 500.668 42.59H490.187V42.5963ZM495.526 38.2109H500.408C501.949 38.2109 503.281 37.9194 504.416 37.3364C505.544 36.7534 506.426 35.9232 507.053 34.8459C507.681 33.7685 507.992 32.5074 507.992 31.0562C507.992 29.605 507.681 28.3185 507.053 27.2475C506.426 26.1829 505.551 25.3591 504.416 24.776C503.287 24.193 501.949 23.9015 500.408 23.9015H495.526V38.1983V38.2109Z" fill="white"/>
<path fill-rule="evenodd" clip-rule="evenodd" d="M463.55 42.5963V19.5288H467.969L479.44 33.5214V19.5288H484.715V42.5963H480.327L468.825 28.591V42.5963H463.55Z" fill="white"/>
<path d="M458.072 19.5288H452.733V42.5963H458.072V19.5288Z" fill="white"/>
<path fill-rule="evenodd" clip-rule="evenodd" d="M427.583 42.5709V23.8571H420.197V19.5098H440.309V23.8571H432.922V42.5709H427.583Z" fill="white"/>
<path d="M417.33 19.5098H411.991V42.5773H417.33V19.5098Z" fill="white"/>
<path fill-rule="evenodd" clip-rule="evenodd" d="M379.679 42.5709L372.127 19.5098H377.669L382.875 35.7204L388.315 19.5098H393.261L398.536 35.8408L403.913 19.5098H409.024L401.472 42.5709H395.734L390.648 26.9433L385.417 42.5709H379.679Z" fill="white"/>
<path fill-rule="evenodd" clip-rule="evenodd" d="M347.107 42.5709L357.392 19.5098H362.667L372.99 42.5709H367.385L359.998 24.7506L352.579 42.5709H347.107Z" fill="white"/>
<path fill-rule="evenodd" clip-rule="evenodd" d="M336.69 42.9705C334.845 42.9705 333.076 42.7234 331.383 42.2291C329.69 41.7348 328.326 41.0947 327.293 40.3026L329.106 36.2848C330.095 36.9882 331.268 37.5649 332.619 38.0148C333.97 38.4648 335.339 38.6929 336.721 38.6929C337.774 38.6929 338.63 38.5852 339.277 38.3824C339.923 38.1733 340.405 37.8817 340.71 37.5078C341.014 37.1339 341.173 36.7094 341.173 36.2214C341.173 35.6067 340.932 35.1187 340.443 34.7575C339.961 34.3963 339.321 34.0984 338.535 33.8703C337.742 33.6421 336.867 33.4203 335.916 33.2112C334.959 33.0021 334.008 32.7422 333.05 32.4381C332.093 32.1275 331.218 31.7346 330.431 31.253C329.639 30.7714 328.998 30.1313 328.504 29.3455C328.009 28.5533 327.762 27.5457 327.762 26.3163C327.762 24.9982 328.117 23.7941 328.834 22.7104C329.55 21.6204 330.628 20.7522 332.067 20.1058C333.507 19.4594 335.314 19.1362 337.489 19.1362C338.941 19.1362 340.367 19.3073 341.775 19.6495C343.183 19.9918 344.425 20.4987 345.503 21.1832L343.855 25.2326C342.777 24.6179 341.699 24.1616 340.621 23.8638C339.543 23.5659 338.49 23.4202 337.457 23.4202C336.423 23.4202 335.58 23.5406 334.921 23.7814C334.261 24.0222 333.786 24.3391 333.5 24.7193C333.215 25.1059 333.069 25.5495 333.069 26.0565C333.069 26.6522 333.31 27.1275 333.798 27.4887C334.28 27.8499 334.921 28.1414 335.707 28.3632C336.499 28.585 337.375 28.8005 338.326 29.0223C339.283 29.2441 340.234 29.4913 341.192 29.7828C342.149 30.0679 343.018 30.4545 343.81 30.9361C344.603 31.4178 345.243 32.0578 345.738 32.8436C346.232 33.6358 346.48 34.6371 346.48 35.8412C346.48 37.1403 346.118 38.3253 345.395 39.3963C344.666 40.4737 343.588 41.3419 342.149 42.0009C340.71 42.66 338.89 42.9895 336.69 42.9895V42.9705Z" fill="white"/>
<path fill-rule="evenodd" clip-rule="evenodd" d="M304.181 42.5709V23.8571H296.8V19.5098H316.907V23.8571H309.526V42.5709H304.181Z" fill="white"/>
<path fill-rule="evenodd" clip-rule="evenodd" d="M282.591 38.287H295.152V42.5709H277.284V19.5098H294.721V23.7937H282.591V28.8001H293.307V32.951H282.591V38.287Z" fill="white"/>
<path fill-rule="evenodd" clip-rule="evenodd" d="M263.83 42.9705C261.984 42.9705 260.215 42.7234 258.522 42.2291C256.829 41.7348 255.466 41.0947 254.433 40.3026L256.246 36.2848C257.235 36.9882 258.402 37.5649 259.759 38.0148C261.109 38.4648 262.479 38.6929 263.861 38.6929C264.914 38.6929 265.77 38.5852 266.417 38.3824C267.063 38.1733 267.545 37.8817 267.85 37.5078C268.154 37.1339 268.312 36.7094 268.312 36.2214C268.312 35.6067 268.072 35.1187 267.583 34.7575C267.101 34.3963 266.461 34.0984 265.675 33.8703C264.882 33.6421 264.007 33.4203 263.05 33.2112C262.092 33.0021 261.141 32.7422 260.184 32.4381C259.226 32.1275 258.351 31.7346 257.565 31.253C256.772 30.7714 256.132 30.1313 255.637 29.3455C255.143 28.5533 254.896 27.5457 254.896 26.3163C254.896 24.9982 255.251 23.7941 255.967 22.7104C256.684 21.6204 257.762 20.7522 259.201 20.1058C260.64 19.4594 262.447 19.1362 264.622 19.1362C266.074 19.1362 267.501 19.3073 268.908 19.6495C270.316 19.9918 271.559 20.4987 272.637 21.1832L270.988 25.2326C269.91 24.6179 268.832 24.1616 267.754 23.8638C266.677 23.5659 265.624 23.4202 264.59 23.4202C263.557 23.4202 262.714 23.5406 262.054 23.7814C261.395 24.0222 260.919 24.3391 260.634 24.7193C260.349 25.1059 260.203 25.5495 260.203 26.0565C260.203 26.6522 260.444 27.1275 260.926 27.4887C261.407 27.8499 262.048 28.1414 262.834 28.3632C263.627 28.585 264.502 28.8005 265.453 29.0223C266.41 29.2441 267.361 29.4913 268.319 29.7828C269.276 30.0679 270.145 30.4545 270.937 30.9361C271.73 31.4178 272.37 32.0578 272.865 32.8436C273.36 33.6358 273.607 34.6371 273.607 35.8412C273.607 37.1403 273.245 38.3253 272.523 39.3963C271.793 40.4737 270.716 41.3419 269.276 42.0009C267.837 42.66 266.017 42.9895 263.817 42.9895L263.83 42.9705Z" fill="white"/>
<path d="M250.774 19.5098H245.435V42.5773H250.774V19.5098Z" fill="white"/>
<path fill-rule="evenodd" clip-rule="evenodd" d="M235.873 42.5712L230.103 34.2061H235.81L241.643 42.5712H235.873Z" fill="white"/>
<path fill-rule="evenodd" clip-rule="evenodd" d="M221.201 42.5709V19.5034H231.187C233.254 19.5034 235.036 19.8393 236.526 20.511C238.023 21.1828 239.177 22.1397 239.988 23.3945C240.8 24.6492 241.206 26.1385 241.206 27.8749C241.206 29.6113 240.8 31.0689 239.988 32.3046C239.177 33.5467 238.023 34.4973 236.526 35.1564C235.03 35.8154 233.248 36.145 231.187 36.145H226.54V42.5709H221.201ZM226.54 31.8927H230.889C232.538 31.8927 233.768 31.5378 234.58 30.8217C235.391 30.1056 235.797 29.1233 235.797 27.8749C235.797 26.6265 235.391 25.6125 234.58 24.9091C233.768 24.2056 232.538 23.8571 230.889 23.8571H226.54V31.899V31.8927Z" fill="white"/>
<path fill-rule="evenodd" clip-rule="evenodd" d="M187.954 42.0821V19.0146H192.373L203.843 33.0072V19.0146H209.119V42.0821H204.737L193.229 28.0832V42.0821H187.954Z" fill="white"/>
<path fill-rule="evenodd" clip-rule="evenodd" d="M159.668 42.0821L169.953 19.0146H175.228L185.551 42.0821H179.946L172.559 24.2619L165.14 42.0821H159.668Z" fill="white"/>
<path fill-rule="evenodd" clip-rule="evenodd" d="M150.563 42.0822L142.352 32.0314L145.845 28.2417L156.789 42.0822H150.563Z" fill="white"/>
<path fill-rule="evenodd" clip-rule="evenodd" d="M134.767 42.0821V19.0146H140.075V29.7816L150.296 19.0146H156.231L146.276 29.7246L143.308 32.8868L140.075 36.2582V42.0821H134.767Z" fill="white"/>
<path fill-rule="evenodd" clip-rule="evenodd" d="M117.953 37.7982H130.513V42.0821H112.645V19.0146H130.089V23.2986H117.953V28.3114H128.668V32.4622H117.953V37.7982Z" fill="white"/>
<path fill-rule="evenodd" clip-rule="evenodd" d="M88.8429 42.0821V19.0146H98.8294C100.896 19.0146 102.678 19.3505 104.168 20.0223C105.665 20.694 106.819 21.6509 107.63 22.9057C108.442 24.1605 108.848 25.6497 108.848 27.3861C108.848 29.1225 108.442 30.5801 107.63 31.8349C106.819 33.0896 105.665 34.0465 104.168 34.7183C102.672 35.39 100.89 35.7196 98.8294 35.7196H94.1817V42.0821H88.8429ZM94.1817 31.3722H98.5314C100.18 31.3722 101.41 31.0237 102.222 30.3203C103.033 29.6168 103.439 28.6409 103.439 27.3861C103.439 26.1314 103.033 25.1237 102.222 24.4203C101.41 23.7169 100.18 23.3683 98.5314 23.3683H94.1817V31.3786V31.3722Z" fill="white"/>
<path d="M662.876 37.3316L671.76 29.3519C672.212 28.9426 672.665 28.4796 673.117 27.9627C673.569 27.4457 673.795 26.8427 673.795 26.1535C673.795 25.3781 673.515 24.7751 672.955 24.3443C672.395 23.892 671.738 23.6659 670.985 23.6659C670.08 23.6659 669.369 23.9458 668.852 24.5058C668.357 25.0658 668.077 25.755 668.012 26.5735L663.166 26.2181C663.231 25.0335 663.479 24.0105 663.909 23.1489C664.34 22.2659 664.911 21.5336 665.622 20.9521C666.332 20.3706 667.162 19.9398 668.109 19.6598C669.079 19.3583 670.123 19.2075 671.243 19.2075C672.277 19.2075 673.246 19.3583 674.151 19.6598C675.055 19.9398 675.841 20.3706 676.509 20.9521C677.177 21.5121 677.694 22.2228 678.06 23.0843C678.447 23.9458 678.641 24.9474 678.641 26.0889C678.641 26.8212 678.566 27.4888 678.415 28.0919C678.264 28.6734 678.049 29.2119 677.769 29.7072C677.511 30.1811 677.198 30.6226 676.832 31.0318C676.466 31.441 676.068 31.8395 675.637 32.2272L668.691 38.2039H678.835V42.4684H662.876V37.3316Z" fill="white"/>
<path d="M681.478 31.0318C681.478 29.6749 681.596 28.2965 681.833 26.8965C682.092 25.4966 682.533 24.2258 683.158 23.0843C683.804 21.9428 684.676 21.0167 685.775 20.3059C686.873 19.5737 688.273 19.2075 689.974 19.2075C691.676 19.2075 693.076 19.5737 694.174 20.3059C695.273 21.0167 696.134 21.9428 696.759 23.0843C697.405 24.2258 697.847 25.4966 698.083 26.8965C698.342 28.2965 698.471 29.6749 698.471 31.0318C698.471 32.3887 698.342 33.7671 698.083 35.1671C697.847 36.567 697.405 37.8378 696.759 38.9793C696.134 40.1208 695.273 41.0577 694.174 41.79C693.076 42.5007 691.676 42.8561 689.974 42.8561C688.273 42.8561 686.873 42.5007 685.775 41.79C684.676 41.0577 683.804 40.1208 683.158 38.9793C682.533 37.8378 682.092 36.567 681.833 35.1671C681.596 33.7671 681.478 32.3887 681.478 31.0318ZM686.324 31.0318C686.324 31.6349 686.345 32.3564 686.388 33.1964C686.453 34.0363 686.604 34.844 686.841 35.6194C687.078 36.3947 687.433 37.0516 687.907 37.5901C688.402 38.1285 689.091 38.3977 689.974 38.3977C690.836 38.3977 691.514 38.1285 692.01 37.5901C692.505 37.0516 692.871 36.3947 693.108 35.6194C693.345 34.844 693.485 34.0363 693.528 33.1964C693.593 32.3564 693.625 31.6349 693.625 31.0318C693.625 30.4287 693.593 29.7072 693.528 28.8672C693.485 28.0273 693.345 27.2196 693.108 26.4442C692.871 25.6689 692.505 25.012 692.01 24.4735C691.514 23.9351 690.836 23.6659 689.974 23.6659C689.091 23.6659 688.402 23.9351 687.907 24.4735C687.433 25.012 687.078 25.6689 686.841 26.4442C686.604 27.2196 686.453 28.0273 686.388 28.8672C686.345 29.7072 686.324 30.4287 686.324 31.0318Z" fill="white"/>
<path d="M701.114 37.3316L709.998 29.3519C710.45 28.9426 710.903 28.4796 711.355 27.9627C711.807 27.4457 712.033 26.8427 712.033 26.1535C712.033 25.3781 711.753 24.7751 711.193 24.3443C710.633 23.892 709.977 23.6659 709.223 23.6659C708.318 23.6659 707.607 23.9458 707.09 24.5058C706.595 25.0658 706.315 25.755 706.25 26.5735L701.404 26.2181C701.469 25.0335 701.717 24.0105 702.148 23.1489C702.578 22.2659 703.149 21.5336 703.86 20.9521C704.571 20.3706 705.4 19.9398 706.347 19.6598C707.317 19.3583 708.361 19.2075 709.481 19.2075C710.515 19.2075 711.484 19.3583 712.389 19.6598C713.293 19.9398 714.08 20.3706 714.747 20.9521C715.415 21.5121 715.932 22.2228 716.298 23.0843C716.686 23.9458 716.879 24.9474 716.879 26.0889C716.879 26.8212 716.804 27.4888 716.653 28.0919C716.503 28.6734 716.287 29.2119 716.007 29.7072C715.749 30.1811 715.436 30.6226 715.07 31.0318C714.704 31.441 714.306 31.8395 713.875 32.2272L706.929 38.2039H717.073V42.4684H701.114V37.3316Z" fill="white"/>
<path d="M729.408 37.8808H719.425V33.8102L728.762 19.5952H734.06V33.8102H737V37.8808H734.06V42.4684H729.408V37.8808ZM729.408 25.9273H729.343L724.271 33.8102H729.408V25.9273Z" fill="white"/>
</svg>
