<svg width="528" height="226" viewBox="0 0 528 226" fill="none" xmlns="http://www.w3.org/2000/svg">
<path fill-rule="evenodd" clip-rule="evenodd" d="M108.624 161.056V158.021H97.7151L99.6758 135.814H108.624V132.779H99.9253L100.817 122.568H35.4355C35.4355 110.715 52.7612 101.111 74.1152 101.111C78.0009 101.111 81.7441 101.432 85.2734 102.039L50.8004 76.2973C57.859 66.8003 77.4662 69.478 94.6136 82.2597C96.8595 83.9378 98.9628 85.7229 100.924 87.5795C101.03 72.9055 104.952 58.66 108.695 51.6979V24.5994C108.695 11.0322 97.2873 0 83.2771 0C76.0046 0 69.0529 3.03475 64.2403 8.2831C59.5702 13.3886 57.3599 19.9223 57.966 26.7058C58.1799 29.0622 56.2904 31.1687 53.9376 31.2044C43.8844 31.4543 34.8651 36.2028 29.1969 44.2717C24.2416 51.3409 22.6374 59.8739 24.6694 68.0142C27.4501 68.6569 31.9775 70.0136 36.505 72.5842C46.4512 78.2253 51.6917 86.8654 51.6917 97.612H43.421C43.421 89.9359 39.7135 83.9378 32.4053 79.7962C28.0917 77.3684 23.7069 76.2616 21.7818 75.8689C8.52021 81.4028 0 93.8632 0 107.93C0 121.997 7.70028 133.315 20.1063 139.242C22.6017 140.42 23.2434 143.812 21.354 145.811C12.1921 155.594 10.8018 169.411 17.7891 180.979C23.2078 189.976 35.2216 198.83 51.5134 194.938C54.1871 191.475 62.3865 179.193 54.7575 167.09L61.7805 162.663C70.978 177.265 63.7055 192.975 57.8947 200.222C57.6095 206.578 59.8197 212.683 64.2046 217.503C69.0173 222.822 75.9689 225.857 83.3127 225.857C94.7562 225.857 104.488 218.502 107.626 208.398H93.3659L95.3266 186.191H108.731V183.156H95.6118L97.5725 160.949H108.731L108.624 161.056ZM80.2825 25.1349C93.3302 25.1349 98.8915 35.3103 100.032 40.6657L91.9399 42.3795C91.726 41.4512 89.6227 33.3823 80.3182 33.3823V25.0992L80.2825 25.1349Z" fill="#0E5684"/>
<path fill-rule="evenodd" clip-rule="evenodd" d="M225.554 107.966C225.554 93.8989 217.034 81.4385 203.772 75.9046C199.316 76.7972 182.169 81.26 182.169 97.6477H173.898C173.898 86.9011 179.138 78.261 189.085 72.6199C193.648 70.0493 198.175 68.6926 200.956 68.0499C202.988 59.9096 201.384 51.3766 196.428 44.3074C190.76 36.2385 181.741 31.4543 171.688 31.2401C169.335 31.1687 167.445 29.0979 167.659 26.7415C168.265 19.958 166.019 13.4243 161.385 8.3188C156.572 3.03475 149.621 0.035703 142.348 0.035703C128.338 0.035703 116.93 11.0679 116.93 24.6351V51.7336C120.673 58.6957 124.595 72.9412 124.702 87.6152C126.627 85.7586 128.73 83.9735 131.012 82.2954C148.123 69.5137 167.731 66.836 174.825 76.333L140.352 102.075C143.881 101.468 147.624 101.147 151.51 101.147C172.864 101.147 190.19 110.751 190.19 122.604H124.809L125.7 132.815H117.001V135.85H125.949L127.91 158.057H117.001V161.092H128.16L130.12 183.299H117.001V186.334H130.406L132.366 208.541H118.107C121.279 218.645 130.976 226 142.419 226C149.728 226 156.679 222.965 161.528 217.645C165.912 212.826 168.123 206.72 167.838 200.365C162.027 193.118 154.754 177.408 163.952 162.806L170.975 167.233C163.381 179.336 171.581 191.618 174.219 195.081C190.511 198.973 202.524 190.118 207.943 181.121C214.93 169.554 213.504 155.772 204.378 145.954C202.489 143.954 203.13 140.563 205.626 139.385C218.032 133.458 225.732 121.462 225.732 108.073L225.554 107.966ZM145.236 33.418C135.254 33.418 131.297 42.7008 131.119 43.0935L123.454 39.9874C123.704 39.3804 129.586 25.1349 145.236 25.1349V33.418Z" fill="#0E5684"/>
<path fill-rule="evenodd" clip-rule="evenodd" d="M398.846 169.839H256.034C253.824 169.839 251.792 170.767 250.33 172.231C248.869 173.695 247.942 175.73 247.942 177.944V206.328C247.942 208.541 248.869 210.576 250.33 212.04C251.792 213.504 253.824 214.432 256.034 214.432H378.882C384.336 214.432 387.759 214.075 390.468 212.361C393.178 210.648 394.96 207.72 397.099 202.615C398.632 199.009 399.987 195.331 401.377 191.689C402.732 188.048 404.086 184.442 405.584 180.907C406.903 177.765 407.259 175.088 406.225 173.088C405.156 171.017 402.803 169.839 398.81 169.839H398.846ZM279.527 198.616L288.653 190.404C289.117 189.976 289.58 189.512 290.044 188.976C290.507 188.44 290.757 187.833 290.757 187.119C290.757 186.334 290.472 185.691 289.901 185.227C289.331 184.763 288.653 184.549 287.869 184.549C286.942 184.549 286.229 184.834 285.695 185.406C285.16 185.977 284.875 186.691 284.803 187.548L279.848 187.191C279.919 185.977 280.169 184.906 280.597 184.013C281.024 183.121 281.63 182.371 282.343 181.764C283.056 181.157 283.948 180.729 284.91 180.407C285.908 180.122 286.978 179.943 288.119 179.943C289.188 179.943 290.186 180.086 291.113 180.407C292.04 180.693 292.86 181.157 293.537 181.728C294.215 182.3 294.749 183.049 295.142 183.942C295.534 184.834 295.712 185.87 295.712 187.048C295.712 187.798 295.641 188.476 295.498 189.083C295.355 189.69 295.142 190.261 294.856 190.761C294.571 191.261 294.25 191.725 293.894 192.154C293.502 192.582 293.11 192.975 292.682 193.367L285.552 199.508H295.962V203.9H279.598V198.616H279.527ZM305.159 192.154C305.159 190.761 305.302 189.333 305.551 187.905C305.801 186.477 306.264 185.156 306.906 183.978C307.548 182.799 308.439 181.835 309.58 181.121C310.72 180.372 312.146 180.015 313.893 180.015C315.64 180.015 317.066 180.372 318.207 181.121C319.348 181.871 320.239 182.835 320.88 183.978C321.522 185.156 321.986 186.441 322.235 187.905C322.485 189.333 322.627 190.761 322.627 192.154C322.627 193.546 322.485 194.974 322.235 196.402C321.986 197.83 321.522 199.151 320.88 200.33C320.239 201.508 319.348 202.472 318.207 203.186C317.066 203.936 315.64 204.293 313.893 204.293C312.146 204.293 310.72 203.936 309.58 203.186C308.439 202.436 307.548 201.472 306.906 200.33C306.264 199.151 305.801 197.866 305.551 196.402C305.302 194.974 305.159 193.546 305.159 192.154ZM310.15 192.154C310.15 191.547 310.15 190.797 310.221 189.94C310.293 189.083 310.435 188.262 310.685 187.441C310.934 186.655 311.291 185.977 311.79 185.406C312.289 184.834 313.002 184.585 313.893 184.585C314.784 184.585 315.462 184.87 315.997 185.406C316.496 185.977 316.888 186.62 317.137 187.441C317.387 188.226 317.529 189.083 317.601 189.94C317.672 190.797 317.672 191.547 317.672 192.154C317.672 192.76 317.672 193.51 317.601 194.367C317.529 195.224 317.387 196.045 317.137 196.866C316.888 197.652 316.531 198.33 315.997 198.901C315.497 199.437 314.784 199.723 313.893 199.723C313.002 199.723 312.289 199.437 311.79 198.901C311.291 198.33 310.934 197.688 310.685 196.866C310.435 196.081 310.293 195.224 310.221 194.367C310.15 193.51 310.15 192.76 310.15 192.154ZM331.861 198.616L340.987 190.404C341.45 189.976 341.914 189.512 342.377 188.976C342.841 188.44 343.09 187.833 343.09 187.119C343.09 186.334 342.805 185.691 342.234 185.227C341.664 184.763 340.987 184.549 340.202 184.549C339.276 184.549 338.563 184.834 338.028 185.406C337.493 185.977 337.208 186.691 337.137 187.548L332.181 187.191C332.253 185.977 332.502 184.906 332.93 184.013C333.358 183.121 333.964 182.371 334.677 181.764C335.39 181.157 336.281 180.729 337.244 180.407C338.242 180.122 339.276 179.943 340.452 179.943C341.522 179.943 342.52 180.086 343.447 180.407C344.373 180.693 345.193 181.157 345.871 181.728C346.548 182.3 347.083 183.049 347.475 183.942C347.867 184.834 348.045 185.87 348.045 187.048C348.045 187.798 347.974 188.476 347.796 189.083C347.653 189.69 347.439 190.261 347.154 190.761C346.869 191.261 346.548 191.725 346.192 192.154C345.799 192.582 345.407 192.975 344.979 193.367L337.85 199.508H348.259V203.9H331.896V198.616H331.861ZM357.207 199.187V195.01L366.797 180.407H372.251V195.01H375.282V199.187H372.251V203.9H367.474V199.187H357.207ZM367.439 186.905V195.01H362.163L367.367 186.905H367.439Z" fill="#0E5684"/>
<path d="M250.409 51.8193H260.676V73.4125H270.729V82.1526H250.409V51.8193Z" fill="#0E5684"/>
<path d="M271.223 66.8146C271.223 64.3868 271.651 62.2018 272.507 60.2595C273.362 58.2887 274.531 56.6178 276.014 55.2468C277.526 53.8758 279.308 52.819 281.362 52.0764C283.415 51.3338 285.64 50.9625 288.035 50.9625C290.431 50.9625 292.656 51.3338 294.709 52.0764C296.762 52.819 298.545 53.8758 300.056 55.2468C301.568 56.6178 302.752 58.2887 303.607 60.2595C304.463 62.2018 304.891 64.3868 304.891 66.8146C304.891 69.2424 304.463 71.456 303.607 73.4554C302.752 75.4547 301.568 77.1685 300.056 78.5966C298.545 79.9961 296.762 81.0815 294.709 81.8527C292.656 82.6239 290.431 83.0095 288.035 83.0095C285.64 83.0095 283.415 82.6239 281.362 81.8527C279.308 81.0815 277.526 79.9961 276.014 78.5966C274.531 77.1685 273.362 75.4547 272.507 73.4554C271.651 71.456 271.223 69.2424 271.223 66.8146ZM282.046 66.8146C282.046 67.8143 282.189 68.7283 282.474 69.5566C282.788 70.3849 283.201 71.099 283.715 71.6988C284.257 72.2986 284.898 72.7699 285.64 73.1126C286.381 73.4268 287.18 73.5839 288.035 73.5839C288.891 73.5839 289.675 73.4268 290.388 73.1126C291.13 72.7699 291.772 72.2986 292.313 71.6988C292.855 71.099 293.269 70.3849 293.554 69.5566C293.868 68.7283 294.025 67.8143 294.025 66.8146C294.025 65.8435 293.868 64.958 293.554 64.1583C293.269 63.33 292.855 62.6445 292.313 62.1018C291.772 61.5305 291.13 61.0878 290.388 60.7736C289.675 60.4595 288.891 60.3024 288.035 60.3024C287.18 60.3024 286.381 60.4595 285.64 60.7736C284.898 61.0878 284.257 61.5305 283.715 62.1018C283.201 62.6445 282.788 63.33 282.474 64.1583C282.189 64.958 282.046 65.8435 282.046 66.8146Z" fill="#0E5684"/>
<path d="M318.215 65.0152L318.685 82.1526H309.188V51.8193H322.493L327.969 68.1427H328.182L332.931 51.8193H346.663V82.1526H336.781L337.081 65.1009L336.824 65.058L331.177 82.1526H323.99L318.429 65.0152H318.215Z" fill="#0E5684"/>
<path d="M361.799 59.7454V63.4728H364.537C365.25 63.4728 365.835 63.3157 366.291 63.0015C366.747 62.6588 366.975 62.1446 366.975 61.4591C366.975 60.8879 366.733 60.4595 366.248 60.1738C365.763 59.8882 365.122 59.7454 364.323 59.7454H361.799ZM361.799 70.0279V74.1409H364.836C365.635 74.1409 366.277 73.9695 366.761 73.6267C367.275 73.2554 367.531 72.727 367.531 72.0415C367.531 71.6416 367.417 71.3132 367.189 71.0561C366.99 70.799 366.733 70.5991 366.419 70.4563C366.105 70.2849 365.763 70.1707 365.392 70.1136C365.05 70.0564 364.722 70.0279 364.409 70.0279H361.799ZM372.109 66.3862C372.822 66.5575 373.521 66.8432 374.205 67.243C374.889 67.6143 375.503 68.0999 376.045 68.6997C376.586 69.271 377.014 69.9422 377.328 70.7134C377.642 71.4846 377.798 72.3414 377.798 73.284C377.798 74.9406 377.456 76.3402 376.772 77.4827C376.116 78.5966 375.232 79.5106 374.119 80.2246C373.036 80.9101 371.781 81.41 370.355 81.7242C368.957 82.0098 367.517 82.1526 366.034 82.1526H352.302V51.8193H364.751C365.977 51.8193 367.275 51.9193 368.644 52.1192C370.041 52.2906 371.325 52.6619 372.494 53.2332C373.663 53.7759 374.633 54.5899 375.403 55.6753C376.173 56.7321 376.558 58.1316 376.558 59.8739C376.558 61.502 376.144 62.8444 375.317 63.9012C374.519 64.958 373.449 65.7435 372.109 66.2576V66.3862Z" fill="#0E5684"/>
<path d="M390.391 51.8193H401.214L413.021 82.1526H401.941L400.359 77.6969H390.733L389.236 82.1526H378.456L390.391 51.8193ZM395.653 62.4017L393.172 69.8993H398.091L395.653 62.4017Z" fill="#0E5684"/>
<path d="M250.409 95.9129H263.456C264.939 95.9129 266.408 96.07 267.863 96.3842C269.346 96.6698 270.658 97.1982 271.798 97.9694C272.968 98.712 273.909 99.726 274.622 101.011C275.335 102.268 275.691 103.853 275.691 105.767C275.691 107.623 275.235 109.266 274.322 110.694C273.41 112.093 272.098 113.179 270.387 113.95L278.087 126.246H266.365L260.547 115.407H260.248V126.246H250.409V95.9129ZM260.162 108.723H262.173C262.515 108.723 262.886 108.695 263.285 108.637C263.713 108.58 264.098 108.466 264.44 108.295C264.811 108.095 265.111 107.838 265.339 107.524C265.595 107.181 265.724 106.738 265.724 106.195C265.724 105.653 265.624 105.224 265.424 104.91C265.225 104.596 264.968 104.367 264.654 104.225C264.341 104.053 263.998 103.953 263.628 103.925C263.257 103.868 262.915 103.839 262.601 103.839H260.162V108.723Z" fill="#0E5684"/>
<path d="M280.947 95.9129H291.214V126.246H280.947V95.9129Z" fill="#0E5684"/>
<path d="M306.789 127.103C305.563 127.103 304.351 126.989 303.153 126.76C301.984 126.56 300.843 126.26 299.731 125.861C298.647 125.432 297.62 124.947 296.65 124.404C295.681 123.833 294.811 123.204 294.041 122.519L300.244 115.749C300.957 116.521 301.898 117.206 303.067 117.806C304.265 118.406 305.492 118.706 306.746 118.706C307.317 118.706 307.83 118.606 308.286 118.406C308.771 118.206 309.014 117.835 309.014 117.292C309.014 117.006 308.928 116.763 308.757 116.564C308.614 116.364 308.343 116.164 307.944 115.964C307.545 115.735 306.989 115.492 306.276 115.235C305.591 114.978 304.721 114.678 303.666 114.336C302.64 113.993 301.656 113.593 300.715 113.136C299.773 112.65 298.932 112.065 298.191 111.379C297.478 110.694 296.907 109.88 296.479 108.937C296.052 107.966 295.838 106.809 295.838 105.467C295.838 103.582 296.223 101.982 296.993 100.669C297.763 99.3547 298.747 98.2836 299.944 97.4553C301.171 96.5984 302.54 95.9843 304.051 95.613C305.563 95.2417 307.06 95.056 308.543 95.056C310.539 95.056 312.564 95.4416 314.618 96.2128C316.7 96.984 318.525 98.0979 320.094 99.5546L313.762 106.024C313.078 105.167 312.236 104.524 311.238 104.096C310.24 103.639 309.342 103.411 308.543 103.411C307.802 103.411 307.203 103.525 306.746 103.753C306.29 103.953 306.062 104.296 306.062 104.782C306.062 105.239 306.29 105.581 306.746 105.81C307.231 106.038 308.001 106.324 309.056 106.667C310.14 107.009 311.281 107.409 312.479 107.866C313.677 108.323 314.775 108.923 315.773 109.666C316.8 110.38 317.641 111.265 318.297 112.322C318.953 113.379 319.281 114.693 319.281 116.264C319.281 118.092 318.91 119.691 318.168 121.062C317.455 122.405 316.5 123.533 315.302 124.447C314.133 125.332 312.807 125.989 311.324 126.418C309.841 126.875 308.329 127.103 306.789 127.103Z" fill="#0E5684"/>
<path d="M323.267 95.9129H344.101V104.396H332.85V107.009H343.416V114.935H332.85V117.763H344.828V126.246H323.267V95.9129Z" fill="#0E5684"/>
<path d="M364.145 126.246H353.963V104.524H346.519V95.9129H371.588V104.524H364.145V126.246Z" fill="#0E5684"/>
<path d="M394.27 127.103C393.043 127.103 391.831 126.989 390.633 126.76C389.464 126.56 388.323 126.26 387.211 125.861C386.127 125.432 385.1 124.947 384.131 124.404C383.161 123.833 382.291 123.204 381.521 122.519L387.724 115.749C388.437 116.521 389.378 117.206 390.548 117.806C391.746 118.406 392.972 118.706 394.227 118.706C394.797 118.706 395.31 118.606 395.767 118.406C396.252 118.206 396.494 117.835 396.494 117.292C396.494 117.006 396.408 116.763 396.237 116.564C396.095 116.364 395.824 116.164 395.425 115.964C395.025 115.735 394.469 115.492 393.756 115.235C393.072 114.978 392.202 114.678 391.147 114.336C390.12 113.993 389.136 113.593 388.195 113.136C387.254 112.65 386.412 112.065 385.671 111.379C384.958 110.694 384.387 109.88 383.96 108.937C383.532 107.966 383.318 106.809 383.318 105.467C383.318 103.582 383.703 101.982 384.473 100.669C385.243 99.3547 386.227 98.2836 387.425 97.4553C388.651 96.5984 390.02 95.9843 391.532 95.613C393.043 95.2417 394.54 95.056 396.023 95.056C398.02 95.056 400.045 95.4416 402.098 96.2128C404.18 96.984 406.005 98.0979 407.574 99.5546L401.243 106.024C400.558 105.167 399.717 104.524 398.719 104.096C397.72 103.639 396.822 103.411 396.023 103.411C395.282 103.411 394.683 103.525 394.227 103.753C393.77 103.953 393.542 104.296 393.542 104.782C393.542 105.239 393.77 105.581 394.227 105.81C394.712 106.038 395.482 106.324 396.537 106.667C397.621 107.009 398.761 107.409 399.959 107.866C401.157 108.323 402.255 108.923 403.253 109.666C404.28 110.38 405.121 111.265 405.777 112.322C406.433 113.379 406.761 114.693 406.761 116.264C406.761 118.092 406.39 119.691 405.649 121.062C404.936 122.405 403.98 123.533 402.783 124.447C401.613 125.332 400.287 125.989 398.804 126.418C397.321 126.875 395.81 127.103 394.27 127.103Z" fill="#0E5684"/>
<path d="M419.175 95.9129H429.998L441.805 126.246H430.726L429.143 121.79H419.517L418.02 126.246H407.24L419.175 95.9129ZM424.437 106.495L421.956 113.993H426.875L424.437 106.495Z" fill="#0E5684"/>
<path d="M459.159 126.246H448.892L440.635 95.9129H451.416L454.667 112.965H454.838L458.346 95.9129H468.998L472.805 112.965H472.976L476.27 95.9129H486.709L478.281 126.246H468.014L463.736 109.109H463.565L459.159 126.246Z" fill="#0E5684"/>
<path d="M489.538 95.9129H499.805V126.246H489.538V95.9129Z" fill="#0E5684"/>
<path d="M520.556 126.246H510.375V104.524H502.931V95.9129H528V104.524H520.556V126.246Z" fill="#0E5684"/>
<path d="M264.329 141.316H259.074V155.487H257.187V141.316H251.932V139.562H264.329V141.316Z" fill="#0E5684"/>
<path d="M266.558 139.562H268.444V155.487H266.558V139.562Z" fill="#0E5684"/>
<path d="M272.392 139.562H274.773L283.981 152.788H284.026V139.562H285.912V155.487H283.532L274.323 142.261H274.278V155.487H272.392V139.562Z" fill="#0E5684"/>
<path d="M303.393 154.407C302.479 154.917 301.514 155.292 300.495 155.532C299.492 155.772 298.474 155.892 297.441 155.892C296.198 155.892 295.06 155.689 294.027 155.284C292.994 154.879 292.096 154.31 291.332 153.575C290.583 152.84 290 151.963 289.58 150.943C289.161 149.909 288.951 148.769 288.951 147.524C288.951 146.265 289.169 145.125 289.603 144.105C290.052 143.071 290.666 142.193 291.444 141.474C292.223 140.739 293.129 140.169 294.162 139.764C295.195 139.359 296.311 139.157 297.508 139.157C298.556 139.157 299.56 139.314 300.518 139.629C301.491 139.944 302.36 140.484 303.123 141.249L301.708 142.733C301.169 142.148 300.51 141.699 299.732 141.384C298.968 141.069 298.182 140.911 297.374 140.911C296.46 140.911 295.614 141.076 294.836 141.406C294.057 141.736 293.376 142.193 292.792 142.778C292.223 143.363 291.774 144.06 291.444 144.87C291.13 145.68 290.973 146.565 290.973 147.524C290.973 148.469 291.13 149.346 291.444 150.156C291.774 150.966 292.223 151.67 292.792 152.27C293.376 152.855 294.072 153.312 294.881 153.642C295.689 153.972 296.58 154.137 297.553 154.137C298.197 154.137 298.871 154.062 299.575 153.912C300.278 153.747 300.922 153.515 301.506 153.215V148.334H297.845V146.58H303.393V154.407Z" fill="#0E5684"/>
<path d="M307.353 139.562H309.239V146.445H309.509L316.741 139.562H319.458L311.597 146.827L319.84 155.487H317.077L309.509 147.389H309.239V155.487H307.353V139.562Z" fill="#0E5684"/>
<path d="M326.665 139.562H328.439L335.199 155.487H332.998L331.381 151.573H323.431L321.791 155.487H319.658L326.665 139.562ZM327.518 141.991H327.473L324.172 149.819H330.663L327.518 141.991Z" fill="#0E5684"/>
<path d="M345.919 141.316H340.664V155.487H338.777V141.316H333.522V139.562H345.919V141.316Z" fill="#0E5684"/>
<path d="M354.398 139.562H357.206L362.596 152.045H362.641L368.076 139.562H370.816V155.487H368.929V142.126H368.885L363.18 155.487H362.035L356.33 142.126H356.285V155.487H354.398V139.562Z" fill="#0E5684"/>
<path d="M379.94 139.562H381.714L388.474 155.487H386.273L384.656 151.573H376.705L375.066 155.487H372.932L379.94 139.562ZM380.793 141.991H380.748L377.447 149.819H383.937L380.793 141.991Z" fill="#0E5684"/>
<path d="M390.587 139.562H392.474V146.31H400.964V139.562H402.85V155.487H400.964V148.064H392.474V155.487H390.587V139.562Z" fill="#0E5684"/>
<path d="M411.961 139.562H413.736L420.496 155.487H418.295L416.678 151.573H408.727L407.088 155.487H404.954L411.961 139.562ZM412.815 141.991H412.77L409.468 149.819H415.959L412.815 141.991Z" fill="#0E5684"/>
<path d="M430.156 142.373C429.841 141.864 429.422 141.496 428.898 141.271C428.374 141.031 427.827 140.911 427.258 140.911C426.839 140.911 426.427 140.964 426.023 141.069C425.619 141.174 425.252 141.331 424.923 141.541C424.608 141.751 424.354 142.028 424.159 142.373C423.964 142.718 423.867 143.123 423.867 143.588C423.867 143.948 423.919 144.27 424.024 144.555C424.144 144.825 424.331 145.073 424.586 145.297C424.84 145.522 425.185 145.732 425.619 145.927C426.053 146.122 426.585 146.317 427.213 146.512C427.827 146.707 428.419 146.917 428.988 147.142C429.572 147.367 430.081 147.652 430.515 147.997C430.964 148.342 431.316 148.776 431.57 149.301C431.84 149.811 431.975 150.456 431.975 151.236C431.975 152.03 431.818 152.72 431.503 153.305C431.189 153.89 430.769 154.377 430.245 154.767C429.736 155.142 429.145 155.419 428.471 155.599C427.797 155.794 427.101 155.892 426.382 155.892C425.918 155.892 425.454 155.847 424.99 155.757C424.526 155.682 424.077 155.562 423.642 155.397C423.223 155.217 422.826 154.992 422.452 154.722C422.078 154.437 421.756 154.092 421.486 153.687L423.103 152.36C423.448 152.945 423.927 153.387 424.541 153.687C425.155 153.987 425.806 154.137 426.495 154.137C426.899 154.137 427.303 154.077 427.708 153.957C428.127 153.837 428.501 153.665 428.83 153.44C429.16 153.2 429.429 152.908 429.639 152.563C429.849 152.218 429.953 151.82 429.953 151.371C429.953 150.876 429.871 150.478 429.706 150.178C429.542 149.864 429.287 149.594 428.943 149.369C428.598 149.144 428.164 148.941 427.64 148.761C427.116 148.581 426.502 148.371 425.798 148.132C425.23 147.952 424.705 147.749 424.226 147.524C423.747 147.284 423.328 146.999 422.969 146.67C422.624 146.325 422.347 145.92 422.138 145.455C421.943 144.975 421.846 144.405 421.846 143.745C421.846 142.981 421.995 142.313 422.295 141.744C422.594 141.174 422.999 140.701 423.508 140.327C424.017 139.937 424.593 139.644 425.237 139.449C425.881 139.254 426.555 139.157 427.258 139.157C428.157 139.157 428.973 139.299 429.706 139.584C430.455 139.854 431.121 140.334 431.705 141.024L430.156 142.373Z" fill="#0E5684"/>
<path d="M435.089 139.562H436.976V155.487H435.089V139.562Z" fill="#0E5684"/>
<path d="M448.469 142.373C448.155 141.864 447.736 141.496 447.212 141.271C446.688 141.031 446.141 140.911 445.572 140.911C445.153 140.911 444.741 140.964 444.337 141.069C443.933 141.174 443.566 141.331 443.236 141.541C442.922 141.751 442.667 142.028 442.473 142.373C442.278 142.718 442.181 143.123 442.181 143.588C442.181 143.948 442.233 144.27 442.338 144.555C442.458 144.825 442.645 145.073 442.9 145.297C443.154 145.522 443.498 145.732 443.933 145.927C444.367 146.122 444.898 146.317 445.527 146.512C446.141 146.707 446.733 146.917 447.302 147.142C447.885 147.367 448.395 147.652 448.829 147.997C449.278 148.342 449.63 148.776 449.884 149.301C450.154 149.811 450.289 150.456 450.289 151.236C450.289 152.03 450.131 152.72 449.817 153.305C449.503 153.89 449.083 154.377 448.559 154.767C448.05 155.142 447.459 155.419 446.785 155.599C446.111 155.794 445.415 155.892 444.696 155.892C444.232 155.892 443.768 155.847 443.304 155.757C442.84 155.682 442.39 155.562 441.956 155.397C441.537 155.217 441.14 154.992 440.766 154.722C440.392 154.437 440.07 154.092 439.8 153.687L441.417 152.36C441.762 152.945 442.241 153.387 442.855 153.687C443.469 153.987 444.12 154.137 444.809 154.137C445.213 154.137 445.617 154.077 446.021 153.957C446.441 153.837 446.815 153.665 447.144 153.44C447.474 153.2 447.743 152.908 447.953 152.563C448.162 152.218 448.267 151.82 448.267 151.371C448.267 150.876 448.185 150.478 448.02 150.178C447.856 149.864 447.601 149.594 447.257 149.369C446.912 149.144 446.478 148.941 445.954 148.761C445.43 148.581 444.816 148.371 444.112 148.132C443.543 147.952 443.019 147.749 442.54 147.524C442.061 147.284 441.642 146.999 441.283 146.67C440.938 146.325 440.661 145.92 440.452 145.455C440.257 144.975 440.16 144.405 440.16 143.745C440.16 142.981 440.309 142.313 440.609 141.744C440.908 141.174 441.312 140.701 441.822 140.327C442.331 139.937 442.907 139.644 443.551 139.449C444.195 139.254 444.868 139.157 445.572 139.157C446.471 139.157 447.287 139.299 448.02 139.584C448.769 139.854 449.435 140.334 450.019 141.024L448.469 142.373Z" fill="#0E5684"/>
<path d="M451.561 139.562H453.65L457.266 152.788H457.311L461.219 139.562H463.33L467.215 152.788H467.26L470.943 139.562H472.92L468.248 155.487H466.205L462.274 141.991H462.229L458.277 155.487H456.21L451.561 139.562Z" fill="#0E5684"/>
<path d="M479.646 139.562H481.42L488.18 155.487H485.979L484.362 151.573H476.412L474.772 155.487H472.639L479.646 139.562ZM480.499 141.991H480.454L477.153 149.819H483.644L480.499 141.991Z" fill="#0E5684"/>
</svg>
