<svg width="677" height="225" viewBox="0 0 677 225" fill="none" xmlns="http://www.w3.org/2000/svg">
<path fill-rule="evenodd" clip-rule="evenodd" d="M207.18 209.423C159.441 55.9029 51.7947 89.7583 14.2542 145.004C24.6278 65.1349 191.277 41.8721 207.18 209.423Z" fill="white"/>
<path fill-rule="evenodd" clip-rule="evenodd" d="M207.18 209.423C198.455 43.8033 64.1239 45.7778 0 96.9998C50.5696 8.48421 235.339 50.592 207.18 209.423Z" fill="white"/>
<path fill-rule="evenodd" clip-rule="evenodd" d="M207.18 209.423C238.068 69.4655 134.142 8.38152 2.97645 47.0211C127.241 -24.7716 271.129 73.8401 207.18 209.423Z" fill="white"/>
<path fill-rule="evenodd" clip-rule="evenodd" d="M207.18 209.423C54.8149 159.239 90.2107 51.8195 145.858 15.0088C66.0493 24.1968 40.3414 190.944 207.18 209.423Z" fill="white"/>
<path fill-rule="evenodd" clip-rule="evenodd" d="M207.18 209.423C42.1652 198.172 46.163 63.5117 98.2208 0C9.19145 49.3639 48.3952 235.26 207.18 209.423Z" fill="white"/>
<path fill-rule="evenodd" clip-rule="evenodd" d="M207.18 209.423C67.1582 238.274 7.81971 133.153 48.3367 2.22297C-25.125 125.72 71.0246 271.5 207.18 209.423Z" fill="white"/>
<path fill-rule="evenodd" clip-rule="evenodd" d="M148.572 138.624C156.699 136.444 165.059 141.272 167.233 149.436C169.407 157.586 164.592 165.969 156.451 168.149C148.324 170.329 139.964 165.501 137.79 157.337C135.616 149.188 140.431 140.804 148.572 138.624Z" fill="white"/>
<path fill-rule="evenodd" clip-rule="evenodd" d="M584.687 192.553L604.063 148.983H613.985L633.419 192.553H622.87L608.951 158.888L594.988 192.553H584.687Z" fill="white"/>
<path d="M580.091 148.983H570.039V192.568H580.091V148.983Z" fill="white"/>
<path fill-rule="evenodd" clip-rule="evenodd" d="M544.71 193.299C541.238 193.299 537.897 192.831 534.716 191.895C531.535 190.958 528.967 189.744 527.012 188.252L530.427 180.658C532.294 181.99 534.497 183.073 537.036 183.936C539.575 184.784 542.157 185.209 544.769 185.209C546.753 185.209 548.358 185.004 549.583 184.623C550.809 184.228 551.699 183.672 552.283 182.97C552.866 182.268 553.158 181.463 553.158 180.541C553.158 179.386 552.706 178.449 551.787 177.776C550.882 177.089 549.671 176.533 548.183 176.094C546.695 175.655 545.046 175.245 543.251 174.85C541.457 174.455 539.648 173.972 537.853 173.387C536.058 172.802 534.41 172.056 532.921 171.149C531.433 170.241 530.222 169.027 529.288 167.535C528.355 166.042 527.888 164.126 527.888 161.8C527.888 159.312 528.559 157.03 529.901 154.982C531.244 152.933 533.272 151.28 535.985 150.066C538.699 148.837 542.099 148.222 546.198 148.222C548.927 148.222 551.626 148.544 554.267 149.188C556.922 149.832 559.257 150.797 561.285 152.085L558.177 159.737C556.149 158.581 554.121 157.718 552.093 157.147C550.065 156.591 548.081 156.313 546.14 156.313C544.2 156.313 542.595 156.547 541.355 157.001C540.114 157.454 539.224 158.054 538.685 158.771C538.145 159.503 537.882 160.337 537.882 161.288C537.882 162.414 538.334 163.307 539.254 163.994C540.158 164.682 541.369 165.223 542.857 165.647C544.346 166.057 545.994 166.481 547.789 166.891C549.583 167.301 551.393 167.784 553.187 168.325C554.982 168.866 556.63 169.583 558.119 170.505C559.607 171.412 560.818 172.626 561.752 174.119C562.685 175.611 563.152 177.498 563.152 179.781C563.152 182.224 562.467 184.462 561.11 186.496C559.738 188.53 557.71 190.168 554.996 191.412C552.283 192.656 548.854 193.285 544.725 193.285L544.71 193.299Z" fill="white"/>
<path fill-rule="evenodd" clip-rule="evenodd" d="M498.766 184.462H522.417V192.553H488.772V148.983H521.615V157.074H498.766V166.54H518.944V174.382H498.766V184.462Z" fill="white"/>
<path fill-rule="evenodd" clip-rule="evenodd" d="M438.61 192.553V148.983H446.927L468.535 175.42V148.983H478.471V192.553H470.213L448.546 166.115V192.553H438.61Z" fill="white"/>
<path fill-rule="evenodd" clip-rule="evenodd" d="M407.314 193.298C403.886 193.298 400.705 192.742 397.787 191.616C394.869 190.489 392.345 188.924 390.215 186.89C388.085 184.856 386.421 182.472 385.254 179.736C384.072 177 383.489 174.015 383.489 170.767C383.489 167.519 384.072 164.549 385.254 161.799C386.436 159.063 388.099 156.678 390.244 154.644C392.403 152.61 394.927 151.03 397.816 149.918C400.72 148.792 403.857 148.236 407.256 148.236C410.656 148.236 413.851 148.792 416.725 149.918C419.599 151.045 422.109 152.61 424.239 154.644C426.369 156.678 428.032 159.048 429.243 161.769C430.44 164.491 431.038 167.49 431.038 170.767C431.038 174.044 430.44 177 429.243 179.765C428.047 182.53 426.384 184.915 424.239 186.919C422.109 188.938 419.599 190.504 416.725 191.616C413.851 192.742 410.714 193.298 407.314 193.298ZM407.256 184.71C409.197 184.71 410.991 184.374 412.625 183.715C414.259 183.057 415.704 182.091 416.944 180.848C418.184 179.604 419.147 178.126 419.833 176.429C420.519 174.732 420.854 172.845 420.854 170.767C420.854 168.69 420.519 166.802 419.833 165.105C419.147 163.408 418.199 161.93 416.973 160.687C415.748 159.443 414.318 158.492 412.654 157.819C411.006 157.161 409.197 156.824 407.256 156.824C405.316 156.824 403.521 157.161 401.887 157.819C400.253 158.477 398.808 159.443 397.568 160.687C396.328 161.93 395.365 163.408 394.679 165.105C393.994 166.802 393.658 168.69 393.658 170.767C393.658 172.845 393.994 174.673 394.679 176.4C395.365 178.126 396.313 179.604 397.539 180.848C398.765 182.091 400.194 183.042 401.858 183.715C403.506 184.374 405.316 184.71 407.256 184.71Z" fill="white"/>
<path fill-rule="evenodd" clip-rule="evenodd" d="M334.932 192.553V148.968H354.673C359.386 148.968 363.544 149.875 367.148 151.675C370.751 153.474 373.567 156.005 375.595 159.239C377.623 162.472 378.645 166.32 378.645 170.753C378.645 175.186 377.638 178.975 375.595 182.238C373.567 185.501 370.751 188.032 367.148 189.831C363.544 191.631 359.386 192.538 354.673 192.538H334.932V192.553ZM344.985 184.272H354.177C357.08 184.272 359.59 183.716 361.72 182.618C363.85 181.521 365.513 179.956 366.681 177.922C367.863 175.888 368.446 173.503 368.446 170.768C368.446 168.032 367.863 165.588 366.681 163.569C365.499 161.55 363.85 159.999 361.72 158.902C359.59 157.805 357.08 157.249 354.177 157.249H344.985V184.272Z" fill="white"/>
<path fill-rule="evenodd" clip-rule="evenodd" d="M284.771 192.553V148.983H293.088L314.696 175.42V148.983H324.617V192.553H316.374L294.707 166.115V192.553H284.771Z" fill="white"/>
<path d="M274.456 148.983H264.404V192.568H274.456V148.983Z" fill="white"/>
<path fill-rule="evenodd" clip-rule="evenodd" d="M653.043 133.854V98.492H639.138V90.2696H677V98.492H663.096V133.854H653.043Z" fill="white"/>
<path d="M633.725 90.2696H623.673V133.854H633.725V90.2696Z" fill="white"/>
<path fill-rule="evenodd" clip-rule="evenodd" d="M562.832 133.854L548.621 90.2696H559.053L568.857 120.906L579.1 90.2696H588.408L598.344 121.126L608.47 90.2696H618.085L603.874 133.854H593.062L583.491 104.33L573.643 133.854H562.832Z" fill="white"/>
<path fill-rule="evenodd" clip-rule="evenodd" d="M501.494 133.854L520.87 90.2696H530.806L550.225 133.854H539.677L525.758 100.175L511.795 133.854H501.494Z" fill="white"/>
<path fill-rule="evenodd" clip-rule="evenodd" d="M481.885 134.601C478.413 134.601 475.072 134.133 471.891 133.197C468.71 132.26 466.142 131.046 464.187 129.554L467.601 121.96C469.469 123.292 471.672 124.374 474.211 125.238C476.749 126.086 479.332 126.51 481.944 126.51C483.928 126.51 485.533 126.306 486.758 125.925C487.984 125.53 488.874 124.974 489.457 124.272C490.041 123.57 490.333 122.765 490.333 121.843C490.333 120.687 489.881 119.766 488.961 119.078C488.057 118.39 486.846 117.835 485.358 117.396C483.869 116.957 482.221 116.547 480.426 116.152C478.632 115.757 476.822 115.274 475.028 114.689C473.219 114.104 471.585 113.358 470.096 112.45C468.608 111.543 467.397 110.329 466.463 108.837C465.53 107.344 465.063 105.428 465.063 103.101C465.063 100.614 465.734 98.3318 467.076 96.2835C468.418 94.2352 470.446 92.5819 473.16 91.3676C475.874 90.1386 479.273 89.5241 483.373 89.5241C486.102 89.5241 488.801 89.846 491.442 90.4898C494.097 91.1335 496.432 92.0991 498.46 93.3866L495.352 101.038C493.324 99.8827 491.296 99.0194 489.268 98.4488C487.24 97.8929 485.255 97.6149 483.315 97.6149C481.375 97.6149 479.77 97.8489 478.529 98.3025C477.289 98.756 476.399 99.3559 475.859 100.073C475.32 100.804 475.057 101.638 475.057 102.589C475.057 103.716 475.509 104.608 476.428 105.296C477.333 105.984 478.544 106.525 480.032 106.949C481.52 107.359 483.169 107.783 484.964 108.193C486.758 108.602 488.567 109.085 490.362 109.627C492.157 110.168 493.805 110.885 495.294 111.807C496.782 112.714 497.993 113.928 498.926 115.42C499.86 116.913 500.327 118.8 500.327 121.082C500.327 123.526 499.641 125.779 498.285 127.798C496.913 129.832 494.885 131.47 492.171 132.714C489.457 133.957 486.029 134.587 481.9 134.587L481.885 134.601Z" fill="white"/>
<path fill-rule="evenodd" clip-rule="evenodd" d="M420.664 133.854V98.492H406.76V90.2696H444.636V98.492H430.717V133.854H420.664Z" fill="white"/>
<path fill-rule="evenodd" clip-rule="evenodd" d="M380.002 125.764H403.653V133.854H370.008V90.2696H402.85V98.3604H380.002V107.826H400.18V115.668H380.002V125.764Z" fill="white"/>
<path fill-rule="evenodd" clip-rule="evenodd" d="M344.679 134.601C341.206 134.601 337.865 134.133 334.684 133.197C331.504 132.26 328.936 131.046 326.981 129.554L330.395 121.96C332.262 123.292 334.465 124.374 337.004 125.238C339.543 126.086 342.125 126.51 344.737 126.51C346.721 126.51 348.326 126.306 349.552 125.925C350.777 125.53 351.667 124.974 352.251 124.272C352.834 123.57 353.126 122.765 353.126 121.843C353.126 120.687 352.674 119.766 351.755 119.078C350.85 118.39 349.639 117.835 348.151 117.396C346.663 116.957 345.014 116.547 343.22 116.152C341.425 115.757 339.616 115.274 337.821 114.689C336.027 114.104 334.378 113.358 332.89 112.45C331.401 111.543 330.19 110.329 329.257 108.837C328.323 107.344 327.856 105.428 327.856 103.101C327.856 100.614 328.527 98.3318 329.87 96.2835C331.212 94.2352 333.24 92.5819 335.954 91.3676C338.667 90.1386 342.067 89.5241 346.167 89.5241C348.895 89.5241 351.594 89.846 354.235 90.4898C356.891 91.1335 359.225 92.0991 361.253 93.3866L358.145 101.038C356.117 99.8827 354.089 99.0194 352.061 98.4488C350.033 97.8929 348.049 97.6149 346.108 97.6149C344.168 97.6149 342.563 97.8489 341.323 98.3025C340.083 98.756 339.193 99.3559 338.653 100.073C338.113 100.804 337.85 101.638 337.85 102.589C337.85 103.716 338.303 104.608 339.222 105.296C340.126 105.984 341.337 106.525 342.826 106.949C344.314 107.359 345.962 107.783 347.757 108.193C349.552 108.602 351.361 109.085 353.155 109.627C354.95 110.168 356.599 110.885 358.087 111.807C359.575 112.714 360.786 113.928 361.72 115.42C362.654 116.913 363.121 118.8 363.121 121.082C363.121 123.526 362.435 125.779 361.078 127.798C359.706 129.832 357.678 131.47 354.965 132.714C352.251 133.957 348.822 134.587 344.693 134.587L344.679 134.601Z" fill="white"/>
<path d="M320.094 90.2696H310.041V133.854H320.094V90.2696Z" fill="white"/>
<path fill-rule="evenodd" clip-rule="evenodd" d="M292.037 133.854L281.167 118.038H291.906L302.892 133.854H292.037Z" fill="white"/>
<path fill-rule="evenodd" clip-rule="evenodd" d="M264.404 133.854V90.2696H283.21C287.106 90.2696 290.447 90.8987 293.263 92.1716C296.079 93.4298 298.253 95.2587 299.785 97.6142C301.317 99.9844 302.076 102.808 302.076 106.085C302.076 109.363 301.317 112.113 299.785 114.454C298.253 116.795 296.079 118.595 293.263 119.838C290.447 121.082 287.091 121.711 283.21 121.711H274.456V133.854H264.404ZM274.456 113.679H282.656C285.764 113.679 288.084 113.006 289.616 111.66C291.148 110.314 291.906 108.456 291.906 106.085C291.906 103.715 291.148 101.813 289.616 100.482C288.084 99.1505 285.764 98.492 282.656 98.492H274.456V113.679Z" fill="white"/>
<path fill-rule="evenodd" clip-rule="evenodd" d="M451.042 75.1415V31.5713H459.358L480.966 57.9943V31.5713H490.902V75.1415H482.644L460.977 48.6892V75.1415H451.042Z" fill="white"/>
<path fill-rule="evenodd" clip-rule="evenodd" d="M397.772 75.1415L417.148 31.5713H427.07L446.504 75.1415H435.955L422.036 41.4617L408.073 75.1415H397.772Z" fill="white"/>
<path fill-rule="evenodd" clip-rule="evenodd" d="M380.614 75.1402L365.163 56.1495L371.743 48.9952L392.359 75.1402H380.614Z" fill="white"/>
<path fill-rule="evenodd" clip-rule="evenodd" d="M350.88 75.1415V31.5713H360.874V51.908L380.119 31.5713H391.295L372.546 51.7909L366.958 57.7749L360.874 64.1392V75.1415H350.88Z" fill="white"/>
<path fill-rule="evenodd" clip-rule="evenodd" d="M319.219 67.0507H342.87V75.1415H309.224V31.5713H342.067V39.6621H319.219V49.1135H339.397V56.9702H319.219V67.0507Z" fill="white"/>
<path fill-rule="evenodd" clip-rule="evenodd" d="M264.404 75.141V31.5562H283.211C287.106 31.5562 290.447 32.1854 293.263 33.4582C296.079 34.7165 298.253 36.5453 299.785 38.9008C301.317 41.271 302.076 44.0947 302.076 47.3719C302.076 50.6492 301.317 53.4145 299.785 55.77C298.253 58.1402 296.079 59.9543 293.263 61.2126C290.447 62.4708 287.092 63.1146 283.211 63.1146H274.456V75.1264H264.404V75.141ZM274.456 54.9068H282.656C285.764 54.9068 288.084 54.2484 289.616 52.917C291.148 51.5856 291.906 49.7421 291.906 47.3719C291.906 45.0018 291.148 43.0998 289.616 41.7685C288.084 40.4371 285.764 39.7786 282.656 39.7786H274.456V54.9068Z" fill="white"/>
</svg>
