<svg width="432" height="190" viewBox="0 0 432 190" fill="none" xmlns="http://www.w3.org/2000/svg">
<path d="M6.19888e-06 12.484L0 25.7765C3.67057 25.7765 6.64615 28.5042 6.64615 31.8688C6.64615 35.2335 3.67057 37.9612 0 37.9612V50.6997C3.67057 50.6997 6.64615 53.4274 6.64615 56.792C6.64615 60.1567 3.67057 62.8844 0 62.8844V76.1768C3.67057 76.1768 6.64615 78.9044 6.64615 82.2691C6.64615 85.6338 3.67057 88.3614 0 88.3614V101.654C3.67057 101.654 6.64615 104.381 6.64615 107.746C6.64615 111.111 3.67057 113.838 0 113.838V126.576C3.67057 126.576 6.64615 129.428 6.64615 132.945C6.64615 136.463 3.67057 139.315 0 139.315V152.053C3.67057 152.053 6.64615 154.781 6.64615 158.145C6.64615 161.51 3.67057 164.238 0 164.238L6.19888e-06 177.53C6.4235 177.53 11.6309 182.737 11.6309 189.161L150.646 189.161C150.646 182.738 155.854 177.53 162.277 177.53C168.7 177.53 173.908 182.737 173.908 189.161L420.369 189.161C420.369 182.738 425.576 177.53 432 177.53L432 164.238C428.329 164.238 425.354 161.51 425.354 158.145C425.354 154.781 428.329 152.053 432 152.053V139.315C428.329 139.315 425.354 136.463 425.354 132.945C425.354 129.428 428.329 126.576 432 126.576V113.838C428.329 113.838 425.354 111.111 425.354 107.746C425.354 104.381 428.329 101.654 432 101.654V88.3614C428.329 88.3614 425.354 85.6338 425.354 82.2691C425.354 78.9044 428.329 76.1768 432 76.1768V62.8844C428.329 62.8844 425.354 60.1567 425.354 56.792C425.354 53.4274 428.329 50.6997 432 50.6997V37.9612C428.329 37.9612 425.354 35.2335 425.354 31.8688C425.354 28.5042 428.329 25.7765 432 25.7765L432 12.484C425.576 12.484 420.369 7.27688 420.369 0.853516H173.908C173.908 7.27688 168.7 12.484 162.277 12.484C155.854 12.484 150.646 7.27688 150.646 0.853516H11.6309C11.6307 7.27688 6.4234 12.484 6.19888e-06 12.484Z" fill="url(#paint0_linear_57_121447)"/>
<mask id="mask0_57_121447" style="mask-type:alpha" maskUnits="userSpaceOnUse" x="0" y="1" width="432" height="189">
<path d="M9.67979e-05 12.6308C6.42359 12.6308 11.6309 7.4235 11.6309 1H150.646C150.646 7.4235 155.854 12.6308 162.277 12.6308C168.7 12.6308 173.908 7.4235 173.908 1H420.369C420.369 7.4235 425.576 12.6308 432 12.6308L432 25.9233C428.329 25.9233 425.354 28.6509 425.354 32.0156C425.354 35.3803 428.329 38.1079 432 38.1079V50.8461C428.329 50.8461 425.354 53.5737 425.354 56.9384C425.354 60.303 428.329 63.0307 432 63.0307V76.3231C428.329 76.3231 425.354 79.0507 425.354 82.4154C425.354 85.7801 428.329 88.5077 432 88.5077V101.8C428.329 101.8 425.354 104.528 425.354 107.892C425.354 111.257 428.329 113.985 432 113.985V126.723C428.329 126.723 425.354 129.575 425.354 133.093C425.354 136.61 428.329 139.462 432 139.462V152.2C428.329 152.2 425.354 154.928 425.354 158.292C425.354 161.657 428.329 164.385 432 164.385L432 177.677C425.576 177.677 420.369 182.884 420.369 189.308H173.908C173.908 182.884 168.7 177.677 162.277 177.677C155.854 177.677 150.646 182.884 150.646 189.308H11.6309C11.6309 182.884 6.42359 177.677 9.67979e-05 177.677L0 164.385C3.67057 164.385 6.64615 161.657 6.64615 158.292C6.64615 154.928 3.67057 152.2 0 152.2V139.462C3.67057 139.462 6.64615 136.61 6.64615 133.093C6.64615 129.575 3.67057 126.723 0 126.723V113.985C3.67057 113.985 6.64615 111.257 6.64615 107.892C6.64615 104.528 3.67057 101.8 0 101.8V88.5077C3.67057 88.5077 6.64615 85.7801 6.64615 82.4154C6.64615 79.0507 3.67057 76.3231 0 76.3231V63.0307C3.67057 63.0307 6.64615 60.303 6.64615 56.9384C6.64615 53.5737 3.67057 50.8461 0 50.8461V38.1079C3.67057 38.1079 6.64615 35.3803 6.64615 32.0156C6.64615 28.6509 3.67057 25.9233 0 25.9233L9.67979e-05 12.6308Z" fill="url(#paint1_linear_57_121447)"/>
</mask>
<g mask="url(#mask0_57_121447)">
<g style="mix-blend-mode:multiply" opacity="0.87">
<path fill-rule="evenodd" clip-rule="evenodd" d="M433.026 -93.2417C419.424 -87.4611 404.85 -83.6881 389.983 -85.24C379.654 -86.3189 369.906 -89.8991 360.457 -94.0527C343.913 -101.327 327.842 -108.995 309.487 -110.124C297.522 -110.857 285.889 -108.846 274.259 -106.259C255.811 -102.154 237.747 -96.4124 219.907 -90.2154C175.518 -74.7863 132.257 -56.2571 88.7374 -38.596C65.4314 -29.1345 42.052 -19.8075 18.3698 -11.3094C-4.11594 -3.2519 -26.9404 4.23202 -50.375 9.00892L-51.3989 4.16859C-27.5608 -0.686145 -4.31964 -8.22069 18.6093 -16.2744C43.0588 -24.8673 67.2188 -34.2618 91.3227 -43.7795C136.36 -61.5667 181.147 -80.186 226.993 -95.8182C245.17 -102.019 263.572 -107.795 282.338 -111.952C293.74 -114.484 305.182 -116.581 316.914 -115.851C334.016 -114.795 348.501 -107.362 363.551 -99.9142C372.044 -95.7084 380.848 -92.0862 390.317 -90.8927C404.623 -89.0871 418.809 -92.7781 432.003 -98.0749L433.027 -93.2345L433.026 -93.2417ZM492.606 188.431L9.20541 290.682L8.18155 285.841C87.1091 269.777 165.712 252.175 244.506 235.478C295.77 224.619 347.065 214.009 398.473 203.863C429.648 197.712 460.696 191.032 491.581 183.584L492.605 188.424L492.606 188.431ZM490.621 179.045C459.729 187.35 428.5 194.06 397.038 199.808C374.369 203.95 351.667 207.867 329.076 212.413C299.976 218.268 270.934 224.471 241.905 230.664C163.643 247.36 85.7337 265.791 7.22152 281.303L6.19767 276.462C83.8282 261.497 160.568 242.249 237.82 225.533C254.047 222.026 270.294 218.611 286.59 215.427C299.579 212.882 312.449 209.777 325.444 207.261C348.647 202.773 372.011 199.257 395.313 195.378C427.148 190.077 458.644 183.423 489.591 174.213L490.615 179.054L490.621 179.045ZM488.635 169.659L487.612 164.818C456.069 175.894 423.44 182.226 390.384 186.645C365.75 189.935 341.029 192.598 316.535 196.871C303.438 199.153 290.544 202.324 277.493 204.822C261.307 207.923 245.195 211.368 229.12 214.994C154.064 231.92 79.8747 252.91 4.21075 267.069L5.23459 271.909C82.0094 257.365 157.619 237.276 233.909 220.478C250.087 216.914 266.293 213.485 282.555 210.353C295.558 207.843 308.418 204.688 321.452 202.283C345.23 197.891 369.206 194.786 393.113 191.177C425.487 186.302 457.457 179.765 488.643 169.657L488.635 169.659ZM486.65 160.272C454.689 172.277 421.295 178.358 387.494 182.342C362.093 185.336 336.595 187.556 311.339 191.698C298.149 193.857 285.193 197.018 272.075 199.523C256.003 202.592 240.017 206.071 224.076 209.758C150.352 226.816 77.698 248.681 3.24767 262.516L2.22382 257.676C75.2171 244.149 146.059 221.339 218.181 204.08C233.933 200.313 249.754 196.801 265.658 193.752C278.876 191.227 291.931 188.105 305.254 186.075C331.399 182.097 357.806 180.346 384.103 177.687C418.76 174.175 453.118 168.431 485.616 155.419L486.64 160.26L486.65 160.272ZM484.665 150.886L483.641 146.046C449.78 161.086 412.995 165.993 376.351 168.583C348.194 170.569 319.93 171.371 291.907 174.98C278.066 176.76 264.553 179.768 250.879 182.443C235.887 185.374 220.995 188.847 206.203 192.651C137.308 210.345 70.2956 235.204 0.238411 248.289L1.26225 253.13C73.0448 239.799 142.257 215.946 213.027 198.47C228.071 194.755 243.189 191.325 258.404 188.384C271.932 185.763 285.293 182.674 298.952 180.745C325.929 176.937 353.168 175.647 380.291 173.316C415.951 170.253 451.477 164.891 484.656 150.88L484.665 150.886ZM482.679 141.5L481.655 136.66C446.323 153.714 406.725 157.619 368.032 159.283C337.707 160.588 307.272 160.416 277.057 163.588C248.286 166.605 219.659 173.351 191.841 181.156C126.946 199.362 64.6902 226.216 -1.74852 238.896L-0.724663 243.736C67.614 230.857 132.407 205.042 199.404 187.096C213.937 183.204 228.58 179.687 243.342 176.767C257.175 174.029 270.852 171.121 284.88 169.482C313.935 166.074 343.23 165.745 372.416 164.088C410.034 161.953 448.13 157.504 482.678 141.493L482.679 141.5ZM480.694 132.114C444.596 150.156 403.465 153.514 363.741 154.736C332.303 155.706 300.755 155.057 269.409 157.988C240.652 160.68 212.119 167.376 184.447 175.517C121.608 193.978 61.8815 221.835 -2.71159 234.343L-3.73543 229.502C30.0107 222.852 62.4711 211.754 94.5165 199.439C121.479 189.077 148.268 178.181 175.87 169.603C203.492 161.015 232.033 154.355 260.903 151.985C293.65 149.297 326.568 150.467 359.377 149.844C400.11 149.069 442.819 146.292 479.667 127.259L480.691 132.099L480.694 132.114ZM478.708 122.727C441.043 142.752 396.646 144.925 354.85 145.28C320.852 145.561 286.751 143.906 252.802 146.338C223.934 148.4 195.54 154.931 168.07 163.923C141.604 172.59 116.088 183.764 90.3722 194.381C59.491 207.095 28.1318 218.365 -4.697 224.957L-5.72084 220.116C26.1173 213.592 56.2918 202.145 85.8882 188.922C110.257 178.035 134.388 166.553 159.635 157.792C186.935 148.318 215.164 141.995 244.038 140.246C279.293 138.108 314.664 140.275 349.948 140.36C392.874 140.456 439.127 138.94 477.682 117.873L478.705 122.713L478.708 122.727ZM476.723 113.341C437.336 135.403 389.276 136.28 345.286 135.764C308.776 135.338 272.201 132.691 235.695 134.553C206.815 136.025 178.739 142.114 151.607 152.062C127.509 160.903 104.71 172.689 81.6241 183.829C53.263 197.503 24.2369 209.098 -6.6824 215.57L-7.70625 210.73C22.366 204.294 50.2546 192.498 77.3542 178.212C98.9824 166.81 120.29 154.778 143.114 145.876C169.979 135.406 197.83 129.635 226.627 128.443C264.634 126.871 302.688 130.061 340.674 130.835C363.667 131.306 386.773 131.107 409.628 128.344C432.586 125.566 455.486 120.069 475.686 108.474L476.71 113.314L476.723 113.341ZM474.738 103.955L473.714 99.1147C452.844 111.655 428.718 117.133 404.737 119.752C380.286 122.418 355.584 122.234 331.04 121.341C290.491 119.864 249.928 115.697 209.324 116.655C193.38 117.034 177.334 118.245 161.807 122.047C149.709 125.011 137.862 128.987 126.457 134.018C105.894 143.087 87.3995 155.725 68.4667 167.675C44.0784 183.045 18.5818 195.018 -9.69166 201.344L-8.66781 206.184C20.5086 199.803 47.2364 187.907 73.0394 173.093C93.3597 161.427 113.307 149.097 135.027 140.113C146.839 135.229 159.031 131.292 171.467 128.332C186.802 124.683 202.496 123.231 218.225 122.718C257.494 121.441 296.767 125.109 336.003 126.226C359.751 126.904 383.632 126.895 407.262 124.177C430.717 121.482 454.21 115.988 474.742 103.939L474.738 103.955ZM472.752 94.5688L471.728 89.7285C450.301 103.182 425.053 108.635 400.167 111.123C373.885 113.748 347.35 113.156 321.01 111.818C278.381 109.656 235.777 104.63 193.054 104.896C176.714 104.998 159.933 105.674 144.03 109.721C132.375 112.689 120.998 116.754 110.236 122.136C91.6835 131.417 75.9611 144.684 59.625 157.248C50.5375 164.235 41.1359 170.8 31.0311 176.239C17.5764 183.459 3.16495 188.496 -11.6786 191.95L-10.6547 196.791C4.58134 193.313 19.3858 188.291 33.3723 181.281C44.0908 175.907 54.2089 169.468 64.0579 162.643C81.7742 150.365 98.966 137.38 118.582 128.196C129.756 122.959 141.455 118.924 153.425 115.957C169.148 112.053 185.564 111.139 201.704 110.906C243.144 110.319 284.498 114.859 325.863 116.681C351.415 117.804 377.143 118.199 402.613 115.527C427.005 112.971 451.635 107.499 472.753 94.5386L472.752 94.5688ZM470.767 85.1826L469.743 80.3423C447.867 94.7231 421.551 100.162 395.839 102.54C367.766 105.132 339.429 104.14 311.339 102.362C266.216 99.504 221.145 93.5219 175.893 93.2801C159.318 93.1923 142.074 93.5235 125.974 97.8444C114.955 100.805 104.23 104.942 94.3174 110.618C77.734 120.098 64.892 133.866 51.2074 146.912C43.5877 154.173 35.5224 160.958 26.5497 166.503C14.1485 174.13 0.456417 179.165 -13.664 182.564L-12.6401 187.405C1.8626 183.969 15.9185 178.918 28.8599 171.469C38.4043 165.968 47.1585 159.285 55.5321 152.149C70.5975 139.321 84.9372 125.792 102.542 116.426C112.928 110.898 124.022 106.803 135.395 103.85C151.465 99.6701 168.576 99.2093 185.092 99.2272C229.002 99.2577 272.751 104.732 316.544 107.225C343.609 108.763 370.887 109.536 397.912 106.948C423.246 104.523 449.066 99.0764 470.755 85.1626L470.767 85.1826ZM468.781 75.7964L467.758 70.9561C445.52 86.3213 418.125 91.7634 391.632 94.0285C362.135 96.554 332.38 95.2025 302.902 93.0345C255.568 89.5418 208.337 82.6734 160.831 81.8429C143.972 81.5452 126.159 81.494 109.793 86.0438C99.2541 88.9707 89.0071 93.134 79.8089 99.1011C64.8194 108.814 54.7161 123.016 43.5046 136.551C37.2677 144.076 30.4495 151.085 22.4639 156.758C11.0274 164.834 -2.12403 169.837 -15.6494 173.178L-14.6255 178.018C-0.807014 174.645 12.6032 169.625 24.5168 161.748C32.9967 156.143 40.4463 149.248 47.3782 141.854C59.8485 128.563 71.3471 114.576 87.1192 104.983C96.6803 99.1713 107.153 95.0127 117.928 92.0659C134.16 87.627 151.7 87.4883 168.417 87.6811C214.787 88.2116 260.926 94.6284 307.15 97.8007C335.926 99.7719 364.968 100.944 393.745 98.3833C419.85 96.0577 446.708 90.6243 468.775 75.7677L468.781 75.7964ZM466.796 66.4102L465.772 61.5699C443.13 78.1387 414.398 83.5408 386.979 85.6792C356.667 88.0394 326.109 86.4001 295.858 83.9081C246.605 79.8533 197.5 72.1733 148.058 70.6947C120.175 69.8625 90.2892 70.7294 66.8263 87.7794C53.1459 97.7258 45.5853 112.215 36.6976 126.137C31.7015 133.961 25.9688 141.281 18.7047 147.139C8.16179 155.612 -4.60922 160.534 -17.6363 163.785L-16.6125 168.625C-3.36136 165.334 9.56603 160.372 20.5383 152.086C28.2076 146.3 34.5169 139.083 40.1646 131.361C50.2042 117.638 59.0458 103.32 73.3422 93.5213C82.3667 87.3359 92.5949 83.1541 103.099 80.2419C119.609 75.6618 137.795 75.9565 154.786 76.3766C203.222 77.5654 251.353 84.8213 299.612 88.576C329.254 90.8818 359.171 92.364 388.849 89.9805C415.952 87.8038 444.197 82.407 466.781 66.3758L466.796 66.4102ZM464.811 57.024C442.249 74.0483 413.188 79.4827 385.608 81.61C354.833 83.9781 323.82 82.21 293.119 79.5731C242.759 75.2497 192.583 67.1136 142.026 65.3981C114.481 64.4643 84.1363 64.8957 61.2005 82.382C47.9378 92.4951 41.5223 107.222 33.604 121.367C29.2603 129.121 24.1344 136.402 17.3796 142.258C7.15412 151.061 -5.62821 156 -18.5994 159.231L-19.6232 154.391C-6.83259 151.228 5.88143 146.355 15.7304 137.332C22.2564 131.352 26.937 123.88 30.7508 115.96C37.6175 101.701 42.9197 86.8865 55.7123 76.6778C78.0998 58.7973 108.972 58.7647 136.149 59.8061C187.388 61.7675 238.21 70.2623 289.236 74.8649C320.77 77.7157 352.657 79.6817 384.283 77.261C412 75.1423 441.359 69.66 463.769 52.1349L464.793 56.9752L464.811 57.024ZM462.825 47.6377C440.556 65.6882 410.859 71.2045 382.992 73.3176C350.902 75.7462 318.551 73.6385 286.58 70.6398C234.842 65.7902 183.321 56.9332 131.358 54.7421C104.477 53.6082 72.9938 53.3049 51.0435 71.5505C38.5949 81.8966 34.2797 96.8396 28.2761 111.209C24.9465 119.184 20.6884 126.74 14.4148 132.778C4.83348 141.933 -7.89573 146.734 -20.5848 149.845L-21.6086 145.005C-9.00791 141.972 3.77127 137.266 13.1071 127.908C19.1631 121.833 23.0263 114.218 25.9097 106.225C31.1404 91.7115 34.4877 76.553 46.7287 66.0408C68.2148 47.5858 100.208 48.1412 126.731 49.351C179.612 51.7681 232.005 61.0633 284.657 66.1549C316.946 69.2811 349.643 71.4958 382.062 69.0276C409.949 66.9027 439.848 61.3137 461.799 42.7528L462.823 47.5931L462.825 47.6377ZM460.84 38.2515C439.261 57.2964 409.246 62.9774 381.401 65.1234C348.319 67.6795 314.931 65.2808 281.981 61.979C228.998 56.6651 176.266 47.0813 123.032 44.4838C96.7575 43.2065 64.1091 42.497 43.0397 61.2916C31.1038 71.9343 28.592 87.1787 24.0375 101.7C21.5643 109.576 18.0974 117.114 12.3577 123.16C3.16156 132.788 -9.88554 137.468 -22.5717 140.452L-23.5956 135.612C-10.8999 132.709 2.33856 128.153 11.4234 118.353C17.126 112.202 20.3438 104.514 22.4976 96.5108C26.4244 81.965 28.2855 66.6933 40.0857 56.0117C47.7009 49.1189 57.5734 45.1699 67.3759 42.5563C84.6296 37.9463 103.09 38.4382 120.77 39.3878C174.401 42.2689 227.487 52.1453 280.875 57.6362C314.004 61.0426 347.613 63.5296 380.891 60.9023C408.645 58.7155 438.727 52.9301 459.805 33.3609L460.829 38.2012L460.84 38.2515ZM458.854 28.8653C438.054 49.216 407.437 55.0245 379.456 57.1692C346.467 59.7055 313.158 57.185 280.328 53.738C226.378 48.0732 172.74 37.8185 118.535 34.781C101.12 33.8055 83.1648 33.4319 66.1296 37.763C56.0674 40.319 45.8502 44.1984 38.0471 51.2659C26.1857 62.013 24.9037 77.4699 21.3809 92.1177C19.4515 100.119 16.4197 107.835 10.7745 113.974C1.67158 123.83 -11.8058 128.248 -24.5571 131.066L-25.581 126.225C-12.8927 123.429 0.397209 118.975 9.44881 109.16C15.134 102.998 18.2678 95.2672 20.3351 87.2446C24.108 72.5738 25.6813 57.0403 37.5811 46.2626C45.3273 39.2446 55.4379 35.3578 65.4355 32.8154C82.5337 28.4634 100.569 28.7901 118.055 29.7432C172.089 32.689 225.563 42.9413 279.337 48.6281C312.049 52.0851 345.233 54.617 378.105 52.128C406.194 49.998 436.759 44.1555 457.821 23.9819L458.845 28.8222L458.854 28.8653ZM456.869 19.4791C435.499 38.9075 405.531 44.8111 377.604 46.9595C344.563 49.4993 311.213 46.9274 278.334 43.4233C225.311 37.7801 172.567 27.7487 119.273 24.9762C101.463 24.0468 82.9874 23.7308 65.6067 28.3075C55.8771 30.8757 46.1455 34.8174 38.5812 41.6319C26.6194 52.4002 24.2186 67.9211 19.814 82.583C17.3889 90.6513 13.9722 98.4266 8.1495 104.648C-0.928766 114.266 -13.9136 118.851 -26.5425 121.679L-27.5664 116.839C-14.9092 113.967 -2.16478 109.238 7.03675 99.7061C13.0094 93.5209 16.8155 85.8132 19.6944 77.799C25.0072 63.0351 28.3815 47.3307 40.6663 36.4941C61.7665 17.8806 94.4631 18.3923 120.71 19.6454C173.392 22.1496 225.538 32.0825 277.923 37.7254C310.443 41.2306 343.413 43.8152 376.109 41.416C404.152 39.3556 433.974 33.5054 455.834 14.5885L456.858 19.4288L456.869 19.4791ZM454.884 10.0929L453.86 5.25252C431.415 23.1451 402.129 28.8671 374.132 30.7225C342.801 32.803 311.26 30.2388 280.123 26.7861C229.583 21.1805 179.249 11.5173 128.38 9.25232C101.424 8.05156 69.9745 8.15391 47.9007 26.1705L47.741 26.3019C49.6681 24.2811 51.6069 22.2804 53.5805 20.3024C76.0583 3.41574 106.317 2.89742 133.236 4.06117C183.061 6.21659 232.353 15.7703 281.844 21.3802C312.306 24.833 343.16 27.4077 373.82 25.454C401.573 23.6876 430.398 18.0182 452.902 0.690762L451.878 -4.14957C429.355 12.6267 400.977 18.2092 373.475 19.8548C343.899 21.6167 314.163 19.0758 284.791 15.6701C236.369 10.0514 188.148 0.556471 139.373 -1.5212C112.126 -2.68278 82.5872 -1.66418 59.5897 14.6796C61.2521 13.1801 62.9248 11.6934 64.6178 10.2323C88.2913 -6.38954 117.692 -8.02427 145.723 -6.84822C193.241 -4.85758 240.2 4.55183 287.337 10.1947C315.902 13.6136 344.827 16.1834 373.608 14.5598C400.727 13.0249 428.521 7.51366 450.918 -8.68828L449.895 -13.5286C427.655 2.10726 400.433 7.52017 373.717 8.90954C345.755 10.3601 317.679 7.73051 289.953 4.26934C244.475 -1.40173 199.17 -10.6507 153.3 -12.5702C136.338 -13.2814 118.591 -13.2412 102.07 -8.85381C91.1437 -5.95 80.6851 -1.40438 71.301 4.9247C70.6712 5.35052 70.043 5.78353 69.4234 6.2222C70.6854 5.20497 71.9505 4.2021 73.2258 3.21207C74.9485 1.96234 76.7106 0.756802 78.5208 -0.398869C88.3284 -6.675 99.0912 -11.3074 110.342 -14.2724C126.663 -18.5727 144.111 -18.7219 160.868 -18.0199C205.315 -16.1598 249.178 -6.99576 293.21 -1.28152C320.019 2.20121 347.165 4.86975 374.229 3.56439C400.438 2.29717 426.978 -3.03921 448.937 -18.0904L447.913 -22.9307C426.535 -8.64745 401.061 -3.3717 375.716 -2.1672C349.249 -0.912993 322.716 -3.69621 296.525 -7.27207C254.049 -13.0681 211.706 -22.1782 168.767 -23.8922C152.273 -24.5524 135.249 -24.2078 119.203 -19.9508C107.729 -16.9086 96.7646 -12.2034 86.616 -6.05017C82.6686 -3.65463 78.876 -1.05922 75.2044 1.68314C81.4363 -3.06384 87.896 -7.51389 94.7326 -11.4584C105.346 -17.5749 116.706 -22.3636 128.563 -25.472C144.378 -29.6199 161.047 -30.0773 177.299 -29.4259C218.675 -27.7639 259.437 -18.7243 300.327 -12.8706C325.497 -9.2663 351.012 -6.44028 376.477 -7.53525C401.23 -8.59939 425.966 -13.7792 446.95 -27.4838L445.926 -32.3241C404.5 -5.89989 351.302 -11.8061 305.124 -18.7623C266.096 -24.6421 227.212 -33.5612 187.671 -35.3037C171.603 -36.0089 155.165 -35.518 139.515 -31.5173C127.157 -28.3632 115.29 -23.5272 104.095 -17.4302C81.481 -5.12156 62.045 11.8944 41.9401 27.769C18.0309 46.609 -7.41255 63.0875 -37.4965 69.8937L-36.4726 74.734C-7.68822 68.1652 16.0888 52.1742 38.1297 33.1517C42.2511 29.5939 46.3302 25.9775 50.4267 22.3725C48.3391 24.4497 46.3721 26.6364 44.5023 28.8926C45.3735 28.0481 46.2446 27.2036 47.1229 26.3576C48.0521 25.2907 48.9914 24.2367 49.9496 23.2012C47.4019 25.4432 45.085 27.854 42.9408 30.4084C40.276 32.9828 37.6112 35.5572 34.9301 38.09C25.8247 46.6936 16.3369 54.9428 5.83503 61.801C-6.85116 70.0665 -20.7717 75.8996 -35.511 79.2799L-34.4872 84.1202C-20.2533 80.8318 -6.81433 75.1681 5.22229 66.8449C15.06 60.0372 23.7316 51.758 31.9574 43.108C33.9698 40.9942 35.9632 38.8619 37.948 36.7239C36.841 38.2261 35.7965 39.775 34.8041 41.3579C32.9512 43.588 31.0897 45.8125 29.2078 48.0112C21.8692 56.6012 14.017 64.8195 4.87742 71.5246C-6.60708 79.941 -19.6865 85.4612 -33.5241 88.6733L-32.5003 93.5136C-18.8995 90.3516 -6.01497 84.9027 4.99317 76.2194C13.2715 69.6965 20.1577 61.6975 26.4987 53.3185C28.5264 50.6388 30.5177 47.9292 32.5003 45.214C31.9543 46.1773 31.4184 47.1535 30.8927 48.1425C32.3665 45.8575 33.8433 43.5869 35.3477 41.3405C36.9848 39.1185 38.6321 36.9094 40.3157 34.73C39.7311 35.3339 39.1725 35.9547 38.6299 36.5797C38.3522 36.9686 38.0745 37.3574 37.8055 37.7519C38.6916 36.6942 39.5704 35.638 40.4565 34.5802C41.5276 33.4758 42.6596 32.4111 43.8612 31.3916C65.4144 13.1475 97.4291 13.4133 123.955 14.6374C176.034 17.0216 227.573 26.8876 279.344 32.4956C311.024 35.9307 343.128 38.4586 374.989 36.2283C403.06 34.2598 432.661 28.471 454.866 10.0441L454.884 10.0929ZM35.9651 39.9344L35.8037 40.1636L35.8874 40.0634L35.9723 39.9329L35.9651 39.9344ZM32.543 45.1675L33.5903 43.738C32.2793 45.906 31.0189 48.1008 29.7702 50.3157C26.1595 57.5994 23.4107 65.4135 20.2204 72.9834C16.7482 81.2057 12.4088 89.0862 5.97984 95.3829C-3.4325 104.592 -15.907 109.391 -28.5295 112.286L-29.5533 107.446C-16.7647 104.486 -4.30923 99.525 5.40817 90.447C12.2247 84.0682 17.1448 76.1324 21.2664 67.8253C24.133 62.057 26.7677 56.1502 29.6854 50.4462C27.325 54.6368 25.0372 58.8872 22.6348 63.0567C17.8202 71.4203 12.2949 79.4016 5.04164 85.8427C-5.02277 94.7691 -17.5283 99.8828 -30.5149 102.9L-31.5387 98.0595C-18.2466 94.9628 -5.58328 89.6732 4.95582 80.864C12.658 74.418 18.837 66.4785 24.3801 58.1558C26.5609 54.8885 28.6721 51.5759 30.8064 48.2658C31.3573 47.219 31.9327 46.1819 32.5343 45.1618L32.543 45.1675ZM53.1992 20.5556C52.9867 20.7206 52.7654 20.8799 52.5544 21.0521C52.4574 21.1252 52.3619 21.2054 52.2648 21.2784C51.7429 21.824 51.2281 22.3681 50.7133 22.9121C51.5361 22.1228 52.3677 21.3392 53.192 20.5571L53.1992 20.5556ZM57.654 16.057C58.7057 15.1442 59.7589 14.2387 60.8136 13.3403C60.1357 13.9639 59.4578 14.5875 58.7814 15.2183C58.593 15.3557 58.4046 15.493 58.2162 15.6304C58.0278 15.7678 57.8409 15.9124 57.654 16.057ZM444.957 -36.9059L443.933 -41.7462C404.854 -17.9117 356.916 -23.1225 313.859 -30.431C278.338 -36.4601 242.968 -45.252 206.864 -46.9113C191.41 -47.6189 175.805 -46.8765 160.755 -43.1228C147.484 -39.8205 134.691 -34.8261 122.445 -28.7694C67.0353 -1.34569 22.4499 46.7622 -39.4819 60.5075L-38.458 65.3478C-7.13768 58.3251 19.8859 41.4823 45.4929 22.7634C67.392 6.75694 88.6929 -10.3759 112.859 -22.9305C124.554 -29.0056 136.862 -33.9198 149.655 -37.1435C165.023 -41.0245 181.059 -41.6405 196.837 -40.9264C234.727 -39.2248 271.925 -30.3694 309.274 -24.4193C353.978 -17.3016 404.624 -11.7332 444.944 -36.8957L444.957 -36.9059ZM442.972 -46.2921L441.948 -51.1324C405.556 -29.9445 363.038 -34.3437 323.415 -42.0108C291.194 -48.2502 259.13 -57.0438 226.197 -58.5635C211.355 -59.2505 196.606 -58.149 182.164 -54.6064C168.1 -51.1514 154.483 -46.0429 141.314 -40.0611C79.4851 -11.9696 26.0812 36.4205 -41.4688 51.1141L-40.4449 55.9544C24.1222 41.7642 73.0227 -6.46862 131.463 -34.2034C144.077 -40.1877 157.183 -45.2259 170.746 -48.6049C185.512 -52.2835 200.688 -53.2428 215.859 -52.5652C250.62 -51.0122 284.581 -42.1473 318.687 -35.9991C360.027 -28.5523 405.23 -23.7909 442.949 -46.2948L442.972 -46.2921ZM440.986 -55.6784L439.963 -60.5187C422.805 -51.0223 403.852 -46.578 384.284 -46.6331C366.735 -46.68 349.35 -49.8901 332.285 -53.7458C303.881 -60.1623 275.634 -68.7429 246.374 -70.1991C216.357 -71.6903 187.682 -62.9014 160.287 -51.3596C127.446 -37.5253 96.4266 -19.7922 65.0044 -3.07692C30.5397 15.2423 -5.01169 33.5288 -43.4542 41.7278L-42.4303 46.5682C-5.35955 38.5843 28.579 20.4363 61.369 1.99867C90.7273 -14.5127 119.674 -32.0474 150.588 -45.564C164.281 -51.5516 178.386 -56.7259 192.922 -60.2508C207.052 -63.6749 221.409 -64.8959 235.936 -64.2098C267.144 -62.723 297.416 -54.0005 327.856 -47.6697C345.833 -43.9319 364.107 -40.8495 382.519 -40.9028C403.061 -40.9563 423.04 -45.4823 440.97 -55.6825L440.986 -55.6784ZM439.001 -65.0646L437.977 -69.9049C421.967 -61.544 404.522 -57.3063 386.448 -57.7448C371.103 -58.1152 356.024 -61.4456 341.248 -65.3955C316.45 -72.0271 291.856 -80.4273 266.019 -81.7973C236.002 -83.3935 206.578 -73.5383 179.001 -62.6783C142.635 -48.3534 107.837 -30.3688 72.6896 -13.3608C34.816 4.93674 -4.03988 23.6596 -45.4411 32.3344L-44.4173 37.1748C-4.53281 28.7383 32.6378 10.2368 68.7601 -8.08041C102.005 -24.9337 134.872 -42.7949 169.433 -56.8655C196.931 -68.0615 225.95 -77.3883 255.977 -75.8468C283.556 -74.4326 310.023 -65.9333 336.672 -59.4156C352.622 -55.5117 368.879 -52.2503 385.353 -52.0362C404.188 -51.796 422.398 -56.1357 438.991 -65.0774L439.001 -65.0646ZM437.016 -74.4508L435.992 -79.2911C421.021 -72.0054 404.898 -67.9722 388.196 -68.836C374.921 -69.5243 362.037 -73.004 349.443 -77.0626C328.221 -83.9104 307.263 -92.0295 284.768 -93.3035C271.783 -94.0381 259.183 -92.2432 246.555 -89.3395C229.828 -85.5012 213.483 -80.1008 197.4 -74.1404C157.522 -59.3653 119.026 -41.1013 80.2296 -23.764C39.0489 -5.39714 -3.05524 13.7802 -47.4265 22.9482L-46.4027 27.7885C-3.48053 18.8596 37.0357 -0.131998 76.5717 -18.5111C113.548 -35.696 150.209 -53.8421 188.347 -68.3764C215.845 -78.8598 245.454 -89.0467 275.294 -87.3981C299.414 -86.0627 322.183 -77.8239 345.163 -71.1004C358.887 -67.0857 372.904 -63.6732 387.251 -63.1291C404.673 -62.4776 421.48 -66.6104 436.992 -74.4534L437.016 -74.4508ZM435.03 -83.837L434.006 -88.6773C420.016 -82.4317 405.024 -78.5779 389.624 -79.8821C378.308 -80.8423 367.509 -84.4254 357.01 -88.5818C339.038 -95.697 321.436 -103.513 301.858 -104.676C289.434 -105.417 277.382 -103.408 265.309 -100.682C247.806 -96.7169 230.656 -91.2285 213.742 -85.2575C170.657 -70.0442 128.79 -51.5547 86.6454 -33.9519C63.8537 -24.4341 40.9957 -15.0524 17.8013 -6.5524C-4.16529 1.47782 -26.4771 8.86831 -49.4119 13.562L-48.3881 18.4023C-2.70555 9.01699 40.8183 -10.3256 83.439 -28.7269C123.895 -46.1976 164.055 -64.5662 205.521 -79.5645C222.023 -85.531 238.771 -90.9718 255.888 -94.8777C268.235 -97.6919 280.565 -99.5947 293.26 -98.8512C314.297 -97.6288 333.608 -89.6415 353.221 -82.671C364.782 -78.5665 376.635 -75.0338 388.935 -74.2067C404.991 -73.1314 420.533 -77.0791 435.013 -83.8483L435.03 -83.837Z" fill="#F15D22" fill-opacity="0.4"/>
</g>
</g>
<line x1="163.169" y1="20.0229" x2="163.169" y2="169.992" stroke="white" stroke-width="4" stroke-linecap="round" stroke-dasharray="14 14"/>
<path d="M29.5474 40.0508H41.989C45.0019 40.0508 47.8553 40.3875 50.5492 41.061C53.2786 41.7345 55.6535 42.8333 57.6739 44.3575C59.6943 45.8462 61.2894 47.7958 62.4591 50.2061C63.6643 52.6164 64.2669 55.5408 64.2669 58.979C64.2669 62.0274 63.682 64.7213 62.5123 67.0608C61.378 69.3648 59.8361 71.3143 57.8866 72.9094C55.937 74.469 53.6862 75.6564 51.1341 76.4717C48.5819 77.287 45.9058 77.6946 43.1055 77.6946H29.5474V40.0508ZM37.8418 70.0382H42.1485C44.0626 70.0382 45.8349 69.8433 47.4654 69.4534C49.1314 69.0635 50.5669 68.4254 51.7721 67.5393C52.9773 66.6177 53.9166 65.4302 54.5901 63.9769C55.299 62.4882 55.6535 60.6804 55.6535 58.5537C55.6535 56.7105 55.299 55.1154 54.5901 53.7684C53.9166 52.386 52.995 51.2518 51.8253 50.3656C50.6555 49.4795 49.2731 48.8237 47.6781 48.3984C46.1184 47.9376 44.4702 47.7072 42.7333 47.7072H37.8418V70.0382Z" fill="white"/>
<path d="M82.28 40.0508H89.1389L105.515 77.6946H96.1572L92.9139 69.7192H78.2923L75.1553 77.6946H66.0102L82.28 40.0508ZM85.4702 51.0036L80.8976 62.7009H90.0959L85.4702 51.0036Z" fill="white"/>
<path d="M114.606 61.6375L100.463 40.0508H110.778L118.754 54.1406L127.208 40.0508H137.044L122.901 61.6375V77.6946H114.606V61.6375Z" fill="white"/>
<path d="M67.7341 141.795L82.3556 128.662C83.1 127.988 83.8444 127.226 84.5887 126.375C85.3331 125.525 85.7053 124.532 85.7053 123.398C85.7053 122.122 85.2445 121.129 84.3229 120.421C83.4013 119.676 82.3202 119.304 81.0796 119.304C79.5908 119.304 78.4211 119.765 77.5704 120.686C76.7551 121.608 76.2943 122.742 76.188 124.089L68.2126 123.504C68.3189 121.555 68.7266 119.871 69.4355 118.453C70.1444 117 71.0837 115.795 72.2535 114.838C73.4232 113.881 74.7879 113.172 76.3475 112.711C77.9426 112.215 79.6617 111.967 81.5049 111.967C83.2063 111.967 84.8014 112.215 86.2901 112.711C87.7789 113.172 89.0727 113.881 90.1715 114.838C91.2703 115.759 92.121 116.929 92.7236 118.347C93.3617 119.765 93.6807 121.413 93.6807 123.292C93.6807 124.497 93.5566 125.596 93.3085 126.588C93.0604 127.545 92.7059 128.431 92.2451 129.247C91.8197 130.026 91.3058 130.753 90.7032 131.427C90.1006 132.1 89.4449 132.756 88.7359 133.394L77.3045 143.23H93.9997V150.248H67.7341V141.795Z" fill="white"/>
<path fill-rule="evenodd" clip-rule="evenodd" d="M260.469 127.603C244.649 76.8711 208.978 88.0589 196.538 106.315C199.976 79.9219 255.199 72.2346 260.469 127.603Z" fill="white"/>
<path fill-rule="evenodd" clip-rule="evenodd" d="M260.469 127.602C257.578 72.8718 213.064 73.5245 191.815 90.4511C208.572 61.2006 269.8 75.1151 260.469 127.602Z" fill="white"/>
<path fill-rule="evenodd" clip-rule="evenodd" d="M260.469 127.602C270.704 81.3526 236.266 61.1672 192.801 73.936C233.979 50.2116 281.66 82.7982 260.469 127.602Z" fill="white"/>
<path fill-rule="evenodd" clip-rule="evenodd" d="M260.469 127.602C209.979 111.019 221.708 75.5218 240.148 63.3574C213.702 66.3937 205.183 121.496 260.469 127.602Z" fill="white"/>
<path fill-rule="evenodd" clip-rule="evenodd" d="M260.469 127.603C205.787 123.885 207.112 79.3853 224.362 58.3975C194.86 74.7101 207.852 136.141 260.469 127.603Z" fill="white"/>
<path fill-rule="evenodd" clip-rule="evenodd" d="M260.469 127.602C214.069 137.137 194.406 102.399 207.832 59.1318C183.489 99.9424 215.35 148.116 260.469 127.602Z" fill="white"/>
<path fill-rule="evenodd" clip-rule="evenodd" d="M241.047 104.207C243.74 103.487 246.511 105.082 247.231 107.78C247.951 110.473 246.356 113.243 243.658 113.964C240.965 114.684 238.195 113.089 237.474 110.391C236.754 107.698 238.35 104.927 241.047 104.207Z" fill="white"/>
<path fill-rule="evenodd" clip-rule="evenodd" d="M385.565 122.028L391.985 107.63H395.273L401.713 122.028H398.217L393.605 110.903L388.978 122.028H385.565Z" fill="white"/>
<path d="M384.042 107.63H380.71V122.033H384.042V107.63Z" fill="white"/>
<path fill-rule="evenodd" clip-rule="evenodd" d="M372.317 122.275C371.167 122.275 370.059 122.12 369.005 121.811C367.951 121.501 367.101 121.1 366.453 120.607L367.584 118.098C368.203 118.538 368.933 118.895 369.774 119.181C370.615 119.461 371.471 119.601 372.337 119.601C372.994 119.601 373.526 119.534 373.932 119.408C374.338 119.277 374.633 119.094 374.827 118.862C375.02 118.629 375.117 118.364 375.117 118.059C375.117 117.677 374.967 117.368 374.662 117.145C374.362 116.918 373.961 116.734 373.468 116.589C372.975 116.444 372.428 116.309 371.834 116.178C371.239 116.048 370.64 115.888 370.045 115.695C369.45 115.501 368.904 115.255 368.411 114.955C367.918 114.655 367.516 114.254 367.207 113.761C366.897 113.268 366.743 112.634 366.743 111.866C366.743 111.044 366.965 110.289 367.41 109.613C367.855 108.936 368.527 108.389 369.426 107.988C370.325 107.582 371.452 107.379 372.81 107.379C373.715 107.379 374.609 107.485 375.484 107.698C376.364 107.911 377.138 108.23 377.81 108.655L376.78 111.184C376.108 110.802 375.436 110.517 374.764 110.328C374.092 110.144 373.434 110.053 372.791 110.053C372.148 110.053 371.616 110.13 371.205 110.28C370.794 110.43 370.499 110.628 370.32 110.865C370.142 111.107 370.055 111.382 370.055 111.696C370.055 112.069 370.204 112.364 370.509 112.591C370.809 112.818 371.21 112.997 371.703 113.137C372.196 113.273 372.743 113.413 373.337 113.548C373.932 113.683 374.532 113.843 375.126 114.022C375.721 114.201 376.267 114.438 376.76 114.742C377.254 115.042 377.655 115.443 377.964 115.936C378.274 116.43 378.428 117.053 378.428 117.808C378.428 118.615 378.201 119.355 377.752 120.027C377.297 120.699 376.625 121.24 375.726 121.651C374.827 122.062 373.69 122.27 372.322 122.27L372.317 122.275Z" fill="white"/>
<path fill-rule="evenodd" clip-rule="evenodd" d="M357.093 119.354H364.93V122.028H353.781V107.63H364.664V110.304H357.093V113.432H363.779V116.023H357.093V119.354Z" fill="white"/>
<path fill-rule="evenodd" clip-rule="evenodd" d="M337.158 122.028V107.63H339.914L347.075 116.366V107.63H350.367V122.028H347.631L340.451 113.291V122.028H337.158Z" fill="white"/>
<path fill-rule="evenodd" clip-rule="evenodd" d="M326.788 122.274C325.652 122.274 324.598 122.09 323.631 121.718C322.664 121.346 321.828 120.828 321.122 120.156C320.416 119.484 319.865 118.696 319.478 117.792C319.086 116.888 318.893 115.902 318.893 114.828C318.893 113.755 319.086 112.774 319.478 111.865C319.869 110.961 320.421 110.172 321.131 109.5C321.847 108.828 322.683 108.306 323.641 107.939C324.603 107.567 325.642 107.383 326.769 107.383C327.895 107.383 328.954 107.567 329.907 107.939C330.859 108.311 331.691 108.828 332.396 109.5C333.102 110.172 333.653 110.956 334.055 111.855C334.451 112.754 334.649 113.745 334.649 114.828C334.649 115.911 334.451 116.888 334.055 117.802C333.658 118.716 333.107 119.504 332.396 120.166C331.691 120.833 330.859 121.351 329.907 121.718C328.954 122.09 327.915 122.274 326.788 122.274ZM326.769 119.436C327.412 119.436 328.006 119.325 328.548 119.107C329.089 118.89 329.568 118.571 329.979 118.16C330.39 117.749 330.709 117.26 330.936 116.699C331.164 116.139 331.275 115.515 331.275 114.828C331.275 114.142 331.164 113.518 330.936 112.957C330.709 112.397 330.395 111.908 329.989 111.497C329.583 111.086 329.109 110.772 328.558 110.55C328.011 110.332 327.412 110.221 326.769 110.221C326.126 110.221 325.531 110.332 324.99 110.55C324.448 110.767 323.969 111.086 323.558 111.497C323.147 111.908 322.828 112.397 322.601 112.957C322.374 113.518 322.263 114.142 322.263 114.828C322.263 115.515 322.374 116.119 322.601 116.69C322.828 117.26 323.143 117.749 323.549 118.16C323.955 118.571 324.429 118.885 324.98 119.107C325.526 119.325 326.126 119.436 326.769 119.436Z" fill="white"/>
<path fill-rule="evenodd" clip-rule="evenodd" d="M302.802 122.028V107.625H309.344C310.906 107.625 312.284 107.925 313.478 108.519C314.672 109.114 315.605 109.951 316.277 111.019C316.949 112.088 317.288 113.359 317.288 114.824C317.288 116.289 316.954 117.541 316.277 118.619C315.605 119.698 314.672 120.534 313.478 121.129C312.284 121.723 310.906 122.023 309.344 122.023H302.802V122.028ZM306.134 119.291H309.18C310.142 119.291 310.973 119.108 311.679 118.745C312.385 118.382 312.936 117.865 313.323 117.193C313.715 116.521 313.908 115.733 313.908 114.829C313.908 113.925 313.715 113.117 313.323 112.45C312.931 111.783 312.385 111.27 311.679 110.908C310.973 110.545 310.142 110.362 309.18 110.362H306.134V119.291Z" fill="white"/>
<path fill-rule="evenodd" clip-rule="evenodd" d="M286.18 122.028V107.63H288.936L296.096 116.366V107.63H299.384V122.028H296.652L289.473 113.291V122.028H286.18Z" fill="white"/>
<path d="M282.762 107.63H279.431V122.033H282.762V107.63Z" fill="white"/>
<path fill-rule="evenodd" clip-rule="evenodd" d="M408.216 102.63V90.9447H403.608V88.2275H416.154V90.9447H411.547V102.63H408.216Z" fill="white"/>
<path d="M401.815 88.2275H398.483V102.63H401.815V88.2275Z" fill="white"/>
<path fill-rule="evenodd" clip-rule="evenodd" d="M378.322 102.63L373.613 88.2275H377.07L380.319 98.3516L383.713 88.2275H386.798L390.09 98.4242L393.445 88.2275H396.632L391.922 102.63H388.34L385.168 92.8738L381.905 102.63H378.322Z" fill="white"/>
<path fill-rule="evenodd" clip-rule="evenodd" d="M357.997 102.63L364.417 88.2275H367.71L374.145 102.63H370.649L366.037 91.5007L361.41 102.63H357.997Z" fill="white"/>
<path fill-rule="evenodd" clip-rule="evenodd" d="M351.499 102.877C350.348 102.877 349.241 102.723 348.187 102.413C347.133 102.104 346.282 101.703 345.634 101.209L346.765 98.7002C347.384 99.1402 348.114 99.498 348.956 99.7832C349.797 100.064 350.653 100.204 351.518 100.204C352.176 100.204 352.707 100.136 353.113 100.01C353.52 99.8799 353.815 99.6962 354.008 99.4641C354.201 99.232 354.298 98.9661 354.298 98.6615C354.298 98.2796 354.148 97.975 353.844 97.7478C353.544 97.5205 353.142 97.3368 352.649 97.1918C352.156 97.0467 351.61 96.9113 351.015 96.7808C350.42 96.6503 349.821 96.4907 349.226 96.2973C348.627 96.1039 348.085 95.8574 347.592 95.5576C347.099 95.2578 346.698 94.8565 346.388 94.3634C346.079 93.8702 345.924 93.2369 345.924 92.4682C345.924 91.6462 346.147 90.892 346.591 90.2152C347.036 89.5383 347.708 88.9919 348.607 88.5906C349.507 88.1845 350.633 87.9814 351.992 87.9814C352.896 87.9814 353.79 88.0878 354.665 88.3006C355.545 88.5133 356.319 88.8324 356.991 89.2578L355.961 91.7865C355.289 91.4045 354.617 91.1193 353.945 90.9307C353.273 90.747 352.615 90.6551 351.972 90.6551C351.329 90.6551 350.798 90.7324 350.387 90.8823C349.976 91.0322 349.681 91.2304 349.502 91.4674C349.323 91.7091 349.236 91.9847 349.236 92.299C349.236 92.6712 349.386 92.9661 349.69 93.1934C349.99 93.4206 350.391 93.5995 350.885 93.7397C351.378 93.8751 351.924 94.0153 352.519 94.1507C353.113 94.286 353.713 94.4456 354.308 94.6245C354.902 94.8034 355.449 95.0403 355.942 95.3449C356.435 95.6446 356.836 96.0459 357.146 96.5391C357.455 97.0322 357.61 97.6559 357.61 98.4101C357.61 99.2175 357.383 99.9621 356.933 100.629C356.478 101.301 355.806 101.843 354.907 102.254C354.008 102.665 352.872 102.873 351.503 102.873L351.499 102.877Z" fill="white"/>
<path fill-rule="evenodd" clip-rule="evenodd" d="M331.212 102.63V90.9447H326.604V88.2275H339.155V90.9447H334.543V102.63H331.212Z" fill="white"/>
<path fill-rule="evenodd" clip-rule="evenodd" d="M317.737 99.9568H325.574V102.63H314.425V88.2275H325.308V90.9012H317.737V94.0293H324.424V96.6208H317.737V99.9568Z" fill="white"/>
<path fill-rule="evenodd" clip-rule="evenodd" d="M306.032 102.877C304.881 102.877 303.774 102.723 302.72 102.413C301.666 102.104 300.815 101.703 300.167 101.209L301.299 98.7002C301.917 99.1402 302.648 99.498 303.489 99.7832C304.33 100.064 305.186 100.204 306.051 100.204C306.709 100.204 307.241 100.136 307.647 100.01C308.053 99.8799 308.348 99.6962 308.541 99.4641C308.735 99.232 308.831 98.9661 308.831 98.6615C308.831 98.2796 308.681 97.975 308.377 97.7478C308.077 97.5205 307.676 97.3368 307.183 97.1918C306.689 97.0467 306.143 96.9113 305.548 96.7808C304.954 96.6503 304.354 96.4907 303.76 96.2973C303.165 96.1039 302.618 95.8574 302.125 95.5576C301.632 95.2578 301.231 94.8565 300.921 94.3634C300.612 93.8702 300.457 93.2369 300.457 92.4682C300.457 91.6462 300.68 90.892 301.125 90.2152C301.569 89.5383 302.241 88.9919 303.141 88.5906C304.04 88.1845 305.166 87.9814 306.525 87.9814C307.429 87.9814 308.324 88.0878 309.199 88.3006C310.079 88.5133 310.852 88.8324 311.524 89.2578L310.494 91.7865C309.822 91.4045 309.15 91.1193 308.478 90.9307C307.806 90.747 307.149 90.6551 306.506 90.6551C305.863 90.6551 305.331 90.7324 304.92 90.8823C304.509 91.0322 304.214 91.2304 304.035 91.4674C303.856 91.7091 303.769 91.9847 303.769 92.299C303.769 92.6712 303.919 92.9661 304.224 93.1934C304.523 93.4206 304.925 93.5995 305.418 93.7397C305.911 93.8751 306.457 94.0153 307.052 94.1507C307.647 94.286 308.246 94.4456 308.841 94.6245C309.436 94.8034 309.982 95.0403 310.475 95.3449C310.968 95.6446 311.369 96.0459 311.679 96.5391C311.988 97.0322 312.143 97.6559 312.143 98.4101C312.143 99.2175 311.916 99.9621 311.466 100.629C311.012 101.301 310.34 101.843 309.44 102.254C308.541 102.665 307.405 102.873 306.037 102.873L306.032 102.877Z" fill="white"/>
<path d="M297.885 88.2275H294.554V102.63H297.885V88.2275Z" fill="white"/>
<path fill-rule="evenodd" clip-rule="evenodd" d="M288.588 102.63L284.986 97.4033H288.545L292.185 102.63H288.588Z" fill="white"/>
<path fill-rule="evenodd" clip-rule="evenodd" d="M279.431 102.63V88.2275H285.663C286.954 88.2275 288.061 88.4354 288.994 88.8561C289.928 89.2719 290.648 89.8762 291.156 90.6546C291.663 91.4379 291.915 92.371 291.915 93.454C291.915 94.537 291.663 95.4459 291.156 96.2195C290.648 96.9931 289.928 97.5877 288.994 97.9987C288.061 98.4096 286.949 98.6175 285.663 98.6175H282.762V102.63H279.431ZM282.762 95.9632H285.479C286.509 95.9632 287.278 95.7408 287.786 95.296C288.293 94.8512 288.545 94.2372 288.545 93.454C288.545 92.6707 288.293 92.0422 287.786 91.6023C287.278 91.1623 286.509 90.9447 285.479 90.9447H282.762V95.9632Z" fill="white"/>
<path fill-rule="evenodd" clip-rule="evenodd" d="M341.278 83.2281V68.8301H344.034L351.194 77.5617V68.8301H354.487V83.2281H351.75L344.57 74.4868V83.2281H341.278Z" fill="white"/>
<path fill-rule="evenodd" clip-rule="evenodd" d="M323.626 83.2281L330.047 68.8301H333.334L339.774 83.2281H336.279L331.666 72.0984L327.039 83.2281H323.626Z" fill="white"/>
<path fill-rule="evenodd" clip-rule="evenodd" d="M317.94 83.2277L312.82 76.9521L315.001 74.5879L321.832 83.2277H317.94Z" fill="white"/>
<path fill-rule="evenodd" clip-rule="evenodd" d="M308.087 83.2281V68.8301H311.399V75.5505L317.776 68.8301H321.48L315.267 75.5118L313.415 77.4892L311.399 79.5924V83.2281H308.087Z" fill="white"/>
<path fill-rule="evenodd" clip-rule="evenodd" d="M297.595 80.5545H305.433V83.2281H294.283V68.8301H305.167V71.5037H297.595V74.627H304.282V77.2233H297.595V80.5545Z" fill="white"/>
<path fill-rule="evenodd" clip-rule="evenodd" d="M279.431 83.2281V68.8252H285.663C286.954 68.8252 288.061 69.0331 288.994 69.4537C289.928 69.8695 290.648 70.4739 291.156 71.2523C291.663 72.0355 291.915 72.9686 291.915 74.0516C291.915 75.1346 291.663 76.0484 291.156 76.8268C290.648 77.6101 289.928 78.2096 288.994 78.6254C288.061 79.0411 286.949 79.2539 285.663 79.2539H282.762V83.2233H279.431V83.2281ZM282.762 76.5416H285.479C286.509 76.5416 287.278 76.324 287.786 75.884C288.293 75.4441 288.545 74.8349 288.545 74.0516C288.545 73.2684 288.293 72.6399 287.786 72.1999C287.278 71.7599 286.509 71.5424 285.479 71.5424H282.762V76.5416Z" fill="white"/>
<defs>
<linearGradient id="paint0_linear_57_121447" x1="-1.03134e-06" y1="189.332" x2="432" y2="0.853529" gradientUnits="userSpaceOnUse">
<stop stop-color="#004B7F"/>
<stop offset="1" stop-color="#EF8B81"/>
</linearGradient>
<linearGradient id="paint1_linear_57_121447" x1="-1.0489e-06" y1="189.479" x2="432" y2="1" gradientUnits="userSpaceOnUse">
<stop stop-color="#004B7F"/>
<stop offset="1" stop-color="#EF8B81"/>
</linearGradient>
</defs>
</svg>
