<svg width="432" height="189" viewBox="0 0 432 189" fill="none" xmlns="http://www.w3.org/2000/svg">
<path d="M9.67979e-05 11.6308C6.42359 11.6308 11.6309 6.4235 11.6309 0H150.646C150.646 6.4235 155.854 11.6308 162.277 11.6308C168.7 11.6308 173.908 6.4235 173.908 0H420.369C420.369 6.4235 425.576 11.6308 432 11.6308L432 24.9233C428.329 24.9233 425.354 27.6509 425.354 31.0156C425.354 34.3803 428.329 37.1079 432 37.1079V49.8461C428.329 49.8461 425.354 52.5737 425.354 55.9384C425.354 59.303 428.329 62.0307 432 62.0307V75.3231C428.329 75.3231 425.354 78.0507 425.354 81.4154C425.354 84.7801 428.329 87.5077 432 87.5077V100.8C428.329 100.8 425.354 103.528 425.354 106.892C425.354 110.257 428.329 112.985 432 112.985V125.723C428.329 125.723 425.354 128.575 425.354 132.093C425.354 135.61 428.329 138.462 432 138.462V151.2C428.329 151.2 425.354 153.928 425.354 157.292C425.354 160.657 428.329 163.385 432 163.385L432 176.677C425.576 176.677 420.369 181.884 420.369 188.308H173.908C173.908 181.884 168.7 176.677 162.277 176.677C155.854 176.677 150.646 181.884 150.646 188.308H11.6309C11.6309 181.884 6.42359 176.677 9.67979e-05 176.677L0 163.385C3.67057 163.385 6.64615 160.657 6.64615 157.292C6.64615 153.928 3.67057 151.2 0 151.2V138.462C3.67057 138.462 6.64615 135.61 6.64615 132.093C6.64615 128.575 3.67057 125.723 0 125.723V112.985C3.67057 112.985 6.64615 110.257 6.64615 106.892C6.64615 103.528 3.67057 100.8 0 100.8V87.5077C3.67057 87.5077 6.64615 84.7801 6.64615 81.4154C6.64615 78.0507 3.67057 75.3231 0 75.3231V62.0307C3.67057 62.0307 6.64615 59.303 6.64615 55.9384C6.64615 52.5737 3.67057 49.8461 0 49.8461V37.1079C3.67057 37.1079 6.64615 34.3803 6.64615 31.0156C6.64615 27.6509 3.67057 24.9233 0 24.9233L9.67979e-05 11.6308Z" fill="url(#paint0_linear_56_87999)"/>
<mask id="mask0_56_87999" style="mask-type:alpha" maskUnits="userSpaceOnUse" x="0" y="0" width="432" height="189">
<path d="M9.67979e-05 11.6308C6.42359 11.6308 11.6309 6.4235 11.6309 0H150.646C150.646 6.4235 155.854 11.6308 162.277 11.6308C168.7 11.6308 173.908 6.4235 173.908 0H420.369C420.369 6.4235 425.576 11.6308 432 11.6308L432 24.9233C428.329 24.9233 425.354 27.6509 425.354 31.0156C425.354 34.3803 428.329 37.1079 432 37.1079V49.8461C428.329 49.8461 425.354 52.5737 425.354 55.9384C425.354 59.303 428.329 62.0307 432 62.0307V75.3231C428.329 75.3231 425.354 78.0507 425.354 81.4154C425.354 84.7801 428.329 87.5077 432 87.5077V100.8C428.329 100.8 425.354 103.528 425.354 106.892C425.354 110.257 428.329 112.985 432 112.985V125.723C428.329 125.723 425.354 128.575 425.354 132.093C425.354 135.61 428.329 138.462 432 138.462V151.2C428.329 151.2 425.354 153.928 425.354 157.292C425.354 160.657 428.329 163.385 432 163.385L432 176.677C425.576 176.677 420.369 181.884 420.369 188.308H173.908C173.908 181.884 168.7 176.677 162.277 176.677C155.854 176.677 150.646 181.884 150.646 188.308H11.6309C11.6309 181.884 6.42359 176.677 9.67979e-05 176.677L0 163.385C3.67057 163.385 6.64615 160.657 6.64615 157.292C6.64615 153.928 3.67057 151.2 0 151.2V138.462C3.67057 138.462 6.64615 135.61 6.64615 132.093C6.64615 128.575 3.67057 125.723 0 125.723V112.985C3.67057 112.985 6.64615 110.257 6.64615 106.892C6.64615 103.528 3.67057 100.8 0 100.8V87.5077C3.67057 87.5077 6.64615 84.7801 6.64615 81.4154C6.64615 78.0507 3.67057 75.3231 0 75.3231V62.0307C3.67057 62.0307 6.64615 59.303 6.64615 55.9384C6.64615 52.5737 3.67057 49.8461 0 49.8461V37.1079C3.67057 37.1079 6.64615 34.3803 6.64615 31.0156C6.64615 27.6509 3.67057 24.9233 0 24.9233L9.67979e-05 11.6308Z" fill="url(#paint1_linear_56_87999)"/>
</mask>
<g mask="url(#mask0_56_87999)">
<g style="mix-blend-mode:multiply" opacity="0.87">
<path fill-rule="evenodd" clip-rule="evenodd" d="M433.026 -94.2417C419.424 -88.4611 404.85 -84.6881 389.983 -86.24C379.654 -87.3189 369.906 -90.8991 360.457 -95.0527C343.913 -102.327 327.842 -109.995 309.487 -111.124C297.522 -111.857 285.889 -109.846 274.259 -107.259C255.811 -103.154 237.747 -97.4124 219.907 -91.2154C175.518 -75.7863 132.257 -57.2571 88.7374 -39.596C65.4314 -30.1345 42.052 -20.8075 18.3698 -12.3094C-4.11594 -4.2519 -26.9404 3.23202 -50.375 8.00892L-51.3989 3.16859C-27.5608 -1.68614 -4.31964 -9.22069 18.6093 -17.2744C43.0588 -25.8673 67.2188 -35.2618 91.3227 -44.7795C136.36 -62.5667 181.147 -81.186 226.993 -96.8182C245.17 -103.019 263.572 -108.795 282.338 -112.952C293.74 -115.484 305.182 -117.581 316.914 -116.851C334.016 -115.795 348.501 -108.362 363.551 -100.914C372.044 -96.7084 380.848 -93.0862 390.317 -91.8927C404.623 -90.0871 418.809 -93.7781 432.003 -99.0749L433.027 -94.2345L433.026 -94.2417ZM492.606 187.431L9.20541 289.682L8.18155 284.841C87.1091 268.777 165.712 251.175 244.506 234.478C295.77 223.619 347.065 213.009 398.473 202.863C429.648 196.712 460.696 190.032 491.581 182.584L492.605 187.424L492.606 187.431ZM490.621 178.045C459.729 186.35 428.5 193.06 397.038 198.808C374.369 202.95 351.667 206.867 329.076 211.413C299.976 217.268 270.934 223.471 241.905 229.664C163.643 246.36 85.7337 264.791 7.22152 280.303L6.19767 275.462C83.8282 260.497 160.568 241.249 237.82 224.533C254.047 221.026 270.294 217.611 286.59 214.427C299.579 211.882 312.449 208.777 325.444 206.261C348.647 201.773 372.011 198.257 395.313 194.378C427.148 189.077 458.644 182.423 489.591 173.213L490.615 178.054L490.621 178.045ZM488.635 168.659L487.612 163.818C456.069 174.894 423.44 181.226 390.384 185.645C365.75 188.935 341.029 191.598 316.535 195.871C303.438 198.153 290.544 201.324 277.493 203.822C261.307 206.923 245.195 210.368 229.12 213.994C154.064 230.92 79.8747 251.91 4.21075 266.069L5.23459 270.909C82.0094 256.365 157.619 236.276 233.909 219.478C250.087 215.914 266.293 212.485 282.555 209.353C295.558 206.843 308.418 203.688 321.452 201.283C345.23 196.891 369.206 193.786 393.113 190.177C425.487 185.302 457.457 178.765 488.643 168.657L488.635 168.659ZM486.65 159.272C454.689 171.277 421.295 177.358 387.494 181.342C362.093 184.336 336.595 186.556 311.339 190.698C298.149 192.857 285.193 196.018 272.075 198.523C256.003 201.592 240.017 205.071 224.076 208.758C150.352 225.816 77.698 247.681 3.24767 261.516L2.22382 256.676C75.2171 243.149 146.059 220.339 218.181 203.08C233.933 199.313 249.754 195.801 265.658 192.752C278.876 190.227 291.931 187.105 305.254 185.075C331.399 181.097 357.806 179.346 384.103 176.687C418.76 173.175 453.118 167.431 485.616 154.419L486.64 159.26L486.65 159.272ZM484.665 149.886L483.641 145.046C449.78 160.086 412.995 164.993 376.351 167.583C348.194 169.569 319.93 170.371 291.907 173.98C278.066 175.76 264.553 178.768 250.879 181.443C235.887 184.374 220.995 187.847 206.203 191.651C137.308 209.345 70.2956 234.204 0.238411 247.289L1.26225 252.13C73.0448 238.799 142.257 214.946 213.027 197.47C228.071 193.755 243.189 190.325 258.404 187.384C271.932 184.763 285.293 181.674 298.952 179.745C325.929 175.937 353.168 174.647 380.291 172.316C415.951 169.253 451.477 163.891 484.656 149.88L484.665 149.886ZM482.679 140.5L481.655 135.66C446.323 152.714 406.725 156.619 368.032 158.283C337.707 159.588 307.272 159.416 277.057 162.588C248.286 165.605 219.659 172.351 191.841 180.156C126.946 198.362 64.6902 225.216 -1.74852 237.896L-0.724663 242.736C67.614 229.857 132.407 204.042 199.404 186.096C213.937 182.204 228.58 178.687 243.342 175.767C257.175 173.029 270.852 170.121 284.88 168.482C313.935 165.074 343.23 164.745 372.416 163.088C410.034 160.953 448.13 156.504 482.678 140.493L482.679 140.5ZM480.694 131.114C444.596 149.156 403.465 152.514 363.741 153.736C332.303 154.706 300.755 154.057 269.409 156.988C240.652 159.68 212.119 166.376 184.447 174.517C121.608 192.978 61.8815 220.835 -2.71159 233.343L-3.73543 228.502C30.0107 221.852 62.4711 210.754 94.5165 198.439C121.479 188.077 148.268 177.181 175.87 168.603C203.492 160.015 232.033 153.355 260.903 150.985C293.65 148.297 326.568 149.467 359.377 148.844C400.11 148.069 442.819 145.292 479.667 126.259L480.691 131.099L480.694 131.114ZM478.708 121.727C441.043 141.752 396.646 143.925 354.85 144.28C320.852 144.561 286.751 142.906 252.802 145.338C223.934 147.4 195.54 153.931 168.07 162.923C141.604 171.59 116.088 182.764 90.3722 193.381C59.491 206.095 28.1318 217.365 -4.697 223.957L-5.72084 219.116C26.1173 212.592 56.2918 201.145 85.8882 187.922C110.257 177.035 134.388 165.553 159.635 156.792C186.935 147.318 215.164 140.995 244.038 139.246C279.293 137.108 314.664 139.275 349.948 139.36C392.874 139.456 439.127 137.94 477.682 116.873L478.705 121.713L478.708 121.727ZM476.723 112.341C437.336 134.403 389.276 135.28 345.286 134.764C308.776 134.338 272.201 131.691 235.695 133.553C206.815 135.025 178.739 141.114 151.607 151.062C127.509 159.903 104.71 171.689 81.6241 182.829C53.263 196.503 24.2369 208.098 -6.6824 214.57L-7.70625 209.73C22.366 203.294 50.2546 191.498 77.3542 177.212C98.9824 165.81 120.29 153.778 143.114 144.876C169.979 134.406 197.83 128.635 226.627 127.443C264.634 125.871 302.688 129.061 340.674 129.835C363.667 130.306 386.773 130.107 409.628 127.344C432.586 124.566 455.486 119.069 475.686 107.474L476.71 112.314L476.723 112.341ZM474.738 102.955L473.714 98.1147C452.844 110.655 428.718 116.133 404.737 118.752C380.286 121.418 355.584 121.234 331.04 120.341C290.491 118.864 249.928 114.697 209.324 115.655C193.38 116.034 177.334 117.245 161.807 121.047C149.709 124.011 137.862 127.987 126.457 133.018C105.894 142.087 87.3995 154.725 68.4667 166.675C44.0784 182.045 18.5818 194.018 -9.69166 200.344L-8.66781 205.184C20.5086 198.803 47.2364 186.907 73.0394 172.093C93.3597 160.427 113.307 148.097 135.027 139.113C146.839 134.229 159.031 130.292 171.467 127.332C186.802 123.683 202.496 122.231 218.225 121.718C257.494 120.441 296.767 124.109 336.003 125.226C359.751 125.904 383.632 125.895 407.262 123.177C430.717 120.482 454.21 114.988 474.742 102.939L474.738 102.955ZM472.752 93.5688L471.728 88.7285C450.301 102.182 425.053 107.635 400.167 110.123C373.885 112.748 347.35 112.156 321.01 110.818C278.381 108.656 235.777 103.63 193.054 103.896C176.714 103.998 159.933 104.674 144.03 108.721C132.375 111.689 120.998 115.754 110.236 121.136C91.6835 130.417 75.9611 143.684 59.625 156.248C50.5375 163.235 41.1359 169.8 31.0311 175.239C17.5764 182.459 3.16495 187.496 -11.6786 190.95L-10.6547 195.791C4.58134 192.313 19.3858 187.291 33.3723 180.281C44.0908 174.907 54.2089 168.468 64.0579 161.643C81.7742 149.365 98.966 136.38 118.582 127.196C129.756 121.959 141.455 117.924 153.425 114.957C169.148 111.053 185.564 110.139 201.704 109.906C243.144 109.319 284.498 113.859 325.863 115.681C351.415 116.804 377.143 117.199 402.613 114.527C427.005 111.971 451.635 106.499 472.753 93.5386L472.752 93.5688ZM470.767 84.1826L469.743 79.3423C447.867 93.7231 421.551 99.1621 395.839 101.54C367.766 104.132 339.429 103.14 311.339 101.362C266.216 98.504 221.145 92.5219 175.893 92.2801C159.318 92.1923 142.074 92.5235 125.974 96.8444C114.955 99.8053 104.23 103.942 94.3174 109.618C77.734 119.098 64.892 132.866 51.2074 145.912C43.5877 153.173 35.5224 159.958 26.5497 165.503C14.1485 173.13 0.456417 178.165 -13.664 181.564L-12.6401 186.405C1.8626 182.969 15.9185 177.918 28.8599 170.469C38.4043 164.968 47.1585 158.285 55.5321 151.149C70.5975 138.321 84.9372 124.792 102.542 115.426C112.928 109.898 124.022 105.803 135.395 102.85C151.465 98.6701 168.576 98.2093 185.092 98.2272C229.002 98.2577 272.751 103.732 316.544 106.225C343.609 107.763 370.887 108.536 397.912 105.948C423.246 103.523 449.066 98.0764 470.755 84.1626L470.767 84.1826ZM468.781 74.7964L467.758 69.9561C445.52 85.3213 418.125 90.7634 391.632 93.0285C362.135 95.554 332.38 94.2025 302.902 92.0345C255.568 88.5418 208.337 81.6734 160.831 80.8429C143.972 80.5452 126.159 80.494 109.793 85.0438C99.2541 87.9707 89.0071 92.134 79.8089 98.1011C64.8194 107.814 54.7161 122.016 43.5046 135.551C37.2677 143.076 30.4495 150.085 22.4639 155.758C11.0274 163.834 -2.12403 168.837 -15.6494 172.178L-14.6255 177.018C-0.807014 173.645 12.6032 168.625 24.5168 160.748C32.9967 155.143 40.4463 148.248 47.3782 140.854C59.8485 127.563 71.3471 113.576 87.1192 103.983C96.6803 98.1713 107.153 94.0127 117.928 91.0659C134.16 86.627 151.7 86.4883 168.417 86.6811C214.787 87.2116 260.926 93.6284 307.15 96.8007C335.926 98.7719 364.968 99.9441 393.745 97.3833C419.85 95.0577 446.708 89.6243 468.775 74.7677L468.781 74.7964ZM466.796 65.4102L465.772 60.5699C443.13 77.1387 414.398 82.5408 386.979 84.6792C356.667 87.0394 326.109 85.4001 295.858 82.9081C246.605 78.8533 197.5 71.1733 148.058 69.6947C120.175 68.8625 90.2892 69.7294 66.8263 86.7794C53.1459 96.7258 45.5853 111.215 36.6976 125.137C31.7015 132.961 25.9688 140.281 18.7047 146.139C8.16179 154.612 -4.60922 159.534 -17.6363 162.785L-16.6125 167.625C-3.36136 164.334 9.56603 159.372 20.5383 151.086C28.2076 145.3 34.5169 138.083 40.1646 130.361C50.2042 116.638 59.0458 102.32 73.3422 92.5213C82.3667 86.3359 92.5949 82.1541 103.099 79.2419C119.609 74.6618 137.795 74.9565 154.786 75.3766C203.222 76.5654 251.353 83.8213 299.612 87.576C329.254 89.8818 359.171 91.364 388.849 88.9805C415.952 86.8038 444.197 81.407 466.781 65.3758L466.796 65.4102ZM464.811 56.024C442.249 73.0483 413.188 78.4827 385.608 80.61C354.833 82.9781 323.82 81.21 293.119 78.5731C242.759 74.2497 192.583 66.1136 142.026 64.3981C114.481 63.4643 84.1363 63.8957 61.2005 81.382C47.9378 91.4951 41.5223 106.222 33.604 120.367C29.2603 128.121 24.1344 135.402 17.3796 141.258C7.15412 150.061 -5.62821 155 -18.5994 158.231L-19.6232 153.391C-6.83259 150.228 5.88143 145.355 15.7304 136.332C22.2564 130.352 26.937 122.88 30.7508 114.96C37.6175 100.701 42.9197 85.8865 55.7123 75.6778C78.0998 57.7973 108.972 57.7647 136.149 58.8061C187.388 60.7675 238.21 69.2623 289.236 73.8649C320.77 76.7157 352.657 78.6817 384.283 76.261C412 74.1423 441.359 68.66 463.769 51.1349L464.793 55.9752L464.811 56.024ZM462.825 46.6377C440.556 64.6882 410.859 70.2045 382.992 72.3176C350.902 74.7462 318.551 72.6385 286.58 69.6398C234.842 64.7902 183.321 55.9332 131.358 53.7421C104.477 52.6082 72.9938 52.3049 51.0435 70.5505C38.5949 80.8966 34.2797 95.8396 28.2761 110.209C24.9465 118.184 20.6884 125.74 14.4148 131.778C4.83348 140.933 -7.89573 145.734 -20.5848 148.845L-21.6086 144.005C-9.00791 140.972 3.77127 136.266 13.1071 126.908C19.1631 120.833 23.0263 113.218 25.9097 105.225C31.1404 90.7115 34.4877 75.553 46.7287 65.0408C68.2148 46.5858 100.208 47.1412 126.731 48.351C179.612 50.7681 232.005 60.0633 284.657 65.1549C316.946 68.2811 349.643 70.4958 382.062 68.0276C409.949 65.9027 439.848 60.3137 461.799 41.7528L462.823 46.5931L462.825 46.6377ZM460.84 37.2515C439.261 56.2964 409.246 61.9774 381.401 64.1234C348.319 66.6795 314.931 64.2808 281.981 60.979C228.998 55.6651 176.266 46.0813 123.032 43.4838C96.7575 42.2065 64.1091 41.497 43.0397 60.2916C31.1038 70.9343 28.592 86.1787 24.0375 100.7C21.5643 108.576 18.0974 116.114 12.3577 122.16C3.16156 131.788 -9.88554 136.468 -22.5717 139.452L-23.5956 134.612C-10.8999 131.709 2.33856 127.153 11.4234 117.353C17.126 111.202 20.3438 103.514 22.4976 95.5108C26.4244 80.965 28.2855 65.6933 40.0857 55.0117C47.7009 48.1189 57.5734 44.1699 67.3759 41.5563C84.6296 36.9463 103.09 37.4382 120.77 38.3878C174.401 41.2689 227.487 51.1453 280.875 56.6362C314.004 60.0426 347.613 62.5296 380.891 59.9023C408.645 57.7155 438.727 51.9301 459.805 32.3609L460.829 37.2012L460.84 37.2515ZM458.854 27.8653C438.054 48.216 407.437 54.0245 379.456 56.1692C346.467 58.7055 313.158 56.185 280.328 52.738C226.378 47.0732 172.74 36.8185 118.535 33.781C101.12 32.8055 83.1648 32.4319 66.1296 36.763C56.0674 39.319 45.8502 43.1984 38.0471 50.2659C26.1857 61.013 24.9037 76.4699 21.3809 91.1177C19.4515 99.1187 16.4197 106.835 10.7745 112.974C1.67158 122.83 -11.8058 127.248 -24.5571 130.066L-25.581 125.225C-12.8927 122.429 0.397209 117.975 9.44881 108.16C15.134 101.998 18.2678 94.2672 20.3351 86.2446C24.108 71.5738 25.6813 56.0403 37.5811 45.2626C45.3273 38.2446 55.4379 34.3578 65.4355 31.8154C82.5337 27.4634 100.569 27.7901 118.055 28.7432C172.089 31.689 225.563 41.9413 279.337 47.6281C312.049 51.0851 345.233 53.617 378.105 51.128C406.194 48.998 436.759 43.1555 457.821 22.9819L458.845 27.8222L458.854 27.8653ZM456.869 18.4791C435.499 37.9075 405.531 43.8111 377.604 45.9595C344.563 48.4993 311.213 45.9274 278.334 42.4233C225.311 36.7801 172.567 26.7487 119.273 23.9762C101.463 23.0468 82.9874 22.7308 65.6067 27.3075C55.8771 29.8757 46.1455 33.8174 38.5812 40.6319C26.6194 51.4002 24.2186 66.9211 19.814 81.583C17.3889 89.6513 13.9722 97.4266 8.1495 103.648C-0.928766 113.266 -13.9136 117.851 -26.5425 120.679L-27.5664 115.839C-14.9092 112.967 -2.16478 108.238 7.03675 98.7061C13.0094 92.5209 16.8155 84.8132 19.6944 76.799C25.0072 62.0351 28.3815 46.3307 40.6663 35.4941C61.7665 16.8806 94.4631 17.3923 120.71 18.6454C173.392 21.1496 225.538 31.0825 277.923 36.7254C310.443 40.2306 343.413 42.8152 376.109 40.416C404.152 38.3556 433.974 32.5054 455.834 13.5885L456.858 18.4288L456.869 18.4791ZM454.884 9.09287L453.86 4.25252C431.415 22.1451 402.129 27.8671 374.132 29.7225C342.801 31.803 311.26 29.2388 280.123 25.7861C229.583 20.1805 179.249 10.5173 128.38 8.25232C101.424 7.05156 69.9745 7.15391 47.9007 25.1705L47.741 25.3019C49.6681 23.2811 51.6069 21.2804 53.5805 19.3024C76.0583 2.41574 106.317 1.89742 133.236 3.06117C183.061 5.21659 232.353 14.7703 281.844 20.3802C312.306 23.833 343.16 26.4077 373.82 24.454C401.573 22.6876 430.398 17.0182 452.902 -0.309238L451.878 -5.14957C429.355 11.6267 400.977 17.2092 373.475 18.8548C343.899 20.6167 314.163 18.0758 284.791 14.6701C236.369 9.05137 188.148 -0.443529 139.373 -2.5212C112.126 -3.68278 82.5872 -2.66418 59.5897 13.6796C61.2521 12.1801 62.9248 10.6934 64.6178 9.23233C88.2913 -7.38954 117.692 -9.02427 145.723 -7.84822C193.241 -5.85758 240.2 3.55183 287.337 9.19467C315.902 12.6136 344.827 15.1834 373.608 13.5598C400.727 12.0249 428.521 6.51366 450.918 -9.68828L449.895 -14.5286C427.655 1.10726 400.433 6.52017 373.717 7.90954C345.755 9.36007 317.679 6.73051 289.953 3.26934C244.475 -2.40173 199.17 -11.6507 153.3 -13.5702C136.338 -14.2814 118.591 -14.2412 102.07 -9.85381C91.1437 -6.95 80.6851 -2.40438 71.301 3.9247C70.6712 4.35052 70.043 4.78353 69.4234 5.2222C70.6854 4.20497 71.9505 3.2021 73.2258 2.21207C74.9485 0.962343 76.7106 -0.243198 78.5208 -1.39887C88.3284 -7.675 99.0912 -12.3074 110.342 -15.2724C126.663 -19.5727 144.111 -19.7219 160.868 -19.0199C205.315 -17.1598 249.178 -7.99576 293.21 -2.28152C320.019 1.20121 347.165 3.86975 374.229 2.56439C400.438 1.29717 426.978 -4.03921 448.937 -19.0904L447.913 -23.9307C426.535 -9.64745 401.061 -4.3717 375.716 -3.1672C349.249 -1.91299 322.716 -4.69621 296.525 -8.27207C254.049 -14.0681 211.706 -23.1782 168.767 -24.8922C152.273 -25.5524 135.249 -25.2078 119.203 -20.9508C107.729 -17.9086 96.7646 -13.2034 86.616 -7.05017C82.6686 -4.65463 78.876 -2.05922 75.2044 0.68314C81.4363 -4.06384 87.896 -8.51389 94.7326 -12.4584C105.346 -18.5749 116.706 -23.3636 128.563 -26.472C144.378 -30.6199 161.047 -31.0773 177.299 -30.4259C218.675 -28.7639 259.437 -19.7243 300.327 -13.8706C325.497 -10.2663 351.012 -7.44028 376.477 -8.53525C401.23 -9.59939 425.966 -14.7792 446.95 -28.4838L445.926 -33.3241C404.5 -6.89989 351.302 -12.8061 305.124 -19.7623C266.096 -25.6421 227.212 -34.5612 187.671 -36.3037C171.603 -37.0089 155.165 -36.518 139.515 -32.5173C127.157 -29.3632 115.29 -24.5272 104.095 -18.4302C81.481 -6.12156 62.045 10.8944 41.9401 26.769C18.0309 45.609 -7.41255 62.0875 -37.4965 68.8937L-36.4726 73.734C-7.68822 67.1652 16.0888 51.1742 38.1297 32.1517C42.2511 28.5939 46.3302 24.9775 50.4267 21.3725C48.3391 23.4497 46.3721 25.6364 44.5023 27.8926C45.3735 27.0481 46.2446 26.2036 47.1229 25.3576C48.0521 24.2907 48.9914 23.2367 49.9496 22.2012C47.4019 24.4432 45.085 26.854 42.9408 29.4084C40.276 31.9828 37.6112 34.5572 34.9301 37.09C25.8247 45.6936 16.3369 53.9428 5.83503 60.801C-6.85116 69.0665 -20.7717 74.8996 -35.511 78.2799L-34.4872 83.1202C-20.2533 79.8318 -6.81433 74.1681 5.22229 65.8449C15.06 59.0372 23.7316 50.758 31.9574 42.108C33.9698 39.9942 35.9632 37.8619 37.948 35.7239C36.841 37.2261 35.7965 38.775 34.8041 40.3579C32.9512 42.588 31.0897 44.8125 29.2078 47.0112C21.8692 55.6012 14.017 63.8195 4.87742 70.5246C-6.60708 78.941 -19.6865 84.4612 -33.5241 87.6733L-32.5003 92.5136C-18.8995 89.3516 -6.01497 83.9027 4.99317 75.2194C13.2715 68.6965 20.1577 60.6975 26.4987 52.3185C28.5264 49.6388 30.5177 46.9292 32.5003 44.214C31.9543 45.1773 31.4184 46.1535 30.8927 47.1425C32.3665 44.8575 33.8433 42.5869 35.3477 40.3405C36.9848 38.1185 38.6321 35.9094 40.3157 33.73C39.7311 34.3339 39.1725 34.9547 38.6299 35.5797C38.3522 35.9686 38.0745 36.3574 37.8055 36.7519C38.6916 35.6942 39.5704 34.638 40.4565 33.5802C41.5276 32.4758 42.6596 31.4111 43.8612 30.3916C65.4144 12.1475 97.4291 12.4133 123.955 13.6374C176.034 16.0216 227.573 25.8876 279.344 31.4956C311.024 34.9307 343.128 37.4586 374.989 35.2283C403.06 33.2598 432.661 27.471 454.866 9.04411L454.884 9.09287ZM35.9651 38.9344L35.8037 39.1636L35.8874 39.0634L35.9723 38.9329L35.9651 38.9344ZM32.543 44.1675L33.5903 42.738C32.2793 44.906 31.0189 47.1008 29.7702 49.3157C26.1595 56.5994 23.4107 64.4135 20.2204 71.9834C16.7482 80.2057 12.4088 88.0862 5.97984 94.3829C-3.4325 103.592 -15.907 108.391 -28.5295 111.286L-29.5533 106.446C-16.7647 103.486 -4.30923 98.525 5.40817 89.447C12.2247 83.0682 17.1448 75.1324 21.2664 66.8253C24.133 61.057 26.7677 55.1502 29.6854 49.4462C27.325 53.6368 25.0372 57.8872 22.6348 62.0567C17.8202 70.4203 12.2949 78.4016 5.04164 84.8427C-5.02277 93.7691 -17.5283 98.8828 -30.5149 101.9L-31.5387 97.0595C-18.2466 93.9628 -5.58328 88.6732 4.95582 79.864C12.658 73.418 18.837 65.4785 24.3801 57.1558C26.5609 53.8885 28.6721 50.5759 30.8064 47.2658C31.3573 46.219 31.9327 45.1819 32.5343 44.1618L32.543 44.1675ZM53.1992 19.5556C52.9867 19.7206 52.7654 19.8799 52.5544 20.0521C52.4574 20.1252 52.3619 20.2054 52.2648 20.2784C51.7429 20.824 51.2281 21.3681 50.7133 21.9121C51.5361 21.1228 52.3677 20.3392 53.192 19.5571L53.1992 19.5556ZM57.654 15.057C58.7057 14.1442 59.7589 13.2387 60.8136 12.3403C60.1357 12.9639 59.4578 13.5875 58.7814 14.2183C58.593 14.3557 58.4046 14.493 58.2162 14.6304C58.0278 14.7678 57.8409 14.9124 57.654 15.057ZM444.957 -37.9059L443.933 -42.7462C404.854 -18.9117 356.916 -24.1225 313.859 -31.431C278.338 -37.4601 242.968 -46.252 206.864 -47.9113C191.41 -48.6189 175.805 -47.8765 160.755 -44.1228C147.484 -40.8205 134.691 -35.8261 122.445 -29.7694C67.0353 -2.34569 22.4499 45.7622 -39.4819 59.5075L-38.458 64.3478C-7.13768 57.3251 19.8859 40.4823 45.4929 21.7634C67.392 5.75694 88.6929 -11.3759 112.859 -23.9305C124.554 -30.0056 136.862 -34.9198 149.655 -38.1435C165.023 -42.0245 181.059 -42.6405 196.837 -41.9264C234.727 -40.2248 271.925 -31.3694 309.274 -25.4193C353.978 -18.3016 404.624 -12.7332 444.944 -37.8957L444.957 -37.9059ZM442.972 -47.2921L441.948 -52.1324C405.556 -30.9445 363.038 -35.3437 323.415 -43.0108C291.194 -49.2502 259.13 -58.0438 226.197 -59.5635C211.355 -60.2505 196.606 -59.149 182.164 -55.6064C168.1 -52.1514 154.483 -47.0429 141.314 -41.0611C79.4851 -12.9696 26.0812 35.4205 -41.4688 50.1141L-40.4449 54.9544C24.1222 40.7642 73.0227 -7.46862 131.463 -35.2034C144.077 -41.1877 157.183 -46.2259 170.746 -49.6049C185.512 -53.2835 200.688 -54.2428 215.859 -53.5652C250.62 -52.0122 284.581 -43.1473 318.687 -36.9991C360.027 -29.5523 405.23 -24.7909 442.949 -47.2948L442.972 -47.2921ZM440.986 -56.6784L439.963 -61.5187C422.805 -52.0223 403.852 -47.578 384.284 -47.6331C366.735 -47.68 349.35 -50.8901 332.285 -54.7458C303.881 -61.1623 275.634 -69.7429 246.374 -71.1991C216.357 -72.6903 187.682 -63.9014 160.287 -52.3596C127.446 -38.5253 96.4266 -20.7922 65.0044 -4.07692C30.5397 14.2423 -5.01169 32.5288 -43.4542 40.7278L-42.4303 45.5682C-5.35955 37.5843 28.579 19.4363 61.369 0.998669C90.7273 -15.5127 119.674 -33.0474 150.588 -46.564C164.281 -52.5516 178.386 -57.7259 192.922 -61.2508C207.052 -64.6749 221.409 -65.8959 235.936 -65.2098C267.144 -63.723 297.416 -55.0005 327.856 -48.6697C345.833 -44.9319 364.107 -41.8495 382.519 -41.9028C403.061 -41.9563 423.04 -46.4823 440.97 -56.6825L440.986 -56.6784ZM439.001 -66.0646L437.977 -70.9049C421.967 -62.544 404.522 -58.3063 386.448 -58.7448C371.103 -59.1152 356.024 -62.4456 341.248 -66.3955C316.45 -73.0271 291.856 -81.4273 266.019 -82.7973C236.002 -84.3935 206.578 -74.5383 179.001 -63.6783C142.635 -49.3534 107.837 -31.3688 72.6896 -14.3608C34.816 3.93674 -4.03988 22.6596 -45.4411 31.3344L-44.4173 36.1748C-4.53281 27.7383 32.6378 9.23682 68.7601 -9.08041C102.005 -25.9337 134.872 -43.7949 169.433 -57.8655C196.931 -69.0615 225.95 -78.3883 255.977 -76.8468C283.556 -75.4326 310.023 -66.9333 336.672 -60.4156C352.622 -56.5117 368.879 -53.2503 385.353 -53.0362C404.188 -52.796 422.398 -57.1357 438.991 -66.0774L439.001 -66.0646ZM437.016 -75.4508L435.992 -80.2911C421.021 -73.0054 404.898 -68.9722 388.196 -69.836C374.921 -70.5243 362.037 -74.004 349.443 -78.0626C328.221 -84.9104 307.263 -93.0295 284.768 -94.3035C271.783 -95.0381 259.183 -93.2432 246.555 -90.3395C229.828 -86.5012 213.483 -81.1008 197.4 -75.1404C157.522 -60.3653 119.026 -42.1013 80.2296 -24.764C39.0489 -6.39714 -3.05524 12.7802 -47.4265 21.9482L-46.4027 26.7885C-3.48053 17.8596 37.0357 -1.132 76.5717 -19.5111C113.548 -36.696 150.209 -54.8421 188.347 -69.3764C215.845 -79.8598 245.454 -90.0467 275.294 -88.3981C299.414 -87.0627 322.183 -78.8239 345.163 -72.1004C358.887 -68.0857 372.904 -64.6732 387.251 -64.1291C404.673 -63.4776 421.48 -67.6104 436.992 -75.4534L437.016 -75.4508ZM435.03 -84.837L434.006 -89.6773C420.016 -83.4317 405.024 -79.5779 389.624 -80.8821C378.308 -81.8423 367.509 -85.4254 357.01 -89.5818C339.038 -96.697 321.436 -104.513 301.858 -105.676C289.434 -106.417 277.382 -104.408 265.309 -101.682C247.806 -97.7169 230.656 -92.2285 213.742 -86.2575C170.657 -71.0442 128.79 -52.5547 86.6454 -34.9519C63.8537 -25.4341 40.9957 -16.0524 17.8013 -7.5524C-4.16529 0.477821 -26.4771 7.86831 -49.4119 12.562L-48.3881 17.4023C-2.70555 8.01699 40.8183 -11.3256 83.439 -29.7269C123.895 -47.1976 164.055 -65.5662 205.521 -80.5645C222.023 -86.531 238.771 -91.9718 255.888 -95.8777C268.235 -98.6919 280.565 -100.595 293.26 -99.8512C314.297 -98.6288 333.608 -90.6415 353.221 -83.671C364.782 -79.5665 376.635 -76.0338 388.935 -75.2067C404.991 -74.1314 420.533 -78.0791 435.013 -84.8483L435.03 -84.837Z" fill="#F15D22" fill-opacity="0.4"/>
</g>
</g>
<line x1="163.169" y1="19.1694" x2="163.169" y2="169.139" stroke="white" stroke-width="4" stroke-linecap="round" stroke-dasharray="14 14"/>
<path d="M29.5476 37.1255H41.9892C45.0021 37.1255 47.8555 37.4622 50.5495 38.1357C53.2788 38.8092 55.6537 39.908 57.6741 41.4322C59.6946 42.9209 61.2896 44.8705 62.4594 47.2808C63.6645 49.6911 64.2671 52.6155 64.2671 56.0537C64.2671 59.1021 63.6823 61.796 62.5125 64.1355C61.3783 66.4395 59.8363 68.389 57.8868 69.9841C55.9373 71.5437 53.6864 72.7312 51.1343 73.5464C48.5822 74.3617 45.906 74.7693 43.1058 74.7693H29.5476V37.1255ZM37.842 67.1129H42.1487C44.0628 67.1129 45.8351 66.918 47.4656 66.5281C49.1316 66.1382 50.5672 65.5001 51.7723 64.614C52.9775 63.6924 53.9168 62.5049 54.5903 61.0516C55.2992 59.5629 55.6537 57.7551 55.6537 55.6284C55.6537 53.7852 55.2992 52.1901 54.5903 50.8431C53.9168 49.4607 52.9952 48.3265 51.8255 47.4403C50.6558 46.5542 49.2734 45.8984 47.6783 45.4731C46.1187 45.0123 44.4704 44.7819 42.7336 44.7819H37.842V67.1129Z" fill="white"/>
<path d="M82.2803 37.1255H89.1391L105.515 74.7693H96.1574L92.9141 66.7939H78.2926L75.1556 74.7693H66.0105L82.2803 37.1255ZM85.4704 48.0783L80.8979 59.7756H90.0961L85.4704 48.0783Z" fill="white"/>
<path d="M114.607 58.7122L100.464 37.1255H110.779L118.754 51.2153L127.208 37.1255H137.044L122.901 58.7122V74.7693H114.607V58.7122Z" fill="white"/>
<path d="M80.4418 118.612L72.8917 125.258L68.3724 120.047L80.6545 109.679H88.0981V147.323H80.4418V118.612Z" fill="white"/>
<path fill-rule="evenodd" clip-rule="evenodd" d="M252.129 125.082C236.309 74.35 200.638 85.5377 188.198 103.794C191.636 77.4007 246.859 69.7134 252.129 125.082Z" fill="white"/>
<path fill-rule="evenodd" clip-rule="evenodd" d="M252.129 125.082C249.238 70.3516 204.724 71.004 183.475 87.9307C200.232 58.6801 261.46 72.5949 252.129 125.082Z" fill="white"/>
<path fill-rule="evenodd" clip-rule="evenodd" d="M252.129 125.082C262.364 78.8318 227.926 58.6462 184.461 71.4149C225.639 47.6905 273.32 80.2774 252.129 125.082Z" fill="white"/>
<path fill-rule="evenodd" clip-rule="evenodd" d="M252.129 125.082C201.639 108.498 213.368 73.0006 231.808 60.8362C205.362 63.8725 196.843 118.975 252.129 125.082Z" fill="white"/>
<path fill-rule="evenodd" clip-rule="evenodd" d="M252.129 125.082C197.447 121.364 198.772 76.8644 216.023 55.8765C186.521 72.1891 199.512 133.62 252.129 125.082Z" fill="white"/>
<path fill-rule="evenodd" clip-rule="evenodd" d="M252.129 125.082C205.729 134.616 186.066 99.8777 199.492 56.6111C175.149 97.4216 207.011 145.596 252.129 125.082Z" fill="white"/>
<path fill-rule="evenodd" clip-rule="evenodd" d="M232.708 101.686C235.401 100.965 238.171 102.561 238.891 105.259C239.612 107.952 238.016 110.722 235.318 111.442C232.625 112.163 229.855 110.567 229.135 107.869C228.414 105.177 230.01 102.406 232.708 101.686Z" fill="white"/>
<path fill-rule="evenodd" clip-rule="evenodd" d="M377.225 119.507L383.645 105.109H386.933L393.373 119.507H389.877L385.265 108.382L380.638 119.507H377.225Z" fill="white"/>
<path d="M375.702 105.109H372.37V119.512H375.702V105.109Z" fill="white"/>
<path fill-rule="evenodd" clip-rule="evenodd" d="M363.977 119.754C362.827 119.754 361.72 119.599 360.666 119.289C359.612 118.98 358.761 118.579 358.113 118.086L359.244 115.576C359.863 116.016 360.593 116.374 361.434 116.659C362.276 116.94 363.131 117.08 363.997 117.08C364.654 117.08 365.186 117.012 365.592 116.887C365.998 116.756 366.293 116.572 366.487 116.34C366.68 116.108 366.777 115.842 366.777 115.538C366.777 115.156 366.627 114.846 366.322 114.624C366.022 114.397 365.621 114.213 365.128 114.068C364.635 113.923 364.089 113.787 363.494 113.657C362.899 113.526 362.3 113.367 361.705 113.173C361.11 112.98 360.564 112.733 360.071 112.434C359.578 112.134 359.176 111.733 358.867 111.239C358.558 110.746 358.403 110.113 358.403 109.344C358.403 108.522 358.625 107.768 359.07 107.091C359.515 106.414 360.187 105.868 361.086 105.467C361.985 105.061 363.112 104.858 364.471 104.858C365.375 104.858 366.269 104.964 367.144 105.177C368.024 105.389 368.798 105.708 369.47 106.134L368.44 108.663C367.768 108.281 367.096 107.995 366.424 107.807C365.752 107.623 365.094 107.531 364.451 107.531C363.808 107.531 363.276 107.609 362.865 107.758C362.454 107.908 362.159 108.107 361.981 108.343C361.802 108.585 361.715 108.861 361.715 109.175C361.715 109.547 361.865 109.842 362.169 110.069C362.469 110.297 362.87 110.476 363.363 110.616C363.857 110.751 364.403 110.891 364.998 111.027C365.592 111.162 366.192 111.322 366.786 111.501C367.381 111.679 367.927 111.916 368.421 112.221C368.914 112.521 369.315 112.922 369.624 113.415C369.934 113.908 370.089 114.532 370.089 115.286C370.089 116.094 369.861 116.833 369.412 117.505C368.957 118.177 368.285 118.719 367.386 119.13C366.487 119.541 365.35 119.749 363.982 119.749L363.977 119.754Z" fill="white"/>
<path fill-rule="evenodd" clip-rule="evenodd" d="M348.753 116.833H356.59V119.507H345.441V105.109H356.324V107.782H348.753V110.911H355.439V113.502H348.753V116.833Z" fill="white"/>
<path fill-rule="evenodd" clip-rule="evenodd" d="M328.819 119.507V105.109H331.574L338.735 113.845V105.109H342.027V119.507H339.291L332.111 110.77V119.507H328.819Z" fill="white"/>
<path fill-rule="evenodd" clip-rule="evenodd" d="M318.448 119.753C317.312 119.753 316.258 119.569 315.291 119.197C314.324 118.825 313.488 118.308 312.782 117.636C312.076 116.964 311.525 116.175 311.138 115.271C310.746 114.367 310.553 113.381 310.553 112.308C310.553 111.234 310.746 110.253 311.138 109.344C311.529 108.44 312.081 107.652 312.791 106.98C313.507 106.308 314.343 105.785 315.301 105.418C316.263 105.046 317.302 104.862 318.429 104.862C319.555 104.862 320.614 105.046 321.566 105.418C322.519 105.79 323.35 106.308 324.056 106.98C324.762 107.652 325.313 108.435 325.715 109.334C326.111 110.233 326.309 111.225 326.309 112.308C326.309 113.391 326.111 114.367 325.715 115.281C325.318 116.195 324.767 116.983 324.056 117.645C323.35 118.312 322.519 118.83 321.566 119.197C320.614 119.569 319.575 119.753 318.448 119.753ZM318.429 116.915C319.072 116.915 319.666 116.804 320.208 116.586C320.749 116.369 321.228 116.05 321.639 115.639C322.05 115.228 322.369 114.74 322.596 114.179C322.824 113.618 322.935 112.994 322.935 112.308C322.935 111.621 322.824 110.997 322.596 110.437C322.369 109.876 322.055 109.387 321.649 108.976C321.243 108.565 320.769 108.251 320.218 108.029C319.671 107.811 319.072 107.7 318.429 107.7C317.786 107.7 317.191 107.811 316.649 108.029C316.108 108.246 315.629 108.565 315.218 108.976C314.807 109.387 314.488 109.876 314.261 110.437C314.034 110.997 313.923 111.621 313.923 112.308C313.923 112.994 314.034 113.599 314.261 114.169C314.488 114.74 314.803 115.228 315.209 115.639C315.615 116.05 316.089 116.364 316.64 116.586C317.186 116.804 317.786 116.915 318.429 116.915Z" fill="white"/>
<path fill-rule="evenodd" clip-rule="evenodd" d="M294.463 119.507V105.104H301.004C302.566 105.104 303.944 105.404 305.138 105.998C306.332 106.593 307.265 107.429 307.937 108.498C308.609 109.566 308.948 110.838 308.948 112.303C308.948 113.768 308.614 115.02 307.937 116.098C307.265 117.176 306.332 118.013 305.138 118.607C303.944 119.202 302.566 119.502 301.004 119.502H294.463V119.507ZM297.794 116.77H300.84C301.802 116.77 302.633 116.587 303.339 116.224C304.045 115.861 304.596 115.344 304.983 114.672C305.375 114 305.568 113.212 305.568 112.308C305.568 111.404 305.375 110.596 304.983 109.929C304.591 109.262 304.045 108.749 303.339 108.387C302.633 108.024 301.802 107.84 300.84 107.84H297.794V116.77Z" fill="white"/>
<path fill-rule="evenodd" clip-rule="evenodd" d="M277.841 119.507V105.109H280.596L287.757 113.845V105.109H291.044V119.507H288.313L281.133 110.77V119.507H277.841Z" fill="white"/>
<path d="M274.422 105.109H271.091V119.512H274.422V105.109Z" fill="white"/>
<path fill-rule="evenodd" clip-rule="evenodd" d="M399.876 100.11V88.4238H395.268V85.7067H407.815V88.4238H403.207V100.11H399.876Z" fill="white"/>
<path d="M393.475 85.7067H390.143V100.11H393.475V85.7067Z" fill="white"/>
<path fill-rule="evenodd" clip-rule="evenodd" d="M369.982 100.11L365.273 85.7067H368.73L371.979 95.8307L375.373 85.7067H378.458L381.75 95.9033L385.105 85.7067H388.292L383.583 100.11H380L376.828 90.3529L373.565 100.11H369.982Z" fill="white"/>
<path fill-rule="evenodd" clip-rule="evenodd" d="M349.657 100.11L356.077 85.7067H359.37L365.805 100.11H362.309L357.697 88.9798L353.07 100.11H349.657Z" fill="white"/>
<path fill-rule="evenodd" clip-rule="evenodd" d="M343.159 100.356C342.008 100.356 340.901 100.202 339.847 99.8922C338.793 99.5828 337.942 99.1815 337.294 98.6884L338.426 96.1791C339.044 96.6191 339.774 96.9768 340.616 97.2621C341.457 97.5425 342.313 97.6827 343.178 97.6827C343.836 97.6827 344.367 97.615 344.774 97.4893C345.18 97.3588 345.475 97.175 345.668 96.943C345.861 96.7109 345.958 96.445 345.958 96.1404C345.958 95.7585 345.808 95.4539 345.504 95.2266C345.204 94.9994 344.803 94.8157 344.309 94.6706C343.816 94.5256 343.27 94.3902 342.675 94.2597C342.081 94.1291 341.481 93.9696 340.886 93.7762C340.287 93.5828 339.745 93.3362 339.252 93.0365C338.759 92.7367 338.358 92.3354 338.048 91.8423C337.739 91.3491 337.584 90.7158 337.584 89.947C337.584 89.1251 337.807 88.3709 338.251 87.694C338.696 87.0171 339.368 86.4708 340.268 86.0695C341.167 85.6634 342.293 85.4603 343.652 85.4603C344.556 85.4603 345.45 85.5667 346.326 85.7794C347.206 85.9921 347.979 86.3112 348.651 86.7367L347.621 89.2653C346.949 88.8834 346.277 88.5981 345.605 88.4096C344.933 88.2258 344.276 88.134 343.633 88.134C342.99 88.134 342.458 88.2113 342.047 88.3612C341.636 88.5111 341.341 88.7093 341.162 88.9462C340.983 89.188 340.896 89.4635 340.896 89.7778C340.896 90.1501 341.046 90.445 341.351 90.6722C341.65 90.8995 342.052 91.0784 342.545 91.2186C343.038 91.3539 343.584 91.4941 344.179 91.6295C344.774 91.7649 345.373 91.9245 345.968 92.1034C346.562 92.2822 347.109 92.5191 347.602 92.8237C348.095 93.1235 348.496 93.5248 348.806 94.0179C349.115 94.5111 349.27 95.1348 349.27 95.889C349.27 96.6964 349.043 97.441 348.593 98.1082C348.139 98.7802 347.467 99.3217 346.567 99.7327C345.668 100.144 344.532 100.352 343.164 100.352L343.159 100.356Z" fill="white"/>
<path fill-rule="evenodd" clip-rule="evenodd" d="M322.872 100.11V88.4238H318.264V85.7067H330.815V88.4238H326.203V100.11H322.872Z" fill="white"/>
<path fill-rule="evenodd" clip-rule="evenodd" d="M309.397 97.4359H317.235V100.11H306.086V85.7067H316.969V88.3803H309.397V91.5084H316.084V94.0999H309.397V97.4359Z" fill="white"/>
<path fill-rule="evenodd" clip-rule="evenodd" d="M297.692 100.356C296.541 100.356 295.434 100.202 294.38 99.8922C293.326 99.5828 292.475 99.1815 291.828 98.6884L292.959 96.1791C293.578 96.6191 294.308 96.9768 295.149 97.2621C295.99 97.5425 296.846 97.6827 297.712 97.6827C298.369 97.6827 298.901 97.615 299.307 97.4893C299.713 97.3588 300.008 97.175 300.201 96.943C300.395 96.7109 300.492 96.445 300.492 96.1404C300.492 95.7585 300.342 95.4539 300.037 95.2266C299.737 94.9994 299.336 94.8157 298.843 94.6706C298.35 94.5256 297.803 94.3902 297.209 94.2597C296.614 94.1291 296.014 93.9696 295.42 93.7762C294.825 93.5828 294.279 93.3362 293.786 93.0365C293.292 92.7367 292.891 92.3354 292.582 91.8423C292.272 91.3491 292.118 90.7158 292.118 89.947C292.118 89.1251 292.34 88.3709 292.785 87.694C293.23 87.0171 293.902 86.4708 294.801 86.0695C295.7 85.6634 296.827 85.4603 298.185 85.4603C299.089 85.4603 299.984 85.5667 300.859 85.7794C301.739 85.9921 302.512 86.3112 303.185 86.7367L302.155 89.2653C301.483 88.8834 300.811 88.5981 300.139 88.4096C299.467 88.2258 298.809 88.134 298.166 88.134C297.523 88.134 296.991 88.2113 296.58 88.3612C296.169 88.5111 295.874 88.7093 295.695 88.9462C295.516 89.188 295.429 89.4635 295.429 89.7778C295.429 90.1501 295.579 90.445 295.884 90.6722C296.184 90.8995 296.585 91.0784 297.078 91.2186C297.571 91.3539 298.118 91.4941 298.712 91.6295C299.307 91.7649 299.907 91.9245 300.501 92.1034C301.096 92.2822 301.642 92.5191 302.135 92.8237C302.628 93.1235 303.03 93.5248 303.339 94.0179C303.649 94.5111 303.803 95.1348 303.803 95.889C303.803 96.6964 303.576 97.441 303.126 98.1082C302.672 98.7802 302 99.3217 301.101 99.7327C300.201 100.144 299.065 100.352 297.697 100.352L297.692 100.356Z" fill="white"/>
<path d="M289.546 85.7067H286.214V100.11H289.546V85.7067Z" fill="white"/>
<path fill-rule="evenodd" clip-rule="evenodd" d="M280.248 100.109L276.646 94.8831H280.205L283.845 100.109H280.248Z" fill="white"/>
<path fill-rule="evenodd" clip-rule="evenodd" d="M271.091 100.11V85.7067H277.323C278.614 85.7067 279.721 85.9146 280.654 86.3352C281.588 86.751 282.308 87.3553 282.816 88.1337C283.323 88.917 283.575 89.8501 283.575 90.9331C283.575 92.0161 283.323 92.925 282.816 93.6986C282.308 94.4722 281.588 95.0669 280.654 95.4778C279.721 95.8888 278.609 96.0967 277.323 96.0967H274.422V100.11H271.091ZM274.422 93.4423H277.14C278.169 93.4423 278.938 93.2199 279.446 92.7751C279.953 92.3303 280.205 91.7163 280.205 90.9331C280.205 90.1498 279.953 89.5213 279.446 89.0814C278.938 88.6414 278.169 88.4238 277.14 88.4238H274.422V93.4423Z" fill="white"/>
<path fill-rule="evenodd" clip-rule="evenodd" d="M332.938 80.7075V66.3094H335.694L342.854 75.0411V66.3094H346.147V80.7075H343.41L336.231 71.9662V80.7075H332.938Z" fill="white"/>
<path fill-rule="evenodd" clip-rule="evenodd" d="M315.286 80.7075L321.707 66.3094H324.994L331.434 80.7075H327.939L323.326 69.5778L318.699 80.7075H315.286Z" fill="white"/>
<path fill-rule="evenodd" clip-rule="evenodd" d="M309.6 80.707L304.48 74.4315L306.661 72.0673L313.492 80.707H309.6Z" fill="white"/>
<path fill-rule="evenodd" clip-rule="evenodd" d="M299.747 80.7075V66.3094H303.059V73.0298L309.436 66.3094H313.14L306.927 72.9911L305.075 74.9686L303.059 77.0717V80.7075H299.747Z" fill="white"/>
<path fill-rule="evenodd" clip-rule="evenodd" d="M289.255 78.0338H297.093V80.7075H285.944V66.3094H296.827V68.9831H289.255V72.1064H295.942V74.7026H289.255V78.0338Z" fill="white"/>
<path fill-rule="evenodd" clip-rule="evenodd" d="M271.091 80.7073V66.3044H277.323C278.614 66.3044 279.721 66.5123 280.654 66.933C281.588 67.3488 282.308 67.9531 282.816 68.7315C283.323 69.5147 283.575 70.4478 283.575 71.5308C283.575 72.6138 283.323 73.5276 282.816 74.306C282.308 75.0893 281.588 75.6888 280.654 76.1046C279.721 76.5204 278.609 76.7331 277.323 76.7331H274.422V80.7025H271.091V80.7073ZM274.422 74.0208H277.14C278.169 74.0208 278.938 73.8032 279.446 73.3633C279.953 72.9233 280.205 72.3141 280.205 71.5308C280.205 70.7476 279.953 70.1191 279.446 69.6791C278.938 69.2392 278.169 69.0216 277.14 69.0216H274.422V74.0208Z" fill="white"/>
<defs>
<linearGradient id="paint0_linear_56_87999" x1="-1.0489e-06" y1="188.479" x2="432" y2="1.95298e-06" gradientUnits="userSpaceOnUse">
<stop stop-color="#004B7F"/>
<stop offset="1" stop-color="#EF8B81"/>
</linearGradient>
<linearGradient id="paint1_linear_56_87999" x1="-1.0489e-06" y1="188.479" x2="432" y2="1.95298e-06" gradientUnits="userSpaceOnUse">
<stop stop-color="#004B7F"/>
<stop offset="1" stop-color="#EF8B81"/>
</linearGradient>
</defs>
</svg>
