<svg width="1920" height="1080" viewBox="0 0 1920 1080" fill="none" xmlns="http://www.w3.org/2000/svg">
<g style="mix-blend-mode:multiply" opacity="0.87">
<path fill-rule="evenodd" clip-rule="evenodd" d="M1920.94 158.469C1864.53 167.561 1806.03 169.723 1750.7 155.015C1712.26 144.795 1678.04 127.126 1645.43 107.86C1588.32 74.1208 1533.34 39.4653 1464.39 23.7704C1419.45 13.55 1373.56 12.1403 1327.22 12.5397C1253.71 13.1741 1180.34 19.1889 1107.46 26.7778C926.113 45.6915 746.563 75.0606 566.728 101.54C470.418 115.731 373.937 129.452 276.971 140.377C184.913 150.715 92.0281 159.033 -1 158.469V142.633C93.6261 143.22 188.138 135.02 281.88 124.988C381.842 114.274 481.348 100.858 580.739 87.0197C766.453 61.1514 951.881 32.5107 1138.94 13.9259C1213.1 6.54841 1287.78 0.651082 1362.55 0.0636999C1407.98 -0.312224 1453.21 0.698079 1497.27 10.7541C1561.5 25.3916 1610.64 58.2615 1661.92 91.5543C1690.86 110.35 1721.45 127.526 1756.52 137.535C1809.51 152.665 1866.47 150.504 1920.94 142.656V158.492V158.469ZM1920.94 1080H-1V1064.16C312.299 1066.14 625.598 1063.08 938.897 1062.99C1142.73 1062.94 1346.48 1063.69 1550.29 1065.97C1673.88 1067.36 1797.41 1067.01 1920.94 1064.14V1079.98V1080ZM1920.94 1049.29C1796.7 1054.84 1672.45 1055.17 1548.09 1052.32C1458.48 1050.28 1368.94 1047.51 1279.31 1046.78C1163.85 1045.84 1048.33 1046.03 932.876 1046.19C621.603 1046.64 310.273 1052.75 -1 1049.32V1033.48C306.478 1038.04 614.013 1028.59 921.462 1027.42C986.039 1027.18 1050.62 1027.25 1115.19 1028.08C1166.67 1028.71 1218.15 1027.51 1269.63 1028.24C1361.55 1029.56 1453.29 1034.02 1545.09 1037.31C1670.51 1041.8 1795.73 1041.82 1920.91 1033.48V1049.32L1920.94 1049.29ZM1920.94 1018.58V1002.75C1791.99 1016.54 1662.72 1014.75 1533.36 1006.69C1436.97 1000.68 1340.74 992.645 1244.09 989.802C1192.41 988.274 1140.79 989.661 1089.11 988.838C1025.02 987.828 960.927 987.946 896.835 988.65C597.576 991.94 298.345 1008.53 -1 1002.75V1018.58C302.882 1023.89 606.793 1011.06 910.647 1009C975.081 1008.55 1039.52 1008.55 1103.92 1009.51C1155.43 1010.27 1206.91 1008.9 1258.45 1010.01C1352.47 1012 1446.21 1018.16 1540.1 1022.7C1667.23 1028.87 1794.16 1029.58 1920.97 1018.58H1920.94ZM1920.94 987.875C1789.65 1004.3 1657.67 1001.22 1525.83 991.305C1426.75 983.857 1327.93 973.919 1228.48 970.16C1176.55 968.186 1124.7 969.502 1072.76 968.656C1009.12 967.622 945.489 967.927 881.854 968.914C587.56 973.496 293.465 993.843 -1 987.852V972.016C287.672 978.007 575.631 953.501 863.99 947.228C926.969 945.866 990.006 945.349 1052.99 946.335C1105.32 947.181 1157.51 946.053 1209.85 948.52C1312.55 953.384 1414.45 965.39 1516.67 974.483C1651.39 986.442 1786.77 991.211 1920.91 971.992V987.828L1920.94 987.875ZM1920.94 957.167V941.331C1779.97 966.001 1636.04 957.002 1494.5 940.837C1385.75 928.408 1277.54 912.197 1167.99 904.937C1113.88 901.342 1060.03 901.812 1005.84 901.131C946.431 900.379 886.961 901.389 827.606 903.504C551.176 913.278 276.144 946.735 -1 941.307V957.143C282.907 962.946 565.501 934.094 848.894 926.247C909.134 924.579 969.431 923.85 1029.7 924.72C1083.29 925.472 1136.62 924.649 1190.16 927.657C1295.89 933.601 1400.58 947.604 1505.68 958.271C1643.86 972.298 1783.37 979.041 1920.91 957.143L1920.94 957.167ZM1920.94 926.458V910.623C1772.75 940.626 1618.92 926.623 1470.33 906.205C1353.87 890.205 1238.19 869.506 1120.64 859.426C1008.73 849.817 894.352 851.978 782.205 857.993C520.585 872.02 262.047 914.875 -1 910.576V926.411C269.438 931.345 536.794 893.424 806.204 881.606C864.646 879.045 923.202 877.729 981.73 878.364C1036.58 878.951 1090.97 878.904 1145.67 883.063C1258.99 891.638 1370.74 910.012 1483.14 924.156C1628.02 942.388 1776.58 953.689 1920.94 926.435V926.458ZM1920.94 895.75C1769.04 928.338 1609.81 911.609 1457.66 889.124C1337.23 871.338 1217.7 848.407 1096.05 836.824C984.441 826.204 870.468 828.272 758.606 835.438C504.605 851.626 254.884 899.298 -1 895.68V879.844C132.778 881.371 265.243 868.12 397.109 850.78C508.058 836.19 618.778 819.813 730.726 811.238C842.759 802.638 956.733 800.688 1068.51 812.389C1195.3 825.664 1319.63 851.133 1444.99 870.916C1600.62 895.468 1765.39 915.063 1920.94 879.867V895.703V895.75ZM1920.94 865.042C1761.48 902.799 1590.78 880.196 1431.43 853.623C1301.82 831.984 1173.38 804.213 1042.23 789.34C930.707 776.676 817.39 778.321 705.614 788.283C597.918 797.892 491.82 815.984 385.409 832.195C257.652 851.555 129.239 866.076 -1 864.971V849.135C125.415 849.793 249.462 833.934 372.739 812.13C474.242 794.18 575.317 774.209 678.447 763.495C789.967 751.912 902.485 750.808 1013.78 764.459C1149.67 781.117 1282.53 811.332 1416.74 834.968C1580.02 863.703 1757.26 889.594 1920.94 849.159V864.995V865.042ZM1920.94 834.334C1753.29 877.33 1569.69 848.243 1402.7 817.487C1264.1 791.972 1127.04 759.454 986.61 741.104C875.518 726.584 763.771 727.054 652.508 740.235C553.687 751.959 457.434 773.763 360.611 793.358C241.672 817.393 121.877 834.474 -1 834.263V818.427C118.624 818.192 234.253 799.725 348.883 772.94C440.37 751.56 531.143 727.994 625.17 715.236C735.834 700.246 846.469 700.622 957.018 715.964C1102.92 736.217 1245.18 771.413 1389.11 798.997C1476.23 815.702 1564.33 830.386 1653.53 836.871C1743.13 843.379 1834.71 841.335 1920.91 818.404V834.239L1920.94 834.334ZM1920.94 803.625V787.789C1831.42 813.235 1735.2 814.409 1641.83 806.727C1546.63 798.879 1452.78 781.939 1360.09 762.884C1206.97 731.401 1055.95 691.482 900.659 667.588C839.677 658.213 777.639 651.376 715.487 652.997C667.061 654.266 618.778 658.871 571.322 667.071C485.771 681.849 405.213 709.174 323.542 734.056C218.358 766.033 111.69 786.638 -1 787.719V803.555C115.171 802.897 226.462 783.349 336.583 754.05C423.305 730.978 509.142 705.579 599.031 691.835C647.914 684.363 697.481 680.111 747.191 679.077C808.487 677.808 869.383 683.658 929.652 692.469C1080.12 714.484 1226.63 751.983 1375.04 781.469C1464.88 799.326 1555.76 815.114 1647.88 822.257C1739.31 829.352 1833.14 827.708 1920.97 803.578L1920.94 803.625ZM1920.94 772.917V757.081C1828.57 785.017 1728.09 785.369 1631.39 776.676C1529.25 767.489 1428.75 748.059 1329.59 726.42C1169.1 691.412 1011.01 647.452 848.209 619.986C785.943 609.484 721.537 600.485 657.759 602.623C611.016 604.197 564.445 609.39 519.158 619.117C441.083 635.892 370.57 667.024 298.288 695.547C258.08 711.406 217.017 725.738 174.184 736.076C117.168 749.774 58.2697 756 -1 756.987V772.823C59.7821 772.024 120.165 766.103 179.035 753.416C224.151 743.689 267.84 730.226 310.815 715.377C388.12 688.663 463.998 659.388 546.039 643.622C592.782 634.624 640.551 629.737 688.492 628.374C751.471 626.565 814.679 634.577 876.289 644.539C1034.47 670.149 1188.19 711.759 1344.14 744.864C1440.48 765.304 1538.07 783.584 1637.15 792.089C1732.03 800.242 1830.17 799.419 1920.97 772.823L1920.94 772.917ZM1920.94 742.209V726.373C1826.12 756.917 1721.59 756.517 1621.83 746.931C1512.9 736.452 1405.86 714.578 1300.39 690.401C1130.97 651.564 964.266 602.976 792.25 572.244C729.242 560.99 663.352 550.605 598.603 553.471C554.286 555.445 510.141 561.295 467.85 572.502C397.109 591.204 337.154 625.813 274.574 657.602C239.732 675.294 203.576 691.2 164.967 702.619C111.632 718.29 55.4732 724.987 -1 726.279V742.115C56.9571 740.963 114.515 734.455 169.761 719.7C210.51 708.798 249.206 693.667 286.816 676.868C354.476 646.677 419.938 613.807 494.474 596.138C538.449 585.707 583.964 580.232 629.622 578.517C694.142 576.074 759.633 585.965 822.47 596.961C989.549 626.142 1151.63 672.263 1316.29 709.08C1418.05 731.824 1521.24 752.312 1626.16 762.109C1724.53 771.296 1827.17 771.343 1920.91 742.138L1920.94 742.209ZM1920.94 711.5V695.664C1823.95 729.051 1715.31 727.947 1612.67 717.492C1498.38 705.861 1386.23 681.92 1275.8 655.605C1098.47 613.314 924.258 560.52 744.138 526.452C680.217 514.352 612.472 502.392 546.524 505.799C504.062 507.984 461.715 514.234 421.907 526.827C357.044 547.315 307.163 585.096 253.6 620.057C223.808 639.487 192.219 656.921 157.262 669.397C107.238 687.112 53.1617 694.067 -1 695.57V711.406C54.3032 709.997 109.378 703.159 161.057 686.384C197.84 674.448 231.741 657.79 264.073 639.229C322.23 605.866 377.248 569.683 444.993 550.088C486.056 538.223 529.26 532.137 572.635 530.046C637.983 526.898 704.843 538.082 768.308 549.759C944.348 582.135 1114.77 632.791 1288.12 673.344C1396.05 698.578 1505.63 721.486 1617.2 732.529C1718.42 742.538 1825 743.313 1920.94 711.406V711.5ZM1920.94 680.792V664.956C1821.44 701.844 1707.75 699.729 1601.68 688.263C1484.42 675.576 1369.45 650.201 1256.33 622.359C1072.16 577.037 891.47 520.46 704.501 483.079C599.06 462.004 484.629 444.923 381.614 482.774C321.545 504.859 281.109 545.224 236.079 582.934C210.767 604.127 183.059 623.252 150.699 636.785C103.756 656.333 51.1927 663.288 -1 664.839V680.674C52.0774 679.147 105.269 672.169 153.695 653.49C187.539 640.451 217.359 622.03 245.068 601.589C294.321 565.266 339.494 526.287 401.789 505.071C441.112 491.679 483.402 485.358 525.721 483.197C592.239 479.79 661.211 492.759 725.532 505.329C908.906 541.136 1086.23 595.739 1266.86 639.464C1377.81 666.319 1490.47 690.777 1605.33 702.971C1710.23 714.108 1822.06 715.917 1920.91 680.674L1920.94 680.792ZM1920.94 650.084C1821.38 688.451 1706.41 686.219 1599.74 674.613C1480.71 661.643 1364.12 635.564 1249.4 606.97C1061.23 560.073 876.831 501.359 685.81 462.497C581.738 441.328 465.91 422.579 364.549 462.145C305.936 485.029 269.666 526.898 228.146 565.947C205.374 587.351 180.005 606.758 149.586 620.621C103.585 641.414 50.9645 648.415 -1 649.943V634.107C50.2225 632.674 102.529 625.837 147.274 604.103C176.923 589.701 200.751 569.401 221.64 547.127C259.25 507.021 291.354 464.142 348.255 440.647C447.846 399.483 565.358 419.83 667.946 441.093C861.365 481.176 1047.93 541.442 1238.41 589.654C1356.13 619.469 1475.89 646.747 1598.2 660.116C1705.38 671.84 1821.52 674.119 1920.91 634.083V649.919L1920.94 650.084ZM1920.94 619.375C1821.67 661.15 1704.21 658.753 1596.46 646.912C1472.38 633.261 1350.96 605.231 1231.71 574.664C1038.72 525.206 849.779 463.343 653.792 422.062C552.403 400.705 432.836 378.901 334.614 421.498C278.912 445.651 250.461 489.588 216.046 530.61C196.956 553.377 174.669 574.217 145.933 588.972C102.101 611.293 49.7945 617.895 -1 619.234V603.398C49.395 602.247 101.816 595.974 144.877 572.855C172.814 557.841 193.646 536.555 211.053 513.435C242.642 471.449 267.583 426.197 322.629 401.386C419.253 357.826 540.56 380.757 640.523 402.115C839.82 444.712 1031.73 508.525 1228 559.345C1348.36 590.523 1471.01 619.117 1596.37 632.862C1704.21 644.68 1822.49 646.982 1920.97 603.398V619.234L1920.94 619.375ZM1920.94 588.667C1823.49 634.013 1704.7 631.922 1597 620.198C1469.04 606.289 1343.91 576.661 1221.18 544.496C1023.82 492.759 830.859 427.818 630.364 384.423C531.4 363.019 407.724 339.171 312.413 384.07C258.423 409.492 236.593 455.566 207.571 498.022C191.819 521.048 172.557 542.358 145.847 557.489C103.1 581.548 49.6803 587.563 -1 588.503V572.667C49.6518 571.985 103.699 566.487 146.161 541.817C172.814 526.334 191.248 504.39 205.888 480.753C232.54 437.804 251.916 391.213 305.422 365.579C339.951 349.039 380.7 343.212 420.109 341.52C489.481 338.513 559.337 352.281 625.855 366.966C827.635 411.513 1021.71 477.605 1220.46 530.164C1343.8 562.775 1469.7 592.826 1598.45 606.641C1705.84 618.177 1824.98 619.986 1920.94 572.667V588.503V588.667ZM1920.94 557.959C1825.4 607.91 1704.21 605.819 1596 594C1468.42 580.091 1343.68 550.135 1221.52 517.594C1020.77 464.119 824.895 396.476 621.061 351.059C555.57 336.469 487.54 323.406 419.224 325.685C378.874 327.024 336.869 332.404 301.484 349.368C247.693 375.166 230.372 422.72 205.174 466.257C191.391 490.034 173.642 512.19 147.217 527.673C104.641 552.508 49.7945 557.418 -1 557.794V541.958C49.5376 541.606 103.699 536.461 146.047 511.72C172.643 496.19 190.792 474.057 205.117 450.303C231.285 406.861 249.776 359.259 303.738 333.391C338.866 316.545 380.472 311.07 420.566 309.731C489.138 307.429 557.511 320.398 623.287 334.965C826.55 379.982 1021.8 447.507 1221.86 500.936C1343.57 533.43 1467.82 563.339 1594.92 577.319C1703.53 589.254 1824.55 591.205 1920.94 541.982V557.818V557.959ZM1920.94 527.25C1823.98 573.936 1705.18 572.573 1597.17 560.802C1469.39 546.869 1344.54 516.725 1222.23 483.972C1024.99 431.178 832.343 364.828 631.762 320.845C564.731 306.137 494.674 292.909 424.846 295.728C385.751 297.326 345.544 303.223 311.272 319.552C257.082 345.35 235.451 392.364 206.886 435.36C191.163 459.02 171.901 481.106 144.734 496.73C102.444 520.836 49.3379 526.593 -1 527.086V511.25C49.4806 510.639 101.787 504.272 144.478 480.518C172.186 465.105 192.875 443.49 210.282 420.3C242.385 377.586 267.868 330.642 323.343 304.844C418.625 260.532 542.643 283.792 641.521 305.103C839.991 347.841 1030.44 413.486 1225.26 465.857C1346.19 498.375 1469.59 528.308 1595.94 542.452C1704.32 554.575 1822.52 556.009 1920.94 511.25V527.086V527.25ZM1920.94 496.542V480.706C1821.12 521.87 1705.07 520.39 1597.03 507.655C1476.12 493.417 1358.15 464.495 1242.44 433.058C1054.61 382.026 870.839 318.424 679.075 277.637C577.458 256.021 457.691 235.51 359.184 277.308L358.471 277.613C367.431 272.562 376.42 267.581 385.523 262.694C484.658 224.702 600.23 243.122 701.733 264.597C889.615 304.351 1069.51 366.919 1253.34 417.269C1366.48 448.259 1481.83 476.759 1600.08 490.95C1707.12 503.802 1821.38 505.141 1920.97 465.787V449.951C1821.75 487.567 1709.26 486.251 1603.28 473.188C1489.3 459.114 1378.18 431.46 1269.15 401.339C1089.4 351.67 913.529 289.995 729.584 251.181C626.825 229.495 513.594 213.119 412.918 249.066C420.451 245.472 428.013 241.924 435.633 238.47C539.105 202.1 652.308 216.455 758.035 238.705C937.271 276.415 1108.4 336.986 1283.24 385.879C1389.2 415.507 1497.21 442.714 1608.04 456.694C1712.49 469.851 1822.69 471.003 1920.97 435.102V419.266C1823.75 453.499 1715.8 452.418 1613.01 439.073C1505.43 425.093 1400.7 398.261 1297.97 369.057C1129.46 321.173 964.494 262.2 791.479 225.806C727.501 212.343 659.927 200.713 593.524 203.509C549.606 205.365 506.146 212.672 465.339 226.276C462.599 227.192 459.86 228.132 457.149 229.096C462.771 226.746 468.392 224.443 474.042 222.188C481.605 219.415 489.281 216.807 497.1 214.387C539.476 201.23 584.164 193.853 629.365 192.02C694.941 189.365 761.459 200.455 824.667 213.753C992.317 249.02 1151.86 306.771 1314.83 353.832C1414.05 382.496 1515.21 408.834 1619.26 422.673C1720.02 436.065 1825.32 436.935 1921 404.347V388.511C1828.14 419.078 1726.95 418.726 1629.53 405.709C1527.8 392.106 1429.06 365.814 1332.27 337.268C1175.29 290.982 1021.48 234.405 859.453 200.596C797.215 187.603 732.153 177.406 667.661 180.108C621.546 182.035 576.031 189.506 532.456 202.052C515.506 206.939 498.983 212.555 482.803 218.711C510.34 207.973 538.506 198.317 567.698 190.493C613.014 178.369 660.099 170.898 707.725 169.018C771.247 166.504 835.054 176.114 896.378 188.919C1052.5 221.53 1200.35 276.838 1351.25 322.254C1444.13 350.214 1538.96 375.964 1636.75 389.404C1731.8 402.467 1830.11 402.632 1921 373.615V357.779C1742.08 413.087 1544.38 359.353 1374.25 306.982C1230.45 262.717 1089.65 209.031 940.581 177.382C879.999 164.531 817.048 155.179 754.268 157.341C704.701 159.033 655.647 166.316 608.134 177.993C512.167 201.559 424.504 241.971 335.214 278.365C229.059 321.526 118.966 356.275 -1 357.662V373.497C113.83 371.994 217.188 337.667 316.38 292.697C334.928 284.286 353.363 275.663 371.854 267.087C362.238 272.209 352.992 277.754 344.06 283.581C348.055 281.513 352.05 279.446 356.074 277.378C360.468 274.653 364.891 271.974 369.372 269.366C357.871 274.7 347.113 280.715 336.897 287.293C324.684 293.59 312.47 299.887 300.228 306.042C258.651 326.953 215.904 346.501 170.417 361.021C115.485 378.502 57.8131 387.548 -1 388.37V404.206C55.8156 403.336 111.518 394.502 164.025 376.411C206.943 361.609 246.609 341.426 284.876 319.787C294.236 314.501 303.539 309.144 312.813 303.763C307.391 307.734 302.169 311.893 297.118 316.192C288.272 321.949 279.397 327.682 270.465 333.321C235.622 355.359 199.124 375.894 158.945 390.837C108.465 409.586 54.2461 418.209 -1 419.102V434.938C53.3044 434.045 106.724 425.516 155.607 405.615C192.361 390.672 225.007 370.185 255.883 348.146C265.757 341.097 275.516 333.931 285.247 326.742C282.393 329.397 279.568 332.099 276.772 334.848C284.219 328.668 291.667 322.536 299.201 316.498C307.22 310.624 315.267 304.797 323.428 299.088C320.717 300.592 318.092 302.166 315.524 303.763C314.154 304.797 312.784 305.831 311.443 306.888C315.666 304.163 319.861 301.437 324.085 298.712C329.05 295.963 334.215 293.379 339.608 290.982C436.318 248.127 557.939 270.165 657.901 291.569C854.173 333.532 1042.37 398.567 1234.88 450.421C1352.67 482.163 1472.81 511.344 1595.86 525.465C1704.27 537.894 1821.58 539.374 1920.91 496.378L1920.94 496.542ZM302.682 312.504L301.883 313.115L302.283 312.856L302.711 312.504H302.682ZM285.447 326.624L290.583 322.842C283.849 328.762 277.285 334.801 270.75 340.909C251.146 361.327 234.395 383.976 216.161 405.568C196.328 429.017 173.47 450.82 143.935 466.28C100.703 488.883 49.3664 495.649 -1 496.354V480.518C50.0513 479.719 101.445 472.436 145.733 450.444C176.809 434.985 201.921 413.392 224.293 390.109C239.846 373.944 254.627 357.192 270.322 341.262C257.966 352.822 245.838 364.616 233.339 376.082C208.285 399.084 180.833 420.417 148.045 435.783C102.558 457.07 50.8503 464.8 -1 465.646V449.81C52.0774 448.917 104.527 440.741 151.726 420.135C186.226 405.052 216.132 384.282 243.926 361.891C254.856 353.104 265.557 344.128 276.344 335.177C279.283 332.263 282.308 329.397 285.418 326.601L285.447 326.624ZM383.868 263.234C382.926 263.61 381.956 263.962 381.014 264.362C380.586 264.526 380.158 264.714 379.73 264.879C377.305 266.242 374.908 267.604 372.511 268.967C376.277 267.04 380.073 265.137 383.839 263.234H383.868ZM404.443 252.097C409.18 249.936 413.917 247.798 418.654 245.683C415.572 247.187 412.49 248.691 409.408 250.218C408.58 250.523 407.753 250.829 406.925 251.134C406.098 251.44 405.27 251.768 404.443 252.097ZM1921 342.789V326.953C1753.09 375.706 1574.86 327.635 1416.88 276.227C1286.55 233.818 1159.03 182.857 1022.97 153.746C964.723 141.294 904.74 133.282 844.443 135.067C791.279 136.618 738.573 143.784 687.094 154.639C454.153 203.815 245.753 324.933 -1 326.953V342.789C123.846 341.544 240.245 306.7 352.763 265.043C448.988 229.424 543.842 189.882 645.916 166.575C695.312 155.297 746.107 148.06 797.386 146.439C858.996 144.466 920.52 153.159 979.99 165.846C1122.81 196.273 1257.25 248.644 1394.59 292.016C1558.99 343.917 1747.24 394.902 1920.94 342.813L1921 342.789ZM1921 312.081V296.245C1765.45 338.489 1607.19 296.55 1462.57 246.294C1344.97 205.412 1230.02 156.636 1105.92 130.063C1049.99 118.08 992.974 111.76 935.159 113.287C878.857 114.791 822.926 121.769 767.994 131.778C510.084 178.792 267.897 294.953 -1 296.221V312.057C256.14 310.389 481.062 191.738 725.789 143.596C778.609 133.211 832.543 126.116 886.876 124.518C946.031 122.779 1004.56 129.828 1061.75 141.999C1192.78 169.887 1314.89 220.144 1439.74 261.989C1591.06 312.692 1759.26 357.544 1920.91 312.057L1921 312.081ZM1921 281.372V265.537C1848.06 283.91 1772.35 285.273 1697.93 272.139C1631.19 260.368 1567.61 238.799 1505.77 215.421C1402.84 176.513 1302.25 130.932 1192.07 106.991C1079.04 82.4381 962.839 90.9669 849.294 108.964C713.176 130.533 580.853 165.517 447.818 197.048C301.912 231.586 151.897 265.302 -1 265.513V281.349C146.504 280.903 290.269 246.553 429.897 210.534C554.914 178.275 679.189 142.539 807.716 120.688C864.646 111.008 922.489 104.148 980.646 102.738C1037.18 101.375 1092.79 107.061 1147.53 118.832C1265.09 144.16 1373.28 191.527 1484.02 231.516C1549.43 255.128 1616.49 276.885 1686.6 288.914C1764.82 302.354 1844.49 301.414 1920.94 281.349L1921 281.372ZM1921 250.664V234.828C1853.34 250.406 1783.54 252.121 1715.11 238.776C1657.01 227.451 1602.31 207.033 1549.26 184.877C1460.23 147.684 1373.39 105.088 1276.17 83.6834C1163.22 58.8019 1043.31 70.1736 929.623 85.9154C779.694 106.685 632.789 139.954 485.343 169.934C326.482 202.146 163.54 235.04 -1 234.781V250.617C157.576 250.617 313.926 217.301 466.138 183.867C606.222 153.112 745.679 118.95 888.531 97.7805C1002.19 80.9344 1120.13 70.9489 1233.16 95.6659C1336.98 118.362 1430.86 162.51 1527.03 200.572C1584.59 223.363 1643.83 244.344 1706.35 255.927C1777.83 269.155 1850.63 267.628 1920.97 250.617L1921 250.664ZM1921 219.956V204.12C1858.16 217.019 1793.56 218.969 1730.69 205.201C1680.72 194.252 1634.5 174.821 1589.84 153.77C1514.59 118.268 1441.36 78.9608 1356.78 60.0706C1307.96 49.1688 1258.56 46.4434 1208.17 47.1717C1141.42 48.1115 1074.87 54.1968 1008.87 62.2087C845.213 82.0622 684.012 113.757 522.411 142.351C350.909 172.589 175.24 204.754 -1 204.073V219.909C169.532 220.379 339.009 187.744 504.262 156.378C658.814 127.056 812.939 94.5147 969.774 74.2617C1082.86 59.6477 1203.74 47.3597 1315.97 72.2881C1406.69 92.4471 1486.71 133.329 1568.75 169.606C1617.75 191.268 1668.34 211.239 1722.5 222.446C1788.28 236.027 1855.57 234.217 1920.91 219.932L1921 219.956ZM1921 189.248V173.412C1862.73 183.703 1802.57 185.841 1745.02 171.556C1702.73 161.053 1664.52 142.68 1627.9 122.709C1565.24 88.5234 1504.54 52.3877 1430.98 35.7765C1384.29 25.2272 1336.81 23.5355 1288.67 24.0759C1218.87 24.8982 1149.18 30.725 1080.01 38.22C903.798 57.3217 729.584 87.4896 555.028 114.697C460.63 129.405 366.09 143.643 270.979 154.898C180.918 165.494 90.0591 173.858 -1 173.365V189.201C180.405 190.07 361.61 158.328 538.62 128.935C706.641 101.023 874.263 70.1031 1044.14 50.602C1111.74 42.8486 1179.86 36.9043 1248.14 36.0115C1297.4 35.3771 1345.85 37.5857 1393.56 48.323C1472.64 66.0854 1539.7 103.889 1608.73 138.709C1649.42 159.221 1691.68 178.134 1737.83 188.872C1798.07 202.875 1860.39 200.807 1920.94 189.201L1921 189.248Z" fill="#F15D22" fill-opacity="0.3"/>
</g>
</svg>
