<svg width="1080" height="1080" viewBox="0 0 1080 1080" fill="none" xmlns="http://www.w3.org/2000/svg">
<g clip-path="url(#clip0_262_1136)">
<path d="M1080 548.44V885.94C1070.5 912.75 1053.03 928.23 1023.14 928.22C701.06 928.08 378.97 928.14 56.89 928.08C52 928.08 47.02 927.87 42.25 926.89C19.53 922.25 7.26 906.63 0 885.94V548.44C9.47 521.59 26.99 506.15 56.87 506.17C378.96 506.31 701.06 506.25 1023.15 506.3C1028.03 506.3 1033.02 506.53 1037.79 507.48C1060.62 512 1072.66 527.85 1079.99 548.44H1080ZM446.24 708.06C472.98 697.29 475.37 675.44 472.63 651.37C470.29 630.75 459.33 616.5 439.3 611.12C408.73 602.91 377.5 607.67 346.51 606.73V827.41C369.41 827.41 391.52 827.44 413.62 827.38C418.18 827.37 422.78 827.33 427.3 826.79C447.58 824.37 464.51 816.44 473.76 796.94C490.29 762.12 479.5 726.8 446.23 708.06H446.24ZM797.9 715.25C797.01 715.22 796.13 715.19 795.24 715.16C795.24 696.2 796.28 677.16 795 658.29C793.07 629.85 778.21 611.16 753.92 606.24C742.37 603.9 730.1 603.03 718.37 604.03C685.2 606.87 667.51 624.72 664.51 657.84C663.06 673.9 662.94 690.12 663 706.26C663.09 729.78 662.71 753.4 664.69 776.8C667.17 805.94 682.79 824.49 707.51 828.51C720.14 830.57 733.49 830.8 746.2 829.26C773.24 825.99 788.56 812.47 792.86 785.47C796.53 762.38 796.38 738.68 797.91 715.25H797.9ZM638.04 716.56C637.46 716.53 636.88 716.49 636.3 716.46C636.3 701 636.4 685.53 636.24 670.07C636.19 665.52 635.5 660.97 634.96 656.43C631.61 628.42 616.54 610.07 592.08 605.77C581.79 603.96 571.08 603.23 560.66 603.79C528.43 605.51 508.23 620.48 505.8 652.42C502.56 694.98 503.48 738.04 505.51 780.74C506.69 805.5 521.37 823.78 547.25 828.45C559.82 830.72 573.22 830.83 585.93 829.31C613.11 826.05 628.2 812.84 632.74 785.7C636.54 763 636.43 739.64 638.04 716.57V716.56ZM959.02 608.46C957.56 607.58 956.99 606.94 956.41 606.93C947.98 606.77 939.55 606.63 931.12 606.61C918.433 606.583 909.72 612.36 904.98 623.94C895.73 646.47 886.44 668.98 877.17 691.5C876.4 691.35 875.63 691.2 874.86 691.05V607.56H826.99V826.62H875.18C875.18 799.18 875.03 772.53 875.32 745.88C875.37 741.35 877.28 736.83 878.34 732.31C882.01 735.74 883.05 738.69 884.03 741.67C892.54 767.68 900.9 793.74 909.71 819.66C910.73 822.65 914.07 826.91 916.5 827.03C931.09 827.72 945.72 827.37 961.67 827.37C952.07 800.02 945.06 773.29 933.46 748.72C919.56 719.3 920 692.79 935.79 664.46C945.59 646.88 951.46 627.11 959.03 608.47L959.02 608.46ZM118.55 826.69H216.96V794.31H167.78V728.02H204.46V694.05H167.52V639.62H216.8V607.32H118.55V826.68V826.69ZM311.35 745.54V718.28H242.15V745.54H311.35Z" fill="#0E5684"/>
<path d="M160.309 0H651.789C651.789 87.53 651.769 175.05 651.789 262.58C651.789 293.32 668.579 310.06 699.389 310.07C782.699 310.09 866.009 310.07 949.319 310.07C953.359 310.07 957.399 310.07 961.289 310.07V463.39H118.129C118.129 460.33 118.129 457.93 118.129 455.53C118.129 321.95 118.129 188.38 118.179 54.8C118.179 50.61 118.489 46.35 119.309 42.25C123.899 19.44 139.709 7.36 160.309 0Z" fill="#0E5684"/>
<path d="M919.691 1080H160.311C140.581 1072.88 122.911 1061.82 120.371 1039.74C117.771 1017.07 119.791 993.87 119.791 970.98H961.631C961.631 991.96 962.901 1012.38 961.311 1032.57C959.321 1057.91 942.551 1072.06 919.681 1080H919.691Z" fill="#0E5684"/>
<path d="M696.088 0C698.368 2.93 700.358 6.15 702.968 8.76C785.608 91.5 868.298 174.21 951.078 256.81C953.988 259.71 957.988 261.51 961.488 263.83L959.018 267.05H693.988V0C694.688 0 695.398 0 696.098 0H696.088Z" fill="#0E5684"/>
<path d="M395.102 727.62C407.472 727.26 420.822 724.7 427.782 737.03C436.132 751.82 436.002 768.45 427.822 783.38C420.862 796.07 407.522 793.14 395.102 793.16V727.62Z" fill="#0E5684"/>
<path d="M395.289 639.539C420.849 638.189 430.949 646.32 430.569 667.34C430.159 690 422.149 696.239 395.289 694.069V639.549V639.539Z" fill="#0E5684"/>
<path d="M713.12 718.3C713.12 700.76 712.971 683.22 713.211 665.69C713.281 660.13 713.891 654.46 715.141 649.05C716.831 641.66 722.07 637.84 729.68 637.87C737.15 637.89 742.701 641.34 744.511 648.76C745.821 654.15 746.51 659.83 746.54 665.38C746.72 699.75 746.71 734.13 746.54 768.5C746.51 774.06 745.851 779.73 744.581 785.14C742.701 793.16 736.86 796.29 728.86 796.04C721.13 795.79 716.09 792.08 714.86 784.46C713.81 777.92 713.301 771.24 713.211 764.62C712.981 749.19 713.141 733.75 713.141 718.32L713.12 718.3Z" fill="#0E5684"/>
<path d="M586.23 716.91C586.23 736.56 586.66 756.21 586.09 775.84C585.66 790.75 579.18 797.81 567.76 795.51C562.97 794.55 557.79 789.73 555.2 785.27C552.78 781.1 553.06 775.07 553.04 769.85C552.88 734.77 552.86 699.68 553.05 664.6C553.08 659.05 552.83 652.5 555.55 648.22C558.48 643.63 564.73 638.58 569.59 638.53C574.43 638.48 580.65 643.45 583.81 647.94C586.49 651.75 586.21 658.02 586.29 663.22C586.55 681.11 586.39 699 586.39 716.9C586.34 716.9 586.29 716.9 586.23 716.9V716.91Z" fill="#0E5684"/>
</g>
<defs>
<clipPath id="clip0_262_1136">
<rect width="1080" height="1080" fill="white"/>
</clipPath>
</defs>
</svg>
