<svg width="1080" height="1080" viewBox="0 0 1080 1080" fill="none" xmlns="http://www.w3.org/2000/svg">
<g clip-path="url(#clip0_262_1147)">
<path d="M1080 86.4802V451.4C1079.59 451.95 1078.94 452.45 1078.79 453.07C1064.43 510.7 1029.56 537.89 969.931 537.89C831.421 537.89 692.911 537.96 554.401 537.71C546.331 537.7 540.831 540.17 535.231 545.82C492.941 588.54 450.301 630.92 407.821 673.46C397.611 683.68 385.761 686.88 372.201 681.75C359.091 676.79 352.351 665.93 352.301 650.13C352.201 616.73 352.271 583.34 352.271 549.94C352.271 546.2 352.271 542.45 352.271 537.88C347.621 537.88 344.181 537.88 340.741 537.88C314.021 537.86 287.301 538.24 260.591 537.74C206.991 536.73 162.961 493.58 162.681 440.16C162.091 325.91 161.891 211.65 162.841 97.4002C163.171 57.5702 183.541 28.0802 219.351 10.2502C228.611 5.64023 239.031 3.35023 248.921 -0.00976562C497.121 -0.00976562 745.331 -0.00976562 993.531 -0.00976562C995.101 0.620234 996.621 1.50023 998.251 1.84023C1032.89 8.91023 1057.4 28.7302 1071.72 60.8702C1075.35 69.0202 1077.29 77.9202 1080.01 86.4702L1080 86.4802ZM942.711 349.83C988.761 275.02 964.111 194.53 909.361 154.39C851.871 112.24 773.721 118.45 723.611 169.11C674.101 219.16 668.841 297.8 711.031 354.26C751.401 408.29 832.681 433.74 907.981 385.19C912.711 390.63 917.331 396.93 922.931 402.18C934.531 413.06 950.511 412.81 960.721 402.24C970.781 391.82 970.821 376.72 960.141 365.27C954.901 359.65 948.631 355 942.721 349.83H942.711ZM667.181 381.64C665.761 377.43 663.421 369.77 660.611 362.29C633.931 291.42 607.221 220.56 580.401 149.75C574.621 134.48 563.921 126.37 549.891 126.66C535.371 126.96 525.261 134.27 520.101 147.75C491.191 223.4 462.311 299.06 433.711 374.83C428.021 389.91 434.681 404.08 448.671 409.44C462.491 414.74 476.551 408.31 482.791 393.39C487.121 383.04 491.271 372.59 494.711 361.93C496.701 355.75 500.021 354.18 506.171 354.24C535.321 354.54 564.471 354.54 593.621 354.24C599.541 354.18 602.311 356.07 604.211 361.65C608.161 373.25 612.441 384.79 617.431 395.98C622.691 407.78 635.261 413.55 646.991 410.61C658.841 407.65 666.921 397.52 667.161 381.65L667.181 381.64ZM338.021 179.29C359.511 179.29 380.491 179.37 401.461 179.27C419.651 179.18 431.641 168.38 431.411 152.56C431.191 137.12 419.421 126.66 401.781 126.59C372.981 126.48 344.171 126.5 315.371 126.58C295.101 126.64 284.801 136.79 284.781 156.91C284.721 231.73 284.721 306.55 284.781 381.36C284.801 399.41 295.831 411.54 311.551 411.25C326.941 410.97 337.371 399.15 337.451 381.52C337.561 355.53 337.481 329.53 337.481 303.54C337.481 300.2 337.481 296.87 337.481 293.11C357.001 293.11 374.901 293.15 392.791 293.1C411.991 293.04 424.041 282.71 423.931 266.52C423.821 250.41 411.841 240.48 392.381 240.39C384.301 240.35 376.221 240.39 368.141 240.39C358.111 240.39 348.071 240.39 337.991 240.39V179.29H338.021Z" fill="#0E5684"/>
<path d="M0 480.94C1.42 476.33 2.88 471.74 4.24 467.12C16.4 425.74 56.2 395.58 99.14 396.55C99.14 407.15 98.41 417.92 99.3 428.55C100.83 446.67 101.19 465.29 105.88 482.66C124.48 551.67 188.65 600.21 260.19 601.13C269.29 601.25 278.4 601.15 289.05 601.15C289.05 619.48 288.52 637.27 289.17 655.02C290.36 687.81 304.8 713.78 332.15 731.86C368.88 756.14 415.86 752.82 447.85 722.25C485.97 685.83 522.88 648.15 559.92 610.62C566.58 603.87 573.09 600.91 582.75 600.95C675.55 601.34 768.36 601.18 861.17 601.18H875.4C875.4 605.27 875.4 608.96 875.4 612.65C875.4 684.01 875.42 755.37 875.4 826.74C875.38 891.31 833.25 933.65 768.42 933.72C630.27 933.87 492.11 933.91 353.96 933.51C342.78 933.48 335.16 936.82 327.46 944.66C288.79 984.03 249.68 1022.98 210.43 1061.79C203.57 1068.57 195.35 1073.98 187.75 1080.02H170.87C152.49 1071.7 146.49 1057.3 147.38 1037.59C148.54 1012 147.66 986.32 147.66 960.67V933.76C132.42 933.76 118.43 933.93 104.45 933.73C56.87 933.04 20.03 907.72 5.54 865.81C3.5 859.91 1.84 853.91 0 847.97C0 725.63 0 603.28 0 480.94Z" fill="#0E5684"/>
<path d="M903.11 310.66C896.95 303.54 892.15 296.94 886.3 291.47C874.95 280.84 859.61 280.94 849.34 290.96C838.78 301.27 838.53 317.16 849.42 328.71C855.16 334.8 861.92 339.93 868.54 345.77C835.62 368.64 784.82 359.48 757.06 327.4C727.7 293.47 728.33 242.1 758.5 208.91C789.32 175.01 840 169.56 877.03 196.15C912.8 221.83 925.24 271.43 903.1 310.66H903.11Z" fill="#0E5684"/>
<path d="M549.77 217.75C560.75 246.84 570.73 273.3 581.13 300.85H518.25C528.51 273.81 538.65 247.06 549.77 217.75Z" fill="#0E5684"/>
</g>
<defs>
<clipPath id="clip0_262_1147">
<rect width="1080" height="1080" fill="white"/>
</clipPath>
</defs>
</svg>
