<svg width="1080" height="1080" viewBox="0 0 1080 1080" fill="none" xmlns="http://www.w3.org/2000/svg">
<g clip-path="url(#clip0_262_1159)">
<path d="M0.00046875 554.77C0.00046875 544.93 0.00046875 535.08 0.00046875 525.24C6.36047 493.72 26.7205 471.63 48.6605 449.8C182.46 316.66 315.93 183.19 449.07 49.4C471.13 27.24 493.3 6.4 525.23 0H554.76C586.3 6.32 608.32 26.76 630.13 48.67C763.74 182.91 897.641 316.85 1031.92 450.42C1054.2 472.58 1074.46 495.13 1079.99 527.35V552.66C1079.37 554.26 1078.5 555.81 1078.17 557.47C1068.41 606.41 1029.71 638.7 980.01 639.28C974.911 639.34 969.81 639.28 964.12 639.28C964.12 645.13 964.12 649.32 964.12 653.5C964.09 757.84 964.401 862.17 963.87 966.51C963.62 1015.98 929.94 1059.83 882.79 1074.48C876.17 1076.54 869.42 1078.17 862.72 1079.99H668.66C649.98 1073.03 643.35 1059.32 643.48 1039.79C643.98 959.38 643.74 878.97 643.66 798.55C643.62 762.67 621.85 741.05 585.8 740.93C555.951 740.83 526.11 740.88 496.26 740.91C457.26 740.95 436.23 761.81 436.21 800.57C436.17 880.28 435.91 959.99 436.4 1039.7C436.52 1059.18 430.03 1073 411.31 1079.99H217.25C216.36 1079.47 215.51 1078.61 214.57 1078.49C164.19 1072.25 114.49 1025.43 115.43 957.04C116.82 855.49 115.79 753.92 115.79 652.35C115.79 648.27 115.79 644.2 115.79 639.24C108.43 639.24 102.5 639.5 96.6005 639.2C57.9605 637.21 29.1905 619.1 11.0505 585.08C6.04047 575.68 3.60047 564.9 -0.0195312 554.75L0.00046875 554.77Z" fill="#0E5684"/>
</g>
<defs>
<clipPath id="clip0_262_1159">
<rect width="1080" height="1080" fill="white"/>
</clipPath>
</defs>
</svg>
