<svg width="1002" height="1002" viewBox="0 0 1002 1002" fill="none" xmlns="http://www.w3.org/2000/svg">
<g clip-path="url(#clip0_262_1154)">
<path fill-rule="evenodd" clip-rule="evenodd" d="M482.622 714.265V700.87H434.163L442.849 602.444H482.622V589.049H443.992L447.97 543.699H157.491C157.491 491.171 234.385 448.564 329.246 448.564C346.48 448.564 363.121 449.981 378.802 452.633L225.608 338.389C257.015 296.285 344.103 308.079 420.129 364.767C430.186 372.264 439.512 380.173 448.107 388.356C448.564 323.257 466.027 260.123 482.577 229.219V109.078C482.577 48.9619 431.923 0.0458984 369.704 0.0458984C337.383 0.0458984 306.57 13.4406 285.175 36.8472C264.512 59.4308 254.592 88.4604 257.243 118.587C258.157 129.01 249.837 138.336 239.368 138.611C194.704 139.662 154.611 160.783 129.467 196.578C107.478 227.848 100.392 265.701 109.352 301.862C121.696 304.742 141.811 310.731 162.017 322.16C206.178 347.166 229.539 385.522 229.539 433.204H192.784C192.784 399.1 176.326 372.493 143.913 354.161C124.804 343.326 105.238 338.48 96.689 336.697C37.807 361.201 0 416.472 0 478.828C0 541.184 34.1955 591.38 89.2831 617.667C100.301 622.924 103.135 637.874 94.769 646.834C54.1276 690.264 47.8645 751.477 78.8598 802.725C102.952 842.589 156.348 881.95 228.625 864.67C240.465 849.355 276.855 794.907 243.071 741.237L274.204 721.671C314.982 786.496 282.753 856.121 256.923 888.259C255.643 916.512 265.472 943.53 284.901 964.925C306.296 988.468 337.2 1002 369.704 1002C420.586 1002 463.696 969.313 477.731 924.558H414.414L423.1 826.131H482.577V812.737H424.289L432.975 714.31H482.622V714.265ZM356.721 111.455C414.643 111.455 439.375 156.577 444.404 180.395L408.425 188.075C407.511 184.006 398.185 148.211 356.721 148.211V111.455Z" fill="#0E5684"/>
<path fill-rule="evenodd" clip-rule="evenodd" d="M1002 478.828C1002 416.426 964.194 361.155 905.221 336.652C885.334 340.583 809.217 360.332 809.217 433.158H772.462C772.462 385.476 795.823 347.12 839.984 322.114C860.191 310.685 880.306 304.696 892.649 301.816C901.609 265.655 894.523 227.802 872.534 196.532C847.344 160.737 807.297 139.57 762.633 138.565C752.164 138.336 743.798 128.964 744.758 118.541C747.455 88.4602 737.535 59.4306 716.826 36.8013C695.431 13.3947 664.618 0 632.297 0C570.032 0 519.425 48.916 519.425 109.032V229.174C535.974 260.077 553.437 323.211 553.894 388.356C562.489 380.173 571.815 372.264 581.872 364.767C657.898 308.079 744.987 296.239 776.393 338.389L623.2 452.633C638.88 450.027 655.521 448.564 672.756 448.564C767.616 448.564 844.51 491.171 844.51 543.699H554.032L558.009 589.049H519.379V602.443H559.197L567.838 700.87H519.379V714.264H569.026L577.712 812.691H519.379V826.085H578.855L587.541 924.512H524.225C538.305 969.267 581.415 1001.95 632.297 1001.95C664.801 1001.95 695.705 988.422 717.1 964.879C736.529 943.484 746.358 916.42 745.078 888.213C719.249 856.075 687.019 786.45 727.797 721.625L758.93 741.191C725.146 794.862 761.581 849.355 773.376 864.624C845.699 881.905 899.095 842.543 923.141 802.679C954.137 751.386 947.874 690.218 907.232 646.788C898.866 637.873 901.701 622.878 912.718 617.621C967.76 591.335 1001.96 538.121 1001.96 478.782L1002 478.828ZM645.28 148.211C600.936 148.211 583.335 189.355 582.604 191.092L548.5 177.286C549.597 174.589 575.701 111.41 645.235 111.41V148.165L645.28 148.211Z" fill="#0E5684"/>
</g>
<defs>
<clipPath id="clip0_262_1154">
<rect width="1002" height="1002" fill="white"/>
</clipPath>
</defs>
</svg>
