<svg width="1080" height="1080" viewBox="0 0 1080 1080" fill="none" xmlns="http://www.w3.org/2000/svg">
<g clip-path="url(#clip0_262_1162)">
<path d="M1080 78.0505V913.36C1079.59 913.91 1078.92 914.421 1078.79 915.031C1070.68 954.471 1045.74 977.13 1008.2 989.3C916.64 1018.99 825.42 1049.7 734.06 1080H706.64C706.1 1079.57 705.63 1078.91 705.02 1078.75C653.65 1064.96 630.22 1034.47 630.18 981.32C630.18 969.48 630.18 957.641 630.18 945C624.99 945 621.18 945 617.38 945C577.3 945 537.23 945.1 497.15 944.98C419.86 944.74 360.91 886.291 360.23 809.151C359.98 780.331 360.1 751.5 360.27 722.67C360.3 717.46 360.68 712.041 362.13 707.081C368.31 685.88 389.25 672.41 410.77 675.31C432.56 678.25 449.18 696.07 449.6 718.42C450.15 747.24 449.74 776.07 449.85 804.891C449.98 836.601 467.93 854.72 499.42 854.8C539.49 854.9 579.57 854.84 619.65 854.8C622.74 854.8 625.83 854.49 630.19 854.25V840.29C630.19 690.891 630.19 541.48 630.19 392.08C630.19 322.12 630.04 252.17 630.25 182.21C630.38 140.61 652.45 109.09 690.7 94.7205C692.99 93.8605 695.17 92.6705 697.4 91.6305C697.26 91.1405 697.12 90.6505 696.99 90.1605C694.92 90.1605 692.84 90.1605 690.77 90.1605C626.44 90.1605 562.11 90.0505 497.78 90.2105C468.31 90.2905 450.19 108.78 449.88 138.56C449.73 152.27 450.08 165.98 449.77 179.69C449.19 205.47 430.04 224.85 405.29 225.06C380.65 225.27 360.86 205.8 360.33 180.22C359.97 163 359.77 145.75 360.51 128.55C362.28 87.0705 380.69 54.0005 412.78 28.1505C432.17 12.5305 454.97 5.00047 478.86 -0.0195312C652.53 -0.0195312 826.2 -0.0195312 999.88 -0.0195312C1002.54 0.730469 1005.17 1.58047 1007.85 2.21047C1040.69 9.94047 1063.25 29.4805 1075.16 61.0605C1077.23 66.5505 1078.43 72.3605 1080.03 78.0205L1080 78.0505Z" fill="#0E5684"/>
<path d="M0 440.861C9.12 414.151 28.02 404.131 55.81 404.691C107.8 405.751 159.83 405.001 211.84 405.001H225.18C225.18 400.821 225.18 397.151 225.18 393.481C225.18 354.121 225.48 314.761 225.06 275.401C224.83 253.951 232.57 237.671 252.55 228.701C270.87 220.471 288.94 225.271 305.95 242.261C363.38 299.631 420.79 357.031 478.15 414.481C500.97 437.341 500.94 462.591 478.04 485.541C419.94 543.731 361.89 601.991 303.54 659.931C277.44 685.851 236.51 676.271 226.99 642.251C225.32 636.291 225.28 629.751 225.26 623.471C225.11 585.161 225.19 546.861 225.19 508.551C225.19 504.731 225.19 500.911 225.19 495.851C220.51 495.601 216.48 495.201 212.46 495.201C160.8 495.161 109.12 494.411 57.49 495.481C29.65 496.051 9.82 486.841 0.02 459.841V440.861H0Z" fill="#0E5684"/>
</g>
<defs>
<clipPath id="clip0_262_1162">
<rect width="1080" height="1080" fill="white"/>
</clipPath>
</defs>
</svg>
