<svg width="1080" height="1080" viewBox="0 0 1080 1080" fill="none" xmlns="http://www.w3.org/2000/svg">
<g clip-path="url(#clip0_262_1167)">
<path d="M373.36 1080H345.94C339.66 1078.02 333.35 1076.13 327.1 1074.05C239.37 1044.87 151.58 1015.84 63.94 986.38C30.85 975.26 9.85 952.47 1.93 918.12C1.55 916.47 0.65 914.95 0 913.36C0 634.22 0 355.08 0 75.94C0.88 73.39 1.89 70.87 2.62 68.27C11.4 37.14 30.92 15.93 61.26 4.75C66.08 2.97 71.04 1.57 75.94 0C251.02 0 426.09 0 601.17 0C603.83 0.72 606.46 1.67 609.17 2.14C667.69 12.42 716.77 64.52 718.95 122.28C720.85 172.48 719.67 222.8 719.53 273.07C719.49 286.13 713.33 296.82 703.22 304.83C689.03 316.07 673.05 318.18 656.66 310.84C639.82 303.29 630.47 289.68 630.34 271.02C630.02 227.78 630.23 184.54 630.16 141.3C630.1 108.1 612.48 90.23 579.66 90.2C517.08 90.14 454.5 90.17 391.93 90.2C388.9 90.2 385.87 90.47 382.47 90.63C383.21 91.72 383.43 92.48 383.9 92.68C433.15 113.54 449.83 138.73 449.83 192.3C449.83 408.51 449.83 624.72 449.83 840.93V854.83C455.44 854.83 459.28 854.83 463.11 854.83C501.43 854.83 539.75 854.85 578.07 854.83C613.02 854.81 630.16 837.48 630.18 802.14C630.21 746.59 630.14 691.05 630.26 635.5C630.27 629.57 630.41 623.42 631.93 617.76C637.55 596.88 658.33 582.79 679 585.19C702.48 587.92 719.44 605.28 719.61 628.74C720.05 688.85 720.15 748.97 719.73 809.09C719.2 886.41 660.22 944.74 582.9 944.98C542.47 945.11 502.04 945 461.61 945H449.63C449.63 962.4 450.08 978.19 449.53 993.94C448.56 1022.01 436.85 1045.38 413.93 1061.26C401.87 1069.61 386.99 1073.88 373.38 1080H373.36Z" fill="#0E5684"/>
<path d="M1080 459.84C1071.81 470.98 1064.83 483.31 1055.23 493.05C1000.46 548.64 945.03 603.56 889.93 658.82C878.02 670.77 864.25 677.28 847.23 674.22C824.87 670.2 810.17 652.11 810.06 628.46C809.87 588.39 810 548.32 810 508.24C810 504.42 810 500.59 810 495.17C805.32 495.17 801.28 495.17 797.24 495.17C742.76 495.17 688.27 495.26 633.79 495.13C608.66 495.07 590.5 481.09 586.08 458.96C580.33 430.24 601.18 405.17 631.45 405.06C686.64 404.85 741.82 405 797.01 405C800.84 405 804.67 405 810.01 405C810.01 400.76 810.01 397.06 810.01 393.36C810.01 353.64 810.17 313.92 809.94 274.2C809.82 253.12 818.07 236.93 837.7 228.76C857.27 220.62 874.66 225.92 889.56 240.86C947.88 299.36 1006.5 357.56 1064.54 416.33C1071.17 423.04 1074.92 432.61 1080 440.86V459.84Z" fill="#0E5684"/>
</g>
<defs>
<clipPath id="clip0_262_1167">
<rect width="1080" height="1080" fill="white"/>
</clipPath>
</defs>
</svg>
