<svg width="901" height="1080" viewBox="0 0 901 1080" fill="none" xmlns="http://www.w3.org/2000/svg">
<g clip-path="url(#clip0_262_1180)">
<path d="M166.491 1080C154.231 1077.44 141.771 1075.59 129.741 1072.2C52.7506 1050.52 4.10055 991.18 0.700549 910.39C-2.80945 826.92 6.36055 744.66 38.0806 666.51C58.5606 616.05 88.3005 572.4 138.151 545.75C168.891 529.31 201.881 521.46 236.381 522.17C247.261 522.4 258.721 527.89 268.651 533.29C284.651 541.99 299.491 552.81 315.031 562.4C405.371 618.18 495.751 618.13 586.011 562.2C598.551 554.43 611.341 546.94 623.111 538.12C644.711 521.94 668.481 519.91 694.151 523.68C764.201 533.97 813.681 572.35 847.041 633.55C876.821 688.2 890.231 747.54 896.191 808.69C899.251 840.09 900.701 871.81 900.321 903.36C899.191 997.58 834.521 1067.69 740.801 1078.02C738.471 1078.28 736.231 1079.32 733.941 1080H166.491Z" fill="#0E5684"/>
<path d="M468.15 0C482.19 2.81 496.32 5.23 510.25 8.49C605.93 30.91 687.65 122.2 700.53 219.85C709.01 284.14 699.66 344.89 663.35 399.25C615.12 471.46 548.39 513.49 460.13 519.46C344.24 527.29 248.92 459.13 205.65 366.61C165.01 279.72 181.45 163.96 245.16 91.93C284.26 47.72 331.38 17.26 389.71 5.38C399.65 3.35 409.66 1.78 419.63 0C435.8 0 451.98 0 468.15 0Z" fill="#0E5684"/>
</g>
<defs>
<clipPath id="clip0_262_1180">
<rect width="900.38" height="1080" fill="white"/>
</clipPath>
</defs>
</svg>
