<svg width="1080" height="1080" viewBox="0 0 1080 1080" fill="none" xmlns="http://www.w3.org/2000/svg">
<g clip-path="url(#clip0_262_1172)">
<path d="M1080 86.48V451.4C1079.53 452.34 1078.88 453.24 1078.63 454.23C1064.31 510.9 1029.71 537.8 971.088 537.81C886.028 537.81 800.968 537.81 715.908 537.81C711.808 537.81 707.698 537.81 702.588 537.81C702.588 524.75 702.928 512.88 702.528 501.03C701.418 468.45 699.928 435.88 698.858 403.29C698.788 401.04 700.288 397.92 702.078 396.57C712.308 388.86 715.658 378.59 715.598 366.17C715.368 314.5 715.498 262.83 715.508 211.16C715.508 207.4 715.508 203.64 715.508 198.64C725.418 198.64 734.108 198.82 742.798 198.6C760.828 198.14 773.968 185.73 774.698 168.73C775.438 151.56 763.538 136.31 745.908 135.9C704.808 134.93 663.658 134.98 622.558 135.82C605.208 136.17 592.328 151.87 593.048 168.28C593.788 185.25 607.048 198.04 624.778 198.57C633.478 198.83 642.188 198.62 651.478 198.62V317.92C638.678 309.56 626.988 300.5 614.058 293.89C600.768 287.1 586.258 282.72 571.648 277.03C572.458 249.08 567.058 221.89 552.938 196.69C513.158 125.72 426.268 114.71 373.598 174.04C324.368 229.5 328.068 321.05 381.968 371.94C387.148 376.83 387.518 380.54 386.038 387.17C382.338 403.86 378.548 420.82 377.788 437.81C376.468 467.28 377.418 496.84 377.408 526.37C377.408 530.04 377.408 533.72 377.408 537.59C281.438 537.59 187.248 538.23 93.0683 537.21C63.5983 536.89 38.0683 523.34 21.3583 498.77C11.7683 484.67 6.95828 467.31 -0.0117188 451.41C-0.0117188 329.77 -0.0117188 208.13 -0.0117188 86.49C0.778281 83.52 1.58828 80.55 2.34828 77.56C10.7883 44.14 30.8283 20.54 62.5983 7.25C70.2383 4.06 78.5083 2.37 86.4883 0C388.828 0 691.178 0 993.518 0C995.478 0.64 997.398 1.47 999.398 1.91C1036.47 10.03 1061.53 31.96 1074.62 67.5C1076.89 73.66 1078.23 80.15 1080 86.49V86.48ZM877.288 300.45C885.908 300.45 893.238 300.48 900.578 300.44C905.498 300.41 910.448 300.58 915.328 300.13C931.878 298.58 944.118 285.6 944.518 269.47C944.918 253.62 932.948 239.27 916.498 237.86C903.718 236.77 890.768 237.64 877.618 237.64V198.67C885.738 198.67 893.048 198.67 900.368 198.67C909.508 198.67 918.648 198.78 927.788 198.64C947.428 198.33 961.608 184.94 961.458 167.02C961.318 149.22 947.008 135.66 927.448 135.46C901.438 135.2 875.418 135.31 849.408 135.41C826.048 135.51 813.588 147.86 813.548 171.25C813.438 236.28 813.448 301.32 813.548 366.35C813.588 389.78 825.978 402.2 849.288 402.33C874.598 402.47 899.908 402.44 925.218 402.29C929.738 402.26 934.398 401.81 938.738 400.61C951.888 396.98 961.288 384.36 961.458 370.85C961.638 357.09 951.848 343.67 938.328 340.35C932.968 339.03 927.178 339.2 921.588 339.14C906.958 338.99 892.318 339.09 877.288 339.09V300.46V300.45ZM218.268 269.6C216.368 264.58 215.308 262.03 214.438 259.42C203.318 226.15 192.348 192.83 181.098 159.61C174.738 140.82 158.088 131.74 140.728 137.14C123.588 142.47 114.658 160.27 120.758 178.72C142.898 245.65 165.258 312.51 187.728 379.33C192.628 393.9 204.698 402.47 218.448 402.24C231.908 402.01 243.358 393.52 248.388 379.56C251.958 369.66 255.038 359.59 258.358 349.6C277.198 293.01 296.138 236.46 314.828 179.82C321.668 159.1 311.948 140.8 292.328 136.41C276.008 132.76 261.088 141.85 255.098 159.56C242.968 195.44 231.038 231.39 218.268 269.61V269.6Z" fill="#0E5684"/>
<path d="M497.81 1080C493.12 1078.77 488.45 1077.41 483.73 1076.34C460.55 1071.09 440.08 1060.4 423.24 1043.81C381.68 1002.85 340.07 961.92 299.54 919.94C271.97 891.39 263.83 856.54 275.64 818.52C287.42 780.59 313.65 756.75 352.51 748.09C379.69 742.04 405.56 746.73 429.41 761.43C432.62 763.41 435.78 765.46 440.17 768.25C440.38 763.44 440.68 759.77 440.68 756.1C440.71 650.64 440.55 545.18 440.78 439.72C440.89 390.13 473.05 350.79 520.68 340.9C579.97 328.59 637.97 374 639.01 434.62C639.89 485.93 639.26 537.26 639.3 588.59C639.3 592.38 639.3 596.16 639.3 601.09C645.85 601.09 651.36 601.09 656.88 601.09C696.25 601.09 735.62 601.01 775 601.11C850.6 601.29 909.53 658.15 910.5 733.5C911.42 804.85 911.35 876.23 910.5 947.58C909.7 1014.07 863.67 1066.59 798.01 1078.25C796.33 1078.55 794.76 1079.4 793.13 1080H497.82H497.81Z" fill="#0E5684"/>
<path d="M0 567.42C34.81 593.08 74.03 601.94 116.9 601.4C199.1 600.36 281.33 601.1 363.55 601.1H376.72V673.16C372.4 673.16 368.31 673.16 364.22 673.16C279.19 673.16 194.16 673.16 109.14 673.16C50.16 673.16 16.34 647.08 1.31 590.09C1.15 589.5 0.45 589.04 0 588.53C0 581.5 0 574.47 0 567.44L0 567.42Z" fill="#0E5684"/>
<path d="M1080 577.97C1075.35 596.03 1069.6 613.5 1057.21 628.15C1032.91 656.88 1001.26 666.49 964.989 664.17C962.929 664.04 960.349 661.61 959.169 659.58C947.909 640.36 936.899 620.99 925.289 600.74C978.729 602.93 1033.62 603.98 1080.01 567.43V577.98L1080 577.97Z" fill="#0E5684"/>
<path d="M423.877 324.3C395.957 294.45 395.417 244.12 421.607 215.26C441.317 193.55 468.947 193.33 488.647 215.11C503.277 231.29 508.897 250.85 508.057 272.33C507.957 274.85 505.857 279.04 503.967 279.49C473.207 286.82 446.837 302 423.867 324.29L423.877 324.3Z" fill="#0E5684"/>
</g>
<defs>
<clipPath id="clip0_262_1172">
<rect width="1080" height="1080" fill="white"/>
</clipPath>
</defs>
</svg>
